<svg width="76" height="68" viewBox="0 0 76 68" fill="none" xmlns="http://www.w3.org/2000/svg">
<path fill-rule="evenodd" clip-rule="evenodd" d="M70.9633 33.2495C70.5717 37.3014 67.3475 40.41 62.3766 42.2315C63.9421 47.298 63.3922 51.9359 60.3378 55.1069C58.8111 56.6918 56.792 57.7698 54.431 58.369C54.232 58.6281 54.0121 58.8745 53.7687 59.1047C49.0351 63.5824 37.6251 60.7165 28.2836 52.7037C26.7488 51.3872 25.3665 50.0127 24.147 48.6166C11.8492 38.6086 7.09802 25.3261 13.5629 18.6145C13.5984 18.5777 13.6358 18.5428 13.6718 18.5065C16.9972 11.864 29.2863 8.8418 43.4054 11.7112C59.4593 14.9739 71.7974 24.6166 70.9633 33.2495Z" fill="#D6EADE"/>
<path fill-rule="evenodd" clip-rule="evenodd" d="M50.7218 27.0911C50.4333 30.0753 48.056 32.3639 44.3917 33.7031C45.551 37.4376 45.1485 40.8566 42.8979 43.1933C41.7729 44.3612 40.285 45.1564 38.5444 45.5967C38.4003 45.783 38.2409 45.9596 38.0654 46.1255C34.5838 49.4193 26.1912 47.3121 19.3198 41.4182C18.2027 40.46 17.1967 39.4586 16.3066 38.4428C7.23958 31.0787 3.73175 21.2936 8.49193 16.3515C8.51484 16.3278 8.53947 16.3054 8.56267 16.282C10.9829 11.3716 20.0403 9.13291 30.4506 11.2485C42.2593 13.6484 51.3352 20.7411 50.7218 27.0911Z" fill="#C8D8CF"/>
</svg>
