<svg width="115" height="112" viewBox="0 0 115 112" fill="none" xmlns="http://www.w3.org/2000/svg">
<g opacity="0.56">
<path fill-rule="evenodd" clip-rule="evenodd" d="M51.1552 0.399789C53.8516 -0.504814 56.7532 0.667678 59.3312 3.32095C62.1178 0.875478 65.2352 -0.0963743 68.1295 0.949095C69.5761 1.47176 70.84 2.45285 71.895 3.78937C72.1146 3.8423 72.3319 3.91222 72.5459 4.00095C76.7495 5.74407 78.1717 13.8365 75.7225 22.0757C75.3225 23.4214 74.8421 24.687 74.3031 25.8565C71.4269 36.5602 64.3049 43.3828 58.18 41.1706C58.1489 41.1594 58.1185 41.146 58.0876 41.1344C52.8994 40.9202 47.4623 33.9399 45.2685 24.1082C42.7768 12.9413 45.4123 2.32645 51.1552 0.399789Z" fill="#D6EADE"/>
<path fill-rule="evenodd" clip-rule="evenodd" d="M3.66989 74.01C4.23534 76.8002 6.70572 78.728 10.2984 79.6328C9.57162 83.2716 10.288 86.4599 12.6418 88.445C13.8159 89.4351 15.2956 90.038 16.9776 90.2842C17.1336 90.4484 17.3037 90.6019 17.4881 90.7433C21.0996 93.5118 28.819 90.6975 34.7296 84.4569C35.6866 83.4465 36.535 82.4065 37.2738 81.3641C45.1262 73.5166 47.4842 63.9214 42.5003 59.7186C42.4727 59.6953 42.4437 59.6735 42.4158 59.6506C39.6393 55.2611 30.8732 54.0409 21.2586 57.0578C10.3419 60.4833 2.46698 68.0732 3.66989 74.01Z" fill="#D6EADE"/>
<path fill-rule="evenodd" clip-rule="evenodd" d="M110.283 38.2868C109.718 35.4966 107.248 33.5688 103.655 32.6641C104.382 29.0252 103.665 25.8369 101.311 23.8519C100.136 22.8609 98.6553 22.2574 96.9715 22.0117C96.8168 21.8493 96.6487 21.6974 96.4662 21.5575C92.8548 18.7886 85.1354 21.6032 79.2247 27.8438C78.2703 28.8514 77.4224 29.8877 76.6851 30.9271C68.8283 38.7755 66.468 48.3744 71.4528 52.5783C71.4803 52.6015 71.5095 52.6235 71.5373 52.6463C74.3137 57.0359 83.0799 58.2559 92.6945 55.2391C103.611 51.8135 111.486 44.2236 110.283 38.2868Z" fill="#D6EADE"/>
<path fill-rule="evenodd" clip-rule="evenodd" d="M101.592 94.2302C103.748 92.3699 104.219 89.2711 103.247 85.6956C106.77 84.5451 109.194 82.3599 109.771 79.338C110.058 77.832 109.86 76.25 109.253 74.6662C109.321 74.4475 109.373 74.2221 109.406 73.9897C110.05 69.4848 103.813 64.1351 95.4771 62.0407C94.1246 61.701 92.7996 61.4694 91.5265 61.3363C80.8384 58.3374 71.3189 60.9839 70.0977 67.3877C70.0896 67.4301 70.0842 67.473 70.0769 67.5155C67.635 72.0916 70.868 80.3148 78.1967 87.2056C86.532 95.0428 97.0064 98.1875 101.592 94.2302Z" fill="#D6EADE"/>
<path fill-rule="evenodd" clip-rule="evenodd" d="M5.1919 34.2315C5.72524 31.4348 8.17347 29.4781 11.7559 28.5322C10.9875 24.902 11.667 21.7056 13.998 19.6937C15.1602 18.6907 16.6314 18.0699 18.3094 17.8043C18.4627 17.6396 18.6299 17.4855 18.8114 17.3431C22.3908 14.533 30.1419 17.2588 36.1239 23.4312C37.0847 24.4226 37.94 25.4436 38.6865 26.4691C46.6466 34.23 49.1239 43.8127 44.1838 48.0765C44.1564 48.1001 44.1277 48.1222 44.1 48.1454C41.3738 52.5662 32.6223 53.8871 22.974 50.9808C12.0189 47.6808 4.0575 40.1817 5.1919 34.2315Z" fill="#D6EADE"/>
<path fill-rule="evenodd" clip-rule="evenodd" d="M65.7511 111.108C63.0545 112.013 60.1522 110.84 57.5741 108.187C54.7878 110.631 51.6706 111.603 48.7768 110.558C47.3306 110.035 46.0671 109.054 45.0122 107.718C44.7923 107.665 44.5747 107.596 44.3603 107.507C40.1567 105.764 38.7346 97.6712 41.1837 89.432C41.5836 88.0868 42.0633 86.8213 42.6022 85.6522C45.478 74.9471 52.6009 68.1236 58.7263 70.3362C58.7583 70.3478 58.7897 70.3614 58.8216 70.3734C64.0089 70.5901 69.4444 77.5697 71.6378 87.3995C74.1295 98.5664 71.4939 109.181 65.7511 111.108Z" fill="#D6EADE"/>
<path fill-rule="evenodd" clip-rule="evenodd" d="M52.9913 15.0696C54.9775 14.4033 57.1155 15.2682 59.0138 17.2257C61.0653 15.4224 63.3601 14.7041 65.4914 15.4738C66.5573 15.8588 67.4885 16.5826 68.2654 17.5682C68.4227 17.6068 68.5791 17.6545 68.7325 17.7181C71.8245 19.0003 72.8709 24.9529 71.0693 31.0134C70.7784 31.9918 70.4296 32.9125 70.0387 33.7645C67.9283 41.6549 62.6848 46.6881 58.1739 45.0587C58.1511 45.0505 58.1285 45.0411 58.1058 45.0326C54.285 44.8882 50.2769 39.7499 48.661 32.5083C46.8282 24.2944 48.7671 16.4867 52.9913 15.0696Z" fill="#C8D8CF"/>
<path fill-rule="evenodd" clip-rule="evenodd" d="M18.0668 69.2145C18.4828 71.268 20.3013 72.6865 22.9462 73.3516C22.4108 76.0291 22.9357 78.3746 24.6676 79.8351C25.5308 80.5631 26.6183 81.0069 27.8547 81.1882C27.9684 81.3075 28.0901 81.4214 28.2242 81.5243C30.8808 83.5606 36.5586 81.4898 40.9062 76.8996C41.6041 76.1627 42.2241 75.4049 42.7642 74.6448C48.5558 68.869 50.3 61.8005 46.6301 58.7055C46.61 58.6885 46.5883 58.6728 46.5679 58.6561C44.5278 55.4248 38.0784 54.5252 31.0041 56.745C22.9743 59.2646 17.1822 64.8477 18.0668 69.2145Z" fill="#C8D8CF"/>
<path fill-rule="evenodd" clip-rule="evenodd" d="M96.5036 42.9358C96.0874 40.8824 94.269 39.4639 91.6242 38.7987C92.1594 36.1214 91.6347 33.7757 89.9028 32.3152C89.0349 31.5834 87.9404 31.1386 86.6957 30.9592C86.5832 30.8417 86.4629 30.73 86.3305 30.6285C83.6741 28.5918 77.9958 30.6619 73.6481 35.2524C72.9368 36.0034 72.3068 36.7765 71.7595 37.5513C66.0045 43.3188 64.2802 50.359 67.9407 53.4457C67.9609 53.4628 67.9824 53.4783 68.0029 53.4951C70.0434 56.7259 76.4923 57.625 83.5663 55.4053C91.5962 52.8856 97.3884 47.3027 96.5036 42.9358Z" fill="#C8D8CF"/>
<path fill-rule="evenodd" clip-rule="evenodd" d="M90.0919 84.0871C91.6771 82.7189 92.0229 80.4401 91.3082 77.8105C93.9044 76.965 95.692 75.3581 96.1164 73.1328C96.3289 72.0187 96.181 70.8476 95.7285 69.6759C95.7749 69.522 95.8132 69.3646 95.8366 69.2015C96.3102 65.8879 91.7232 61.9525 85.5911 60.412C84.6053 60.1643 83.6394 59.9952 82.7108 59.8969C74.8431 57.6845 67.8336 59.6295 66.9348 64.3429C66.9305 64.3654 66.9277 64.3883 66.9237 64.4109C65.1013 67.7717 67.4779 73.8384 72.8825 78.9201C79.0138 84.6849 86.7189 86.9983 90.0919 84.0871Z" fill="#C8D8CF"/>
<path fill-rule="evenodd" clip-rule="evenodd" d="M19.1914 39.95C19.5839 37.893 21.3848 36.4545 24.0198 35.7588C23.4549 33.089 23.9541 30.7388 25.6683 29.2591C26.5245 28.5201 27.6091 28.0635 28.8459 27.8686C28.9583 27.7478 29.0792 27.6333 29.2123 27.5288C31.8452 25.4618 37.5461 27.4662 41.9462 32.0063C42.6606 32.7435 43.2953 33.5035 43.8485 34.2661C49.6861 39.9708 51.501 47.0029 47.8719 50.1353C47.8516 50.1528 47.8303 50.1691 47.8097 50.1863C45.8036 53.4371 39.367 54.4078 32.2709 52.2702C24.2127 49.8428 18.3568 44.3267 19.1914 39.95Z" fill="#C8D8CF"/>
<path fill-rule="evenodd" clip-rule="evenodd" d="M63.7431 96.4988C61.7569 97.1651 59.6189 96.3001 57.7206 94.3426C55.669 96.1461 53.3735 96.8645 51.242 96.0946C50.1763 95.7095 49.2458 94.9856 48.469 94.0001C48.3117 93.9615 48.1554 93.9138 48.0019 93.8502C44.9099 92.568 43.8635 86.6154 45.6651 80.5549C45.9554 79.5784 46.3037 78.6594 46.6937 77.8088C48.8032 69.9154 54.0486 64.8798 58.5605 66.5096C58.5834 66.5179 58.6058 66.5272 58.6286 66.5358C62.4494 66.6802 66.4575 71.8185 68.0734 79.06C69.9061 87.2739 67.9673 95.0816 63.7431 96.4988Z" fill="#C8D8CF"/>
</g>
</svg>
