<svg width="443" height="468" viewBox="0 0 443 468" fill="none" xmlns="http://www.w3.org/2000/svg">
<g>
<path fill-rule="evenodd" clip-rule="evenodd" d="M175.455 1.67658C186.762 -2.11642 198.93 2.79752 209.739 13.9243C221.422 3.67303 234.49 -0.401096 246.623 3.98166C252.687 6.17188 257.985 10.2836 262.408 15.8843C263.332 16.1065 264.246 16.4025 265.147 16.7761C282.771 24.0843 288.735 58.0115 278.466 92.555C276.785 98.2108 274.77 103.531 272.503 108.445C260.439 153.301 230.584 181.886 204.911 172.613C204.777 172.565 204.645 172.514 204.512 172.464C182.763 171.56 159.972 142.29 150.775 101.075C140.328 54.2566 151.378 9.75421 175.455 1.67658Z" fill="#D6EADE"/>
<path fill-rule="evenodd" clip-rule="evenodd" d="M-23.6132 310.3C-21.2429 321.998 -10.8874 330.084 4.17471 333.878C1.12749 349.134 4.13087 362.501 14.0001 370.823C18.9253 374.977 25.1301 377.509 32.1857 378.54C32.8372 379.225 33.5466 379.864 34.3158 380.454C49.4568 392.063 81.8206 380.262 106.602 354.098C110.615 349.861 114.181 345.506 117.278 341.135C150.197 308.234 160.078 268.004 139.183 250.384C139.07 250.289 138.956 250.197 138.842 250.104C127.207 231.693 90.444 226.577 50.128 239.227C4.359 253.589 -28.6563 285.41 -23.6132 310.3Z" fill="#D6EADE"/>
<path fill-rule="evenodd" clip-rule="evenodd" d="M423.387 160.518C421.016 148.82 410.661 140.734 395.599 136.941C398.646 121.684 395.643 108.317 385.773 99.9949C380.844 95.8379 374.632 93.3044 367.568 92.2752C366.922 91.5981 366.219 90.9653 365.458 90.3814C350.317 78.7727 317.953 90.5719 293.172 116.736C289.176 120.955 285.623 125.292 282.534 129.644C249.585 162.552 239.687 202.808 260.591 220.434C260.703 220.529 260.818 220.621 260.932 220.715C272.566 239.125 309.329 244.242 349.645 231.591C395.414 217.229 428.43 185.409 423.387 160.518Z" fill="#D6EADE"/>
<path fill-rule="evenodd" clip-rule="evenodd" d="M386.956 395.063C395.991 387.266 397.964 374.279 393.892 359.292C408.67 354.47 418.84 345.305 421.257 332.631C422.463 326.309 421.632 319.666 419.08 313.017C419.36 312.109 419.572 311.172 419.71 310.207C422.409 291.32 396.264 268.892 361.313 260.111C355.658 258.69 350.117 257.717 344.793 257.158C299.972 244.574 260.047 255.674 254.926 282.527C254.895 282.69 254.867 282.853 254.839 283.017C244.56 302.194 258.119 336.7 288.866 365.611C323.813 398.47 367.73 411.657 386.956 395.063Z" fill="#D6EADE"/>
<path fill-rule="evenodd" clip-rule="evenodd" d="M-17.2094 143.516C-14.9736 131.794 -4.71476 123.591 10.299 119.624C7.07816 104.405 9.92856 91.0063 19.7009 82.5719C24.5735 78.3665 30.7417 75.7639 37.7769 74.6501C38.42 73.9585 39.1212 73.3113 39.883 72.7132C54.8898 60.9315 87.3869 72.3598 112.467 98.2384C116.501 102.401 120.096 106.686 123.229 110.992C156.589 143.527 166.965 183.693 146.257 201.566C146.147 201.661 146.036 201.753 145.925 201.845C134.502 220.388 97.8005 225.926 57.342 213.739C11.4111 199.903 -21.9668 168.463 -17.2094 143.516Z" fill="#D6EADE"/>
<path fill-rule="evenodd" clip-rule="evenodd" d="M236.693 465.833C225.387 469.626 213.219 464.712 202.409 453.585C190.727 463.837 177.659 467.911 165.525 463.528C159.462 461.338 154.164 457.226 149.742 451.626C148.817 451.403 147.902 451.107 147.001 450.734C129.377 443.426 123.414 409.498 133.682 374.955C135.363 369.3 137.379 363.981 139.645 359.068C151.709 314.21 181.564 285.623 207.237 294.897C207.371 294.945 207.503 294.996 207.636 295.046C229.386 295.95 252.176 325.219 261.373 366.435C271.82 413.253 260.77 457.756 236.693 465.833Z" fill="#D6EADE"/>
<path fill-rule="evenodd" clip-rule="evenodd" d="M183.156 63.1786C191.483 60.3849 200.445 64.0126 208.404 72.2199C217.007 64.6564 226.631 61.6445 235.569 64.8729C240.031 66.4847 243.93 69.511 247.184 73.6337C247.854 73.7964 248.517 74.0116 249.17 74.2825C262.134 79.6583 266.519 104.615 258.966 130.024C257.743 134.138 256.28 138.01 254.635 141.591C245.782 174.655 223.793 195.74 204.886 188.911C204.792 188.877 204.698 188.841 204.603 188.805C188.583 188.204 171.777 166.655 165.002 136.291C157.318 101.854 165.445 69.1201 183.156 63.1786Z" fill="#C8D8CF"/>
<path fill-rule="evenodd" clip-rule="evenodd" d="M36.7162 290.182C38.4608 298.793 46.0864 304.741 57.1772 307.529C54.9346 318.753 57.1407 328.586 64.4009 334.708C68.0116 337.753 72.5575 339.614 77.7261 340.377C78.2054 340.881 78.7272 341.351 79.2932 341.785C90.4304 350.324 114.236 341.645 132.464 322.399C135.358 319.344 137.936 316.205 140.183 313.054C164.544 288.82 171.889 259.112 156.48 246.118C156.388 246.041 156.294 245.964 156.201 245.888C147.631 232.359 120.6 228.603 90.957 237.904C57.2912 248.468 33.0067 271.874 36.7162 290.182Z" fill="#C8D8CF"/>
<path fill-rule="evenodd" clip-rule="evenodd" d="M365.588 180.005C363.844 171.395 356.218 165.446 345.128 162.658C347.37 151.435 345.164 141.602 337.904 135.479C334.275 132.42 329.702 130.556 324.502 129.8C324.025 129.3 323.506 128.833 322.944 128.402C311.807 119.864 288.002 128.544 269.774 147.789C266.811 150.918 264.179 154.135 261.894 157.363C237.716 181.555 230.465 211.118 245.825 224.07C245.917 224.148 246.011 224.223 246.104 224.3C254.674 237.828 281.705 241.585 311.348 232.283C345.014 221.719 369.298 198.314 365.588 180.005Z" fill="#C8D8CF"/>
<path fill-rule="evenodd" clip-rule="evenodd" d="M338.697 352.529C345.342 346.793 346.793 337.242 343.799 326.219C354.679 322.674 362.168 315.932 363.947 306.604C364.836 301.946 364.221 297.051 362.335 292.152C362.536 291.495 362.687 290.819 362.787 290.122C364.773 276.229 345.542 259.731 319.833 253.273C315.704 252.235 311.659 251.522 307.77 251.11C274.774 241.823 245.37 249.985 241.601 269.75C241.582 269.852 241.565 269.953 241.547 270.055C233.929 284.15 243.899 309.571 266.546 330.865C292.252 355.035 324.555 364.734 338.697 352.529Z" fill="#C8D8CF"/>
<path fill-rule="evenodd" clip-rule="evenodd" d="M41.4563 167.489C43.1006 158.867 50.6455 152.834 61.6875 149.916C59.3189 138.722 61.4136 128.867 68.6015 122.663C72.1891 119.567 76.7314 117.653 81.9124 116.835C82.3855 116.326 82.9011 115.849 83.4615 115.409C94.4999 106.743 118.404 115.149 136.852 134.185C139.84 137.268 142.5 140.443 144.815 143.633C169.302 167.554 176.91 197.056 161.691 210.191C161.612 210.26 161.531 210.326 161.451 210.394C153.049 224.032 126.053 228.105 96.2935 219.141C62.5086 208.964 37.9571 185.838 41.4563 167.489Z" fill="#C8D8CF"/>
<path fill-rule="evenodd" clip-rule="evenodd" d="M228.266 404.581C219.939 407.375 210.976 403.747 203.018 395.54C194.415 403.103 184.791 406.114 175.853 402.886C171.391 401.274 167.493 398.248 164.239 394.125C163.569 393.962 162.905 393.747 162.251 393.476C149.288 388.1 144.903 363.145 152.456 337.736C153.679 333.621 155.142 329.747 156.787 326.166C165.641 293.103 187.629 272.019 206.536 278.848C206.63 278.882 206.723 278.919 206.817 278.954C222.838 279.553 239.644 301.103 246.42 331.467C254.104 365.905 245.977 398.64 228.266 404.581Z" fill="#C8D8CF"/>
</g>
</svg>
