<svg width="482" height="186" viewBox="0 0 482 186" fill="none" xmlns="http://www.w3.org/2000/svg">
<path opacity="0.6" d="M487.75 147.5C460.41 120.96 392.058 72.4014 337.377 90.488C282.696 108.575 211.09 64.6031 182.123 40.3565C152.178 20.0418 80.1817 -14.493 31.75 9.88453" stroke="#929292" stroke-width="3" stroke-linecap="round"/>
<path opacity="0.6" d="M185.573 43.5C207.532 63.3937 255.38 87.5634 286.75 93.2C266.985 110.72 207.017 103.896 181.268 98.585C144.996 90.6275 142.055 105.548 106.764 114.5C105.783 84.6594 158.124 51.4575 185.573 43.5Z" fill="#8C8C8C" stroke="#969696" stroke-width="3" stroke-linecap="round"/>
<path opacity="0.6" d="M362.75 86.9852C390.095 82.4492 442.05 110.764 463.195 128.34C467.022 137.792 450.121 168.385 441.192 182.5C428.437 167.401 394.893 127.95 362.75 86.9852Z" fill="#8C8C8C" stroke="#969696" stroke-width="3" stroke-linecap="round"/>
<path opacity="0.6" d="M31.0318 9.11922C64.6349 -7.90782 115.237 7.64873 135.75 16.6782L0.75 27.5C4.65733 25.2426 16.184 18.4062 31.0318 9.11922Z" fill="#8C8C8C" stroke="#969696" stroke-width="3"/>
</svg>
