<svg width="21" height="27" viewBox="0 0 21 27" fill="none" xmlns="http://www.w3.org/2000/svg">
<path d="M1.05175 21.6146C-1.11733 19.6217 0.565097 15.5332 1.67744 13.7381C1.20267 14.8494 1.00519 17.5848 4.01341 19.6363C7.77369 22.2008 6.51619 24.9118 5.55679 26.8168C5.22309 23.4464 3.76309 24.1058 1.05175 21.6146Z" fill="#2A4071"/>
<path d="M4.43054 12.1628C3.16247 13.6282 4.04122 16.388 4.43054 17.5115C4.15245 16.1194 4.08015 13.1593 6.01563 12.4559C8.01786 10.038 6.30763 8.13295 4.88938 7.69333C6.34934 9.232 6.01563 10.3311 4.43054 12.1628Z" fill="#2A4071"/>
<path d="M6.01563 19.3433C8.0846 23.0361 8.26814 25.0339 8.10128 25.5712C10.1869 22.5305 8.43499 20.076 7.64244 18.6472C8.98003 18.3248 10.202 19.4654 10.6458 20.076C10.5624 19.6974 10.1285 18.6545 9.06068 17.5115C6.68304 14.947 8.43499 13.0787 9.72809 11.7598C8.35156 14.1045 9.01897 14.8738 11.1046 16.962C13.1903 19.0502 12.1474 19.3433 12.1474 20.5889C12.8149 20.1859 13.0234 18.7571 13.0234 17.6581C14.6085 19.3799 13.6491 19.3433 13.9828 20.076C14.8588 17.9512 13.4405 16.8155 12.7731 15.9362C12.1057 15.057 12.1474 14.7639 12.1474 13.445C12.8566 9.37858 12.4812 10.1845 11.1046 7.18046C9.72809 4.17639 11.6886 2.63772 12.4812 1.64856C10.5624 1.31884 6.64133 4.79917 7.64244 7.69333C8.44333 10.0087 8.28204 11.0271 8.10128 11.2469C7.14189 12.3948 5.3816 15.6211 6.01563 19.3433Z" fill="#2A4071"/>
<path d="M14.5668 3.40706C12.064 5.22415 13.1625 7.99864 14.0245 9.15875C13.0651 6.1547 15.985 4.76255 16.4856 4.21303C16.9862 3.6635 16.9444 2.0882 15.985 0C16.1102 3.00407 15.6096 2.41791 14.5668 3.40706Z" fill="#2A4071"/>
<path d="M15.1508 18.9769C15.2175 21.4095 12.4812 23.8982 11.1046 24.8385C12.064 24.2402 14.3833 22.7577 15.985 21.6146C18.9467 20.0339 18.9884 16.2659 17.5701 13.445C16.1519 10.6242 18.1958 9.45183 19.7809 7.69333C13.6491 9.08545 15.1508 13.7381 14.5668 14.251C13.9828 14.7639 14.0245 13.7381 13.4823 13.0054C12.94 15.863 15.0674 15.9362 15.1508 18.9769Z" fill="#2A4071"/>
<path d="M16.6525 22.6404C13.4489 23.7248 12.3143 25.9986 12.1474 27C13.9411 24.6554 17.153 25.2415 18.7381 24.4356C22.3204 21.2894 20.828 17.5222 19.7853 16.5266C20.4078 17.1282 20.6475 21.2881 16.6525 22.6404Z" fill="#2A4071"/>
<path d="M1.01007 8.60923C2.54511 10.2798 2.62298 11.4057 2.47003 11.7598C4.43054 10.5142 3.80485 8.13297 2.76202 7.51018C1.7192 6.88738 2.47003 6.00814 2.76202 4.43284C1.80262 4.90909 0.426092 7.327 1.01007 8.60923Z" fill="#2A4071"/>
</svg>
