<svg width="25" height="33" viewBox="0 0 25 33" fill="none" xmlns="http://www.w3.org/2000/svg">
<path d="M16.8811 2.68934C17.3561 2.453 17.7561 2.41569 18.2936 2.46544C18.4061 2.46544 18.4811 2.60227 18.5936 2.60227C18.7436 2.60227 19.2686 2.34105 19.6061 2.31617C22.5186 2.05495 25.5936 4.94081 23.5436 7.68983C22.3311 9.33178 20.3186 8.84666 18.8436 7.87642L18.4936 8.29935L18.8561 8.49837L19.4186 10.9115C22.2811 11.1354 22.5311 14.4567 21.6436 16.6086C20.5061 19.395 17.9686 21.2235 15.4561 22.6789L14.3561 25.3284L12.8811 24.7313C12.4311 25.1045 12.2686 25.515 12.0186 26.0125C11.9436 26.1618 11.7311 26.3484 11.6936 26.4603C11.6186 26.734 11.5561 27.1818 11.4686 27.5301C11.2561 28.4008 11.1061 29.2342 11.7186 29.993C11.9061 30.2169 12.1811 30.1672 12.0436 30.5403C11.8436 31.125 10.2561 31.9832 9.6561 32.0454C8.4061 32.1823 6.5311 31.4484 6.4061 30.0303C6.2061 27.8411 7.6936 26.3484 9.4811 25.3781C9.6686 25.2786 9.89357 25.2911 10.0561 25.1791C10.2061 25.0796 10.2561 24.8557 10.4436 24.7313C10.7686 24.5074 11.2311 24.5945 11.3186 24.0347L4.7436 21.3603L6.8811 16.0986C5.1686 16.2106 3.6311 17.3923 2.7186 18.773C2.5436 19.0467 2.1436 19.6935 2.0936 19.9796C2.0811 20.0542 2.2061 20.7011 2.2311 20.7259C2.2561 20.7632 2.4436 20.7881 2.5186 20.8503C3.2936 21.4847 3.8061 21.7957 4.8561 21.8828C5.5061 21.9325 5.6561 21.5842 5.4061 22.5793C5.2186 23.363 4.6061 24.2462 4.0061 24.7686C2.0561 26.4852 -0.593903 23.6242 0.118597 21.3603C0.531097 20.0667 1.0186 18.3376 1.8436 17.2057C2.9811 15.6135 5.0436 14.6806 6.9811 14.5935C7.1186 14.5935 7.3936 14.7303 7.5061 14.5935L8.0186 13.1754C5.2186 10.2274 7.2936 5.42593 11.5561 6.29666C11.8936 6.3713 12.5561 6.70715 12.7436 6.71959C13.0561 6.74447 13.3811 6.34642 13.6561 6.33398C13.9311 6.32154 14.2811 6.57032 14.5436 6.64495L14.4686 5.91105C13.1311 5.72447 11.7686 5.36374 11.0811 4.09495C10.0061 2.10471 11.4061 -0.0845576 13.6561 0.00251559C15.0311 0.0522717 16.5686 1.35837 16.9061 2.67691L16.8811 2.68934ZM14.4311 0.400564C14.0686 0.263735 12.9561 0.126906 12.6686 0.363247C12.5186 0.487637 12.5936 1.10959 12.6311 1.32105C12.6936 1.433 13.1686 1.19666 13.3311 1.17178C13.5061 1.13447 13.7061 1.19666 13.8811 1.14691L14.4311 0.400564ZM12.4436 0.475199C12.0311 0.524955 11.0436 1.38325 11.1811 1.76886C11.2561 1.99276 11.5436 2.15447 11.7186 2.30373C11.7436 2.05495 12.4436 1.54495 12.4561 1.4952C12.4936 1.28373 12.2436 0.786174 12.4561 0.475199H12.4436ZM16.0436 1.69422C16.1311 1.61959 15.5936 1.12203 15.5061 1.04739C14.7436 0.400565 14.6436 0.475199 13.9811 1.19666C14.3936 1.13447 15.0811 1.86837 15.2561 1.90569C15.3936 1.93056 15.8061 1.56983 16.0436 1.69422ZM13.4936 1.33349C12.8811 1.35837 12.0811 1.81861 11.9436 2.453C11.6936 3.49788 12.7311 4.38105 13.6311 4.67959C14.8561 5.07764 14.4561 4.62983 14.9436 3.84617C15.1436 3.51032 15.5436 3.29886 15.6311 3.14959C15.8186 2.85105 15.0061 1.93056 14.7436 1.74398C14.4561 1.54495 13.8561 1.32105 13.5061 1.34593L13.4936 1.33349ZM16.7311 2.91325C16.7061 2.52764 16.4936 2.19178 16.2686 1.88081L15.3561 1.99276L15.8311 2.97544L16.7436 2.91325H16.7311ZM11.6686 2.39081L10.9936 1.99276C10.8686 2.83861 10.7436 4.05764 11.9936 3.8213C11.9686 3.5352 11.7561 3.29886 11.7061 3.00032C11.6686 2.82617 11.7186 2.453 11.6811 2.37837L11.6686 2.39081ZM20.4811 3.22422C20.2311 2.2913 19.2686 2.52764 18.5686 2.76398L18.7561 3.44812C19.2686 3.14959 19.9061 3.05008 20.4811 3.22422ZM21.9936 3.01276C21.7436 2.76398 20.6311 2.50276 20.2561 2.54008C20.4561 2.66447 20.6436 3.13715 20.7436 3.23666C20.8436 3.33617 21.2811 3.39837 21.4811 3.49788C21.7686 3.63471 22.0311 3.88349 22.2811 4.07008C22.3936 3.85861 22.1311 3.16203 21.9936 3.0252V3.01276ZM17.5686 2.61471C17.3061 2.67691 16.9686 2.70178 16.9561 3.03764C16.9561 3.28642 17.2811 4.2691 17.5686 3.87105C17.7936 3.57252 17.4811 2.97544 17.5686 2.61471ZM18.3186 2.70178L17.8061 2.60227L17.8811 3.67203L18.4061 3.51032L18.3186 2.70178ZM16.8061 3.14959H15.9311C15.7436 3.22422 15.7311 3.64715 15.9561 3.64715C16.2811 3.64715 16.9186 3.57252 16.7936 3.14959H16.8061ZM23.0061 5.66227C23.2811 5.45081 23.6811 4.8413 23.6061 4.493C23.5436 4.21934 22.4561 3.06252 22.3186 3.21178C22.3561 3.43569 22.5061 3.63471 22.5311 3.88349C22.5311 4.03276 22.4561 4.15715 22.4811 4.30642C22.5561 4.62983 23.1311 5.20203 23.0061 5.66227ZM18.7936 3.60983C19.1061 4.00788 19.5311 3.72178 20.0061 4.10739C20.6686 4.64227 20.5311 5.60008 20.2186 6.29666C19.9936 6.80666 19.5561 6.85642 20.3936 7.22959C22.0936 7.98837 23.3436 6.23447 22.5186 4.72934C21.8436 3.48544 20.0311 3.06252 18.7811 3.60983H18.7936ZM15.6561 3.44812C15.4436 3.27398 15.0686 4.05764 15.0061 4.20691C14.7811 4.74178 14.8311 5.17715 14.7311 5.72447C14.8811 5.76178 14.8811 5.67471 14.9436 5.60008C15.2311 5.27666 15.6436 4.61739 15.7561 4.20691C15.7811 4.13227 15.6811 3.46056 15.6436 3.43569L15.6561 3.44812ZM16.9561 3.68447L15.9686 3.83373C15.7811 4.53032 16.8186 4.39349 17.1186 4.18203C17.2686 4.08252 16.9311 3.84617 16.9561 3.6969V3.68447ZM17.8186 4.50544C18.2311 4.40593 19.1936 4.40593 18.7311 3.78398C18.5311 3.52276 17.8311 3.95813 17.5811 4.05764L17.8186 4.50544ZM13.3686 4.74178C12.9686 4.81642 12.2686 3.95812 12.0936 3.92081C11.9186 3.88349 11.5561 4.15715 11.2936 3.983C11.4436 4.46812 12.2561 5.2891 12.7686 5.18959C12.8686 5.16471 13.4686 4.89105 13.3561 4.74178H13.3686ZM19.9186 4.31886C19.7061 4.10739 19.3061 4.00788 19.0311 3.90837C19.0561 4.16959 18.9436 4.51788 19.0436 4.76666C19.0936 4.89105 19.2561 4.91593 19.3561 5.0652C19.4561 5.21447 19.4936 5.47569 19.4936 5.64983L20.2561 5.37617C20.3311 5.09008 20.1311 4.51788 19.9186 4.30642V4.31886ZM17.3186 4.21934L16.9811 4.48056L17.3186 5.513C18.1686 5.60008 17.5936 4.19447 17.3186 4.23178V4.21934ZM16.7936 4.53032L16.1936 4.60495C16.2686 4.81642 16.3186 5.61252 16.4686 5.66227C17.3436 5.94837 16.9561 4.96569 16.7936 4.53032ZM18.8686 5.20203C18.9811 4.28154 18.6186 4.493 17.9561 4.67959V5.27666L18.8686 5.20203ZM16.1186 5.42593C16.1436 5.30154 16.0561 4.67959 15.9311 4.66715C15.6186 4.7791 15.6186 5.20203 15.5811 5.50056L16.1186 5.42593ZM14.5061 5.66227V5.10251C14.4561 4.97812 13.7686 4.87861 13.6436 4.91593C13.4936 4.95325 13.2811 5.2891 13.0561 5.2891C13.0311 5.48813 13.0561 5.41349 13.1686 5.43837C13.3561 5.48813 14.4436 5.73691 14.5061 5.66227ZM23.8436 4.90349C23.6686 4.86617 23.7186 4.91593 23.6686 5.003C23.5686 5.16471 23.4811 5.50056 23.3561 5.64983C23.2686 5.73691 23.0561 5.77422 23.0186 5.84886C22.9686 5.93593 22.9311 6.3091 22.8561 6.49569C22.7311 6.8191 22.5061 6.98081 22.3811 7.27934C23.1686 7.51569 23.4811 7.64008 23.7561 6.79422C23.9561 6.18471 23.9436 5.55032 23.8311 4.91593L23.8436 4.90349ZM19.1811 5.88617C19.2436 5.62495 19.3061 5.2269 19.0311 5.05276C18.8936 5.40105 18.8186 5.63739 19.1811 5.88617ZM19.1811 7.80178C19.1936 7.54056 19.1561 7.26691 19.1811 7.00569C19.1936 6.86886 19.3311 6.74447 19.3186 6.63252C19.3061 6.55788 18.9436 6.07276 18.8561 5.87373C18.7936 5.73691 18.8186 5.513 18.7561 5.43837C18.6686 5.30154 17.9936 5.38861 17.9436 5.63739C17.8186 6.28422 18.6186 7.46593 19.1686 7.81422L19.1811 7.80178ZM15.3561 6.84398V5.43837C14.4686 6.07276 14.8061 6.8813 14.8186 7.80178L15.3561 6.84398ZM17.8061 5.66227C17.2436 5.52544 16.9811 6.03544 16.4186 5.8613C16.2936 5.82398 16.2186 5.68715 16.0811 5.67471C15.2561 5.62495 15.6311 6.65739 15.6686 7.17983C16.1311 7.26691 16.6686 7.72715 17.1061 7.6152C17.2686 7.57788 17.9811 7.06788 18.0061 6.90617C18.0561 6.68227 17.6311 6.01056 17.7936 5.66227H17.8061ZM20.1686 5.66227C19.8811 5.76178 19.3186 5.73691 19.2686 6.09764C19.2686 6.14739 19.6186 6.84398 19.8561 6.533C19.9436 6.42105 20.2561 5.76178 20.1686 5.66227ZM10.3811 6.49569C9.84357 6.48325 9.1936 6.66983 8.7186 6.93105C8.6561 6.96837 8.5936 6.90617 8.6311 7.05544C8.6811 7.24203 9.1936 7.88886 9.4061 7.85154C9.5936 7.81422 10.0686 7.36642 10.3811 7.40373C10.2561 7.11764 10.2561 6.76934 10.3811 6.49569ZM12.5186 6.80666C11.8561 6.5952 11.2311 6.43349 10.5311 6.49569V7.41617C10.8186 7.3291 11.3811 7.51569 11.6061 7.45349C11.6561 7.45349 12.3186 7.043 12.4186 6.96837C12.4936 6.91861 12.5561 6.96837 12.5186 6.79422V6.80666ZM14.4936 6.89373C14.4311 6.8191 13.5936 6.50812 13.4436 6.60764L10.1186 8.6352L5.0311 21.1737L11.3436 23.873C11.5311 23.873 11.8811 23.4625 11.9936 23.3008C12.0436 23.2262 12.1186 23.2386 11.9936 23.1515L6.2686 20.6513L11.0311 9.10788L13.5311 7.59032L14.6061 7.93861C14.6561 7.87642 14.5811 6.99325 14.5186 6.89373H14.4936ZM21.4686 8.56056C21.2061 8.37398 21.0186 7.80178 20.8186 7.64008C20.6686 7.51569 20.3311 7.45349 20.1311 7.34154C19.8561 7.17983 19.7061 6.89373 19.4061 6.80666C19.3561 7.11764 19.2436 7.72715 19.4811 7.98837C19.6811 8.19983 21.2561 8.72227 21.4686 8.56056ZM8.3061 9.46861C8.3936 8.90886 8.7811 8.51081 9.0811 8.063L8.4311 7.1052C8.0061 7.36642 7.1186 8.51081 7.1061 8.98349C7.1061 9.29447 8.0311 9.55569 8.3061 9.45617V9.46861ZM17.2686 7.87642L18.1561 8.17495L18.7311 7.67739L18.1686 7.1052C17.9561 7.36642 17.6311 7.49081 17.3811 7.68983C17.3186 7.73959 17.2436 7.68983 17.2811 7.86398L17.2686 7.87642ZM15.4311 7.19227C15.3186 7.19227 15.3061 7.30422 15.2811 7.37886C15.2186 7.51569 14.9186 8.27447 14.9186 8.36154C14.9186 8.42373 15.1436 9.35666 15.1686 9.40642C15.3686 9.79203 16.1061 9.69251 16.0436 9.1452C16.0061 8.72227 15.2811 7.80178 15.4311 7.19227ZM23.2311 7.64008C22.9186 7.77691 22.4436 7.34154 22.2811 7.34154C22.0311 7.34154 21.3936 7.80178 21.0186 7.64008C21.1811 7.88886 21.5936 8.47349 21.8936 8.48593C22.3186 8.48593 23.0061 8.00081 23.2311 7.64008ZM14.9686 20.8379L16.3311 20.104L19.5311 12.4789L18.7061 8.75959L15.7686 7.41617C15.5936 8.01325 16.0061 8.05056 16.3061 8.32422C16.4686 8.48593 16.5311 8.72227 16.6561 8.82178C16.9186 9.02081 17.9561 9.23227 18.1436 9.48105L18.7936 12.1057L14.9686 20.8254V20.8379ZM11.2936 7.56544C9.2061 7.41617 7.9311 9.50593 8.6936 11.3718C8.8311 11.3345 8.8811 11.1603 8.9311 11.0484C9.3186 10.2025 9.6311 9.24471 9.98107 8.37398L11.2936 7.56544ZM16.6561 9.09544C16.7561 10.8618 14.0436 10.613 14.3936 8.93373C14.4436 8.67251 14.7686 8.39886 14.6311 8.17495C14.0936 7.86398 13.8561 7.66495 13.2686 7.96349C13.0061 8.08788 11.3561 9.13276 11.2186 9.28203C11.0936 9.41886 10.9561 9.75471 10.8811 9.92886C9.3186 13.362 8.1686 17.0067 6.5936 20.4523V20.6886L12.1186 23.0396C12.3811 23.0271 12.4561 22.7659 12.5936 22.6291C13.2061 22.0942 13.8686 21.5967 14.5436 21.1364L18.5686 12.1057L18.0186 9.58056L16.6561 9.10788V9.09544ZM14.8436 9.90398C15.8686 10.8991 17.3311 9.03325 15.9686 8.32422C15.9186 8.59788 16.2061 8.77203 16.2561 8.98349C16.4686 9.92886 14.9936 10.215 14.8311 9.25715C14.8311 9.21983 14.9186 8.38642 14.6686 8.6352C14.4186 8.88398 14.5936 9.66764 14.8436 9.90398ZM7.0061 9.35666V10.6503C7.0061 10.6503 7.2186 11.3967 7.2561 11.434C7.3561 11.5086 8.5311 11.7698 8.5436 11.6454C8.2936 11.0111 8.1061 10.3891 8.2311 9.70495C7.8436 9.71739 7.4311 9.56813 7.1561 9.28203L7.0061 9.35666ZM21.6311 12.9764C21.4186 11.9689 20.4811 11.2474 19.4936 11.0732C19.4436 11.1354 19.6311 11.9315 19.6811 12.0684C19.9311 12.6406 20.3061 12.3793 20.7936 12.4913C21.0936 12.5535 21.3936 12.8147 21.6311 12.9889V12.9764ZM8.5436 11.9191C8.1186 11.9315 7.6936 11.8071 7.3186 11.6081C7.2436 11.6952 8.0061 12.9018 8.1186 12.9018L8.5436 11.9067V11.9191ZM19.8686 12.5286C19.7436 12.4042 19.5811 12.8645 19.5561 12.9391C18.4936 15.2154 17.6561 17.6162 16.6561 19.9298C19.4561 18.8228 21.2061 15.3398 19.8686 12.5411V12.5286ZM21.7811 15.1906C21.8436 14.6806 21.9686 13.8223 21.7436 13.362C21.5936 13.0635 20.3686 12.4042 20.1061 12.5908C20.4061 13.1257 20.5561 13.7352 20.6061 14.3447L21.7936 15.1781L21.7811 15.1906ZM20.7061 17.7032C21.0561 17.2803 21.7061 16.1359 21.6936 15.6011C21.6936 15.2279 20.9436 14.7801 20.6686 14.5811C20.5561 14.5811 20.4936 15.3274 20.4561 15.514C20.4061 15.7254 20.1936 16.335 20.2061 16.4593C20.2061 16.6708 20.8436 17.3425 20.7186 17.7157L20.7061 17.7032ZM7.3936 14.805C6.6311 14.7428 5.8936 14.9169 5.1686 15.1532L4.9436 16.4096C5.5811 16.1857 6.2311 15.9245 6.9186 15.9369L7.3936 14.805ZM4.8686 15.2652C4.8061 15.1906 3.4311 15.9618 3.2686 16.0737C3.1686 16.1359 2.7561 16.4593 2.7186 16.5215C2.5061 16.845 2.7186 17.7032 2.8061 18.0889C2.9186 18.1884 3.3311 17.5913 3.4186 17.5167C3.8061 17.1684 4.3061 16.7703 4.7936 16.5589L4.8811 15.2776L4.8686 15.2652ZM18.5686 20.2284C18.7061 20.3901 20.3561 18.462 20.4436 18.1759C20.5561 17.7903 20.4186 17.1062 20.1311 16.8076C19.9061 17.1186 19.7936 17.4669 19.5936 17.7903C19.4436 18.0267 18.8436 18.7108 18.8186 18.8476C18.7561 19.0467 18.8311 19.2954 18.7936 19.5069C18.7561 19.7557 18.6061 19.9796 18.5686 20.2408V20.2284ZM1.6436 20.2781C1.8811 19.8801 2.0436 19.4323 2.2561 19.0218C2.3561 18.8476 2.6936 18.4496 2.7186 18.3252C2.7686 18.064 2.2436 17.2554 2.4311 16.8574L1.5811 18.0267C1.3686 18.3998 0.693597 19.8552 0.918597 20.2035L1.6561 20.2781H1.6436ZM18.0061 20.7259C18.2811 20.415 18.6561 19.3576 18.6061 18.9223C17.9686 19.5069 17.2061 19.9423 16.4561 20.3652L16.2686 21.8081C16.3811 21.833 16.4311 21.7584 16.5186 21.7211C16.7811 21.5842 17.8311 20.9001 18.0061 20.7135V20.7259ZM1.9561 20.3776C1.5061 20.5767 1.0436 20.6389 0.693597 20.2284C-0.0189029 21.5096 2.2061 21.8579 1.9561 20.3776ZM16.2686 20.5269C16.1686 20.4274 14.2436 21.5469 14.0436 21.7832L13.8186 23.4998L15.9436 22.1067C16.0811 21.5842 16.3061 21.0742 16.2686 20.5269ZM0.206097 21.8952C0.781097 22.0071 1.3061 22.1315 1.8811 21.9201C2.3436 21.7459 2.8436 21.0867 2.1311 20.9001C1.9811 21.6837 0.893597 21.7832 0.481097 21.1364L0.218597 21.8952H0.206097ZM5.2561 22.1315C4.3686 22.1937 3.4311 21.9574 2.7686 21.3728C2.2186 22.3057 1.1686 22.5171 0.206097 22.0569C0.181097 23.5745 1.5686 25.515 3.2686 24.9179C2.5186 24.5323 1.5186 24.1093 1.2061 23.2759C1.6436 23.6864 3.0061 24.8184 3.5936 24.7064C3.7686 24.6691 4.4311 24.0471 4.3436 23.9601C3.6061 23.9228 2.8561 23.5993 2.2686 23.164C2.2311 23.1391 1.9936 23.0769 2.1186 22.965C2.1686 22.9152 3.1436 23.4501 3.3561 23.5247C3.7436 23.6491 4.1811 23.7611 4.5936 23.7362L5.0311 22.8157C4.3936 22.8281 3.6311 22.8157 3.0436 22.542C2.9311 22.4923 2.8561 22.542 2.8936 22.3554C3.3186 22.5047 4.7936 22.8281 5.1061 22.542C5.2061 22.455 5.1811 22.2435 5.2561 22.1191V22.1315ZM11.9686 25.4652C12.1311 25.3284 12.5936 24.6442 12.7936 24.4203C12.9561 24.2337 13.3436 23.9725 13.4311 23.8357C13.5561 23.6242 13.9311 22.1191 13.8311 21.9823C13.2436 22.343 12.6936 22.8779 12.2186 23.3879C12.0061 23.6118 11.2186 24.5323 11.1311 24.7437C10.9186 25.2289 11.5811 25.7762 11.9686 25.4652ZM15.1186 22.965C15.0436 22.8903 13.9811 23.6989 13.8561 23.8108C13.7436 23.9103 12.9436 24.5323 13.0561 24.6442L14.2686 25.0174L15.1186 22.965ZM10.9186 24.7189C10.1561 24.7562 10.0686 26.0747 10.7561 26.2862C11.1811 26.4106 11.8186 26.3111 11.8311 25.7886C11.2686 25.7264 10.6811 25.3532 10.9186 24.7189ZM10.0686 25.403C10.0061 25.3408 9.3311 25.6269 9.2686 25.7762C9.4936 26.6718 10.4686 27.5425 11.4311 27.132L11.5186 26.535C10.7061 26.6718 9.95607 26.2986 10.0686 25.3906V25.403ZM11.2936 27.4679C10.1186 27.6171 9.4311 26.8584 9.0311 25.8632C7.7436 26.6096 6.5186 28.152 6.5561 29.7069C6.5561 29.993 6.6811 30.5154 6.9311 30.6647C6.8311 29.5576 7.2311 28.463 7.9311 27.6171C7.7936 28.1645 7.4686 28.6123 7.2936 29.1596C7.0186 30.0676 6.7936 31.2742 8.0061 31.4981C7.7561 30.105 8.0936 28.7367 9.0311 27.6793C9.0561 27.642 9.1186 27.4057 9.2311 27.5425C9.2811 27.5923 8.6311 28.5625 8.5561 28.7367C8.1561 29.6447 8.1186 30.6025 8.1686 31.5728C8.6436 31.7345 9.1186 31.9211 9.6061 31.7345C9.0186 30.6771 9.2811 29.1223 9.7936 28.0774C9.7811 28.6496 9.5561 29.2218 9.5186 29.794C9.4936 30.105 9.5061 31.5603 9.7936 31.6598C10.0311 31.6971 11.1686 31.2867 11.1186 31.0254C10.4811 30.3786 10.1436 29.4457 10.2061 28.5376L10.5311 29.6198C10.7186 30.0925 10.9811 30.5154 11.3186 30.901L11.8061 30.4159C10.9186 29.6447 10.8686 28.5128 11.2811 27.4679H11.2936Z" fill="#3E3B3A"/>
<g filter="url(#filter0_dinn_210_5260)">
<path d="M16.6562 9.09623L18.0187 9.56892L18.5687 12.094L14.5437 21.1248C13.8687 21.585 13.2062 22.0701 12.5937 22.6175C12.4437 22.7418 12.3812 23.0031 12.1187 23.0279L6.59375 20.677V20.4406C8.16875 17.0075 9.31875 13.3504 10.8812 9.91721C10.9687 9.73062 11.1062 9.40721 11.2187 9.27038C11.3562 9.12111 13.0062 8.07623 13.2687 7.95184C13.8687 7.65331 14.0937 7.85233 14.6312 8.16331C14.7687 8.38721 14.4437 8.66087 14.3937 8.92209C14.0437 10.6014 16.7562 10.8377 16.6562 9.0838V9.09623Z" fill="url(#paint0_linear_210_5260)"/>
</g>
<path d="M14.4933 6.89366C14.5683 6.99317 14.6308 7.87635 14.5808 7.93854L13.5058 7.59025L11.0058 9.10781L8.54346 15.2278L6.24336 20.6512L11.9683 23.1515C12.0933 23.2385 12.0183 23.2261 11.9683 23.3007C11.8558 23.4624 11.5058 23.8854 11.3183 23.8729L5.00586 21.1737L10.0933 8.63513L13.4183 6.60756C13.5808 6.52049 14.4183 6.81903 14.4683 6.89366H14.4933Z" fill="#7E7676"/>
<path d="M11.2937 27.4679C10.8937 28.5004 10.9437 29.6447 11.8187 30.416L11.3312 30.9011C10.9937 30.5279 10.7312 30.0926 10.5437 29.6199L10.2187 28.5377C10.1562 29.4457 10.4937 30.3786 11.1312 31.0255C11.1812 31.2743 10.0562 31.6847 9.8062 31.6599C9.50624 31.5604 9.50624 30.105 9.53124 29.794C9.56874 29.2218 9.78124 28.6496 9.8062 28.0774C9.29374 29.1223 9.03124 30.6772 9.61874 31.7345C9.11874 31.9211 8.64374 31.7345 8.18124 31.5728C8.11874 30.6025 8.16874 29.6447 8.56874 28.7367C8.64374 28.5626 9.29374 27.5923 9.24374 27.5425C9.13124 27.4057 9.08124 27.6545 9.04374 27.6794C8.10624 28.7491 7.76874 30.105 8.01874 31.4982C6.80624 31.2743 7.03124 30.0552 7.30624 29.1596C7.46874 28.6123 7.80624 28.1645 7.94374 27.6172C7.24374 28.463 6.85624 29.5577 6.94374 30.6647C6.69374 30.5155 6.58124 29.993 6.56874 29.7069C6.54374 28.1521 7.75624 26.6096 9.04374 25.8633C9.44374 26.8584 10.1312 27.6172 11.3062 27.4679H11.2937Z" fill="#766541"/>
<path d="M14.9668 20.839L18.7918 12.1192L18.1418 9.49457C17.9543 9.24579 16.9168 9.04676 16.6543 8.8353C16.5418 8.74822 16.4793 8.49944 16.3043 8.33774C16.0043 8.05164 15.5793 8.02676 15.7668 7.42969L18.7043 8.7731L19.5293 12.4924L16.3293 20.1175L14.9668 20.8514V20.839Z" fill="#7E7676"/>
<path d="M5.25516 22.1311C5.18016 22.2555 5.20516 22.467 5.10516 22.554C4.79266 22.8277 3.30516 22.5043 2.89266 22.3674C2.85516 22.5665 2.93016 22.5043 3.04266 22.554C3.63016 22.8153 4.39266 22.8401 5.03016 22.8277L4.59266 23.7482C4.18016 23.7731 3.75516 23.6611 3.35516 23.5367C3.14266 23.4745 2.16766 22.9396 2.11766 22.977C1.98016 23.0889 2.21766 23.1387 2.26766 23.176C2.85516 23.6113 3.60516 23.9348 4.34266 23.9721C4.44266 24.0592 3.76766 24.6935 3.59266 24.7184C3.00516 24.8304 1.63016 23.6984 1.20516 23.2879C1.53016 24.1213 2.51766 24.5443 3.26766 24.9299C1.56766 25.527 0.192663 23.5989 0.205163 22.0689C1.16766 22.5292 2.21766 22.3177 2.76766 21.3848C3.43016 21.9818 4.36766 22.2057 5.25516 22.1435V22.1311Z" fill="#766541"/>
<path d="M10.0676 25.4023C9.9551 26.3104 10.7051 26.6836 11.5176 26.5467L11.4301 27.1438C10.4551 27.5419 9.48008 26.6836 9.26758 25.788C9.33008 25.6262 10.0051 25.3401 10.0676 25.4148V25.4023Z" fill="#82775F"/>
<path d="M15.1181 22.9643L14.2681 25.0168L13.0556 24.6436C12.9556 24.5317 13.7431 23.8973 13.8556 23.8102C13.9806 23.7107 15.0431 22.9021 15.1181 22.9643Z" fill="#7E7676"/>
<path d="M10.9181 24.7188C10.6931 25.3531 11.2681 25.7263 11.8306 25.7885C11.8306 26.3109 11.1806 26.4105 10.7556 26.2861C10.0681 26.0746 10.1556 24.7685 10.9181 24.7188Z" fill="#6A5F47"/>
<path d="M0.205859 21.8955L0.468359 21.1367C0.880859 21.796 1.96836 21.6965 2.11836 20.9004C2.83086 21.0745 2.34336 21.7462 1.86836 21.9204C1.29336 22.1319 0.768359 21.995 0.193359 21.8955H0.205859Z" fill="#82775F"/>
<path d="M1.95466 20.3778C2.20466 21.858 -0.0203366 21.5097 0.692163 20.2285C1.04216 20.639 1.50466 20.5768 1.95466 20.3778Z" fill="#6A5F47"/>
<path d="M14.8432 9.90397C14.5932 9.66763 14.4182 8.88397 14.6682 8.63519C14.9182 8.38641 14.8307 9.21983 14.8307 9.25715C15.0057 10.215 16.4682 9.92885 16.2557 8.98349C16.2057 8.75958 15.9182 8.58544 15.9682 8.32422C17.3307 9.03324 15.8807 10.8867 14.8432 9.90397Z" fill="#535151"/>
<path d="M11.969 25.4653C11.569 25.7888 10.919 25.229 11.1315 24.7439C11.2315 24.5324 12.0065 23.6119 12.219 23.388C12.6815 22.878 13.244 22.3432 13.8315 21.9824C13.9315 22.1193 13.5565 23.6244 13.4315 23.8358C13.344 23.9727 12.9565 24.2339 12.794 24.4205C12.594 24.6444 12.1315 25.3285 11.969 25.4653Z" fill="#82775F"/>
<path d="M16.2684 20.5277C16.3059 21.075 16.0809 21.5975 15.9434 22.1075L13.8184 23.5007L14.0434 21.7841C14.2434 21.5477 16.1684 20.4282 16.2684 20.5277Z" fill="#82775F"/>
<path d="M4.86727 15.2661L4.77977 16.5473C4.30477 16.7712 3.79227 17.1568 3.40477 17.5051C3.31727 17.5797 2.90477 18.1768 2.79227 18.0773C2.70477 17.6917 2.49227 16.8334 2.70477 16.51C2.74227 16.4478 3.15477 16.1368 3.25477 16.0622C3.41727 15.9502 4.79227 15.1914 4.85477 15.2536L4.86727 15.2661Z" fill="#82775F"/>
<path d="M1.64363 20.2782L0.906131 20.2035C0.693631 19.8552 1.36863 18.3999 1.56863 18.0267L2.41863 16.8574C2.24363 17.2555 2.76863 18.064 2.70613 18.3252C2.68113 18.4496 2.34363 18.8352 2.24363 19.0218C2.01863 19.4323 1.85613 19.8677 1.63113 20.2782H1.64363Z" fill="#82775F"/>
<path d="M18.0051 20.7268C17.8426 20.9134 16.7926 21.5851 16.5176 21.7343C16.4301 21.7841 16.3801 21.8587 16.2676 21.8214L16.4551 20.3785C17.2051 19.9431 17.9676 19.5202 18.6051 18.9355C18.6551 19.3709 18.2801 20.4282 18.0051 20.7392V20.7268Z" fill="#82775F"/>
<path d="M8.30547 9.46816C8.03047 9.56768 7.10547 9.30646 7.10547 8.99548C7.10547 8.5228 8.00547 7.37841 8.43047 7.11719L9.08047 8.07499C8.78047 8.5228 8.39297 8.92085 8.30547 9.4806V9.46816Z" fill="#82775F"/>
<path d="M20.7059 17.703C20.8309 17.3298 20.2059 16.6581 20.1934 16.4467C20.1934 16.3223 20.4059 15.7127 20.4434 15.5013C20.4809 15.3271 20.5434 14.5684 20.6559 14.5684C20.9309 14.7674 21.6684 15.2276 21.6809 15.5884C21.6934 16.1108 21.0434 17.2676 20.6934 17.6906L20.7059 17.703Z" fill="#82775F"/>
<path d="M18.5664 20.2281C18.5914 19.9793 18.7414 19.7554 18.7914 19.4942C18.8289 19.2827 18.7539 19.0339 18.8164 18.8349C18.8539 18.7105 19.4539 18.0139 19.5914 17.7776C19.7914 17.4542 19.9164 17.1059 20.1289 16.7949C20.4039 17.1059 20.5539 17.7776 20.4414 18.1632C20.3539 18.4493 18.6914 20.3774 18.5664 20.2157V20.2281Z" fill="#82775F"/>
<path d="M21.7813 15.1908L20.5937 14.3574C20.5562 13.7479 20.4062 13.1384 20.0938 12.6035C20.3562 12.4169 21.5937 13.0638 21.7312 13.3747C21.9562 13.835 21.8313 14.6933 21.7688 15.2033L21.7813 15.1908Z" fill="#82775F"/>
<path d="M7.00391 9.35588L7.15391 9.28125C7.42891 9.56735 7.82891 9.71661 8.22891 9.70418C8.10391 10.3883 8.29141 11.0103 8.54141 11.6447C8.54141 11.7815 7.35391 11.5203 7.25391 11.4332C7.21641 11.3959 7.00391 10.7117 7.00391 10.6495V9.35588Z" fill="#82775F"/>
<path d="M7.39336 14.8059L6.91836 15.9378C6.23086 15.9378 5.58086 16.1866 4.94336 16.4105L5.16836 15.1542C5.88086 14.9178 6.63086 14.7561 7.39336 14.8059Z" fill="#82775F"/>
<path d="M23.8426 4.90388C23.9551 5.53827 23.9676 6.16022 23.7676 6.78217C23.4926 7.64047 23.1676 7.51608 22.3926 7.2673C22.5176 6.96876 22.7426 6.80705 22.8676 6.48364C22.9301 6.30949 22.9676 5.92388 23.0301 5.83681C23.0801 5.77461 23.2926 5.72486 23.3676 5.63778C23.4926 5.50095 23.5801 5.1651 23.6801 4.99096C23.7301 4.90388 23.6801 4.85412 23.8551 4.89144L23.8426 4.90388Z" fill="#82775F"/>
<path d="M19.1814 7.80213C18.6314 7.45384 17.8314 6.27213 17.9564 5.6253C18.0064 5.37652 18.6814 5.30189 18.7689 5.42628C18.8189 5.50091 18.8064 5.72481 18.8689 5.86164C18.9564 6.06067 19.3189 6.54579 19.3314 6.62042C19.3439 6.71994 19.2064 6.85677 19.1939 6.9936C19.1689 7.25481 19.1939 7.52847 19.1939 7.78969L19.1814 7.80213Z" fill="#82775F"/>
<path d="M21.6299 12.9762C21.3924 12.802 21.0924 12.5532 20.7924 12.4786C20.3049 12.3666 19.9299 12.6279 19.6799 12.0557C19.6299 11.9313 19.4299 11.1227 19.4924 11.0605C20.4799 11.2347 21.4174 11.9562 21.6299 12.9637V12.9762Z" fill="#82775F"/>
<path d="M21.4692 8.56054C21.2567 8.72225 19.6817 8.19981 19.4817 7.98835C19.2442 7.73957 19.3567 7.11762 19.4067 6.80664C19.7067 6.89371 19.8442 7.17981 20.1317 7.34152C20.3317 7.45347 20.6817 7.51567 20.8192 7.64006C21.0067 7.80176 21.1942 8.37396 21.4692 8.56054Z" fill="#82775F"/>
<path d="M10.3805 6.49636C10.2555 6.78246 10.2555 7.13075 10.3805 7.40441C10.0805 7.36709 9.59296 7.8149 9.40546 7.85222C9.18046 7.88953 8.68046 7.2427 8.63046 7.05612C8.59296 6.90685 8.65546 6.96905 8.71796 6.93173C9.19296 6.65807 9.84296 6.47148 10.3805 6.49636Z" fill="#82775F"/>
<path d="M15.4305 7.19141C15.2805 7.80092 16.0055 8.72141 16.043 9.14433C16.093 9.69165 15.368 9.77872 15.168 9.40555C15.143 9.3558 14.918 8.42287 14.918 8.36067C14.918 8.2736 15.218 7.51482 15.2805 7.37799C15.318 7.30336 15.3305 7.20385 15.4305 7.19141Z" fill="#82775F"/>
<path d="M23.0039 5.66294C23.1289 5.2027 22.5539 4.6305 22.4789 4.30709C22.4414 4.15782 22.5414 4.03343 22.5289 3.88416C22.5039 3.64782 22.3539 3.4488 22.3164 3.21245C22.4539 3.06319 23.5414 4.22001 23.6039 4.49367C23.6789 4.84197 23.2789 5.45148 23.0039 5.66294Z" fill="#82775F"/>
<path d="M14.4312 0.400084L13.8812 1.14642C13.7062 1.19618 13.5062 1.13399 13.3312 1.1713C13.1812 1.19618 12.6937 1.43252 12.6312 1.32057C12.5937 1.10911 12.5312 0.487156 12.6687 0.362766C12.9562 0.126425 14.0562 0.263255 14.4312 0.400084Z" fill="#82775F"/>
<path d="M12.5168 6.80614C12.5543 6.98029 12.4918 6.93053 12.4168 6.98029C12.3043 7.05492 11.6418 7.45297 11.6043 7.46541C11.3918 7.51517 10.8168 7.34102 10.5293 7.42809V6.50761C11.2293 6.44541 11.8668 6.60712 12.5168 6.81858V6.80614Z" fill="#82775F"/>
<path d="M23.232 7.64057C23.007 7.98887 22.3195 8.48643 21.8945 8.48643C21.5945 8.48643 21.182 7.88936 21.0195 7.64057C21.3945 7.80228 22.032 7.3296 22.282 7.34204C22.4445 7.34204 22.9195 7.7774 23.232 7.64057Z" fill="#82775F"/>
<path d="M19.9177 4.31992C20.1302 4.53139 20.3177 5.10358 20.2552 5.38968L19.4927 5.66334C19.4927 5.47675 19.4552 5.22797 19.3552 5.0787C19.2552 4.92944 19.1052 4.90456 19.0427 4.78017C18.9302 4.53139 19.0427 4.18309 19.0302 3.92188C19.3052 4.02139 19.7052 4.10846 19.9177 4.33236V4.31992Z" fill="#82775F"/>
<path d="M16.043 1.6942C15.793 1.56981 15.393 1.94298 15.2555 1.90567C15.0805 1.86835 14.393 1.13445 13.9805 1.19664C14.6555 0.475179 14.7555 0.400545 15.5055 1.04737C15.593 1.12201 16.1305 1.61957 16.043 1.6942Z" fill="#82775F"/>
<path d="M13.3672 4.74249C13.4797 4.89176 12.8797 5.16542 12.7797 5.19029C12.2672 5.28981 11.4547 4.46883 11.3047 3.98371C11.5672 4.15785 11.9172 3.8842 12.1047 3.92151C12.2922 3.95883 12.9797 4.81712 13.3797 4.74249H13.3672Z" fill="#82775F"/>
<path d="M12.4443 0.474609C12.2443 0.785585 12.4943 1.28315 12.4443 1.49461C12.4443 1.54437 11.7443 2.05436 11.7068 2.30317C11.5318 2.15388 11.2443 1.99217 11.1693 1.76827C11.0318 1.38266 12.0193 0.524365 12.4318 0.474609H12.4443Z" fill="#82775F"/>
<path d="M11.6675 2.39147C11.7175 2.4661 11.6675 2.83927 11.6925 3.01342C11.7425 3.31196 11.955 3.53586 11.98 3.8344C10.73 4.07074 10.8675 2.85171 10.98 2.00586L11.655 2.40391L11.6675 2.39147Z" fill="#82775F"/>
<path d="M21.9934 3.01214C22.1309 3.14897 22.3934 3.84555 22.2809 4.05702C22.0309 3.87043 21.7684 3.62165 21.4809 3.48482C21.2809 3.38531 20.8434 3.31067 20.7434 3.2236C20.6309 3.13653 20.4559 2.66385 20.2559 2.52702C20.6434 2.4897 21.7434 2.75092 21.9934 2.9997V3.01214Z" fill="#82775F"/>
<path d="M15.6547 3.44821C15.6547 3.44821 15.7797 4.1448 15.7672 4.21943C15.6547 4.62992 15.2547 5.28919 14.9547 5.6126C14.8922 5.68724 14.8922 5.77431 14.7422 5.73699C14.8297 5.17724 14.7922 4.75431 15.0172 4.21943C15.0797 4.07016 15.4547 3.2865 15.6672 3.46065L15.6547 3.44821Z" fill="#82775F"/>
<path d="M20.4789 3.22472C19.9039 3.06301 19.2664 3.15009 18.7539 3.44862L18.5664 2.76448C19.2664 2.5157 20.2289 2.2918 20.4789 3.22472Z" fill="#82775F"/>
<path d="M16.7312 2.91331L15.8188 2.97551L15.3438 1.99281L16.2562 1.88086C16.4687 2.17941 16.6937 2.5277 16.7187 2.91331H16.7312Z" fill="#82775F"/>
<path d="M15.3562 6.84311L14.8187 7.80091C14.7937 6.88043 14.4687 6.07189 15.3562 5.4375V6.84311Z" fill="#82775F"/>
<path d="M17.2668 7.87597C17.2168 7.70182 17.3043 7.75158 17.3668 7.70182C17.6168 7.5028 17.9418 7.37841 18.1543 7.11719L18.7168 7.68938L18.1418 8.18694L17.2543 7.88841L17.2668 7.87597Z" fill="#82775F"/>
<path d="M14.5057 5.66186C14.4307 5.7365 13.3432 5.48772 13.1682 5.43796C13.0557 5.40065 13.0307 5.48772 13.0557 5.28869C13.2807 5.28869 13.4932 4.95284 13.6432 4.91552C13.7682 4.87821 14.4557 4.99016 14.4932 5.10211V5.66186H14.5057Z" fill="#82775F"/>
<path d="M8.54268 11.9196L8.11768 12.9148C8.00518 12.9148 7.24268 11.7082 7.31768 11.6211C7.69268 11.8201 8.11768 11.9445 8.54268 11.9321V11.9196Z" fill="#82775F"/>
<path d="M16.7934 4.53125C16.9559 4.96662 17.3309 5.9493 16.4684 5.6632C16.3059 5.61345 16.2684 4.81735 16.1934 4.60588L16.7934 4.53125Z" fill="#82775F"/>
<path d="M17.8195 4.50565L17.582 4.05784C17.832 3.94589 18.532 3.51053 18.732 3.78418C19.1945 4.40613 18.232 4.3937 17.8195 4.50565Z" fill="#82775F"/>
<path d="M17.5695 2.61523C17.482 2.98841 17.7945 3.57304 17.5695 3.87158C17.282 4.26962 16.957 3.28694 16.957 3.03816C16.957 2.70231 17.2945 2.67743 17.5695 2.61523Z" fill="#82775F"/>
<path d="M17.318 4.21947C17.5805 4.18215 18.1555 5.58776 17.318 5.50069L16.9805 4.46825L17.318 4.20703V4.21947Z" fill="#82775F"/>
<path d="M18.8676 5.20321L17.9551 5.27784V4.68077C18.6301 4.50662 18.9801 4.28272 18.8676 5.20321Z" fill="#82775F"/>
<path d="M16.9553 3.68431C16.9303 3.83358 17.2553 4.06992 17.1178 4.16944C16.8178 4.3809 15.7803 4.53017 15.9678 3.82114L16.9553 3.67188V3.68431Z" fill="#82775F"/>
<path d="M18.3191 2.70231L18.4066 3.52328L17.8816 3.68499L17.8066 2.61523L18.3191 2.70231Z" fill="#82775F"/>
<path d="M20.1679 5.66211C20.2554 5.76162 19.9429 6.40845 19.8554 6.53284C19.6179 6.84382 19.2554 6.14723 19.2679 6.09747C19.3179 5.73674 19.8929 5.76162 20.1679 5.66211Z" fill="#82775F"/>
<path d="M16.8062 3.15039C16.9312 3.58576 16.2937 3.66039 15.9687 3.64795C15.7312 3.64795 15.7563 3.21259 15.9438 3.16283H16.8188L16.8062 3.15039Z" fill="#82775F"/>
<path d="M16.1176 5.42675L15.5801 5.50138C15.6176 5.20285 15.6051 4.77992 15.9301 4.66797C16.0551 4.66797 16.1426 5.30236 16.1176 5.42675Z" fill="#82775F"/>
<path d="M21.043 16.4727C21.043 16.8872 21.168 17.7166 21.668 17.7166" stroke="#3E3B3A" stroke-width="0.23"/>
<path d="M11.0425 28.2881C11.5425 29.2832 12.0841 28.9101 12.2925 28.9101M0.417086 23.3125C0.000423439 24.1418 0.792348 25.3027 2.29235 25.8003" stroke="#3E3B3A" stroke-width="0.23"/>
<path d="M7.44824 12.1855C7.34133 12.7984 7.00436 14.0026 6.51172 13.9176" stroke="#3E3B3A" stroke-width="0.23"/>
<path d="M22.293 8.38672C22.293 8.59408 22.543 9.13306 23.543 9.63062" stroke="#3E3B3A" stroke-width="0.23"/>
<path d="M21.043 8.38672C21.043 8.59408 20.918 9.00867 20.418 9.00867" stroke="#3E3B3A" stroke-width="0.23"/>
<path d="M13.543 0.923828C13.7513 1.54578 13.918 2.78968 12.918 2.78968" stroke="#3E3B3A" stroke-width="0.23"/>
<path d="M11.043 3.41016C11.043 3.72113 10.793 4.40528 9.79297 4.65406" stroke="#3E3B3A" stroke-width="0.23"/>
<path d="M7.97361 27.5762C7.70688 28.1385 6.94733 29.1574 6.04297 28.7326" stroke="#3E3B3A" stroke-width="0.23"/>
<path d="M3.54434 17.0938C3.12767 17.7157 2.54434 19.084 3.54434 19.5816" stroke="#3E3B3A" stroke-width="0.23"/>
<g filter="url(#filter1_n_210_5260)">
<path d="M15.1816 20.3407C14.3141 20.657 13.2957 21.2411 12.3404 20.9125C11.3597 20.2799 10.5425 19.4645 10.1654 18.3207C9.92649 17.6027 10.0774 16.7509 10.4671 16.1181C10.97 15.1568 12.1391 14.9622 12.6546 14.2928C12.7929 13.7696 13.4089 13.5262 13.8992 13.6844C15.0432 13.9886 15.7096 14.7918 16.1119 15.7652C16.3005 15.9843 16.6274 16.0817 16.9667 16.0573C16.665 16.179 16.2501 16.179 15.9485 15.9477C15.6592 15.7531 15.5839 15.4123 15.3199 15.1933C14.8421 14.7796 14.1004 14.2928 13.497 14.4145C13.4592 14.4511 13.5221 14.3537 13.4341 14.5727C13.0192 15.607 11.6866 15.7409 11.2717 16.5927C10.3791 17.846 11.5609 19.5375 12.6672 20.4623C13.4592 20.6936 14.3519 20.4258 15.1816 20.3528V20.3407Z" fill="#6B4D2F" fill-opacity="0.64"/>
</g>
<g filter="url(#filter2_n_210_5260)">
<path d="M17.2928 15.1944C17.0162 14.9511 16.9031 14.5738 16.8653 14.2331C16.8151 13.9046 16.5511 13.6489 16.2871 13.4178C15.0425 12.42 13.4458 11.921 11.9372 11.3977C11.5223 11.3369 11.4343 11.8724 11.271 12.2374L10.9692 13.2474C10.8686 13.6125 10.6801 13.9897 10.4035 14.2695C8.99541 15.8271 8.84455 18.0784 9.38514 20.0131C9.38514 20.3418 9.74972 20.6459 10.2023 20.7797C11.3086 21.2178 13.5716 20.5729 13.911 22.0697C13.647 21.1204 12.3395 21.2422 11.535 21.2544C10.5668 21.2544 9.23427 21.2787 8.93256 20.0861C8.50511 19.0884 8.3794 17.1413 8.83199 15.8271C9.05827 15.1214 9.43542 14.4399 9.95083 13.8924C10.7932 13.2474 10.4915 10.5703 12.1258 10.8989C12.9807 11.2031 13.8356 11.5681 14.6402 11.9941C15.5453 12.5172 16.7648 13.1014 16.9911 14.2087C17.0037 14.5616 17.0413 14.9145 17.2928 15.1944Z" fill="url(#paint1_radial_210_5260)" fill-opacity="0.2"/>
</g>
<path d="M18.5427 20.2031C18.3344 20.8251 18.0411 22.1934 18.5411 22.6909" stroke="#3E3B3A" stroke-width="0.23"/>
<defs>
<filter id="filter0_dinn_210_5260" x="2.59375" y="7.80469" width="20.9746" height="23.2227" filterUnits="userSpaceOnUse" color-interpolation-filters="sRGB">
<feFlood flood-opacity="0" result="BackgroundImageFix"/>
<feColorMatrix in="SourceAlpha" type="matrix" values="0 0 0 0 0 0 0 0 0 0 0 0 0 0 0 0 0 0 127 0" result="hardAlpha"/>
<feOffset dy="4"/>
<feGaussianBlur stdDeviation="2"/>
<feComposite in2="hardAlpha" operator="out"/>
<feColorMatrix type="matrix" values="0 0 0 0 0 0 0 0 0 0 0 0 0 0 0 0 0 0 0.25 0"/>
<feBlend mode="normal" in2="BackgroundImageFix" result="effect1_dropShadow_210_5260"/>
<feBlend mode="normal" in="SourceGraphic" in2="BackgroundImageFix" result="shape"/>
<feColorMatrix in="SourceAlpha" type="matrix" values="0 0 0 0 0 0 0 0 0 0 0 0 0 0 0 0 0 0 127 0" result="hardAlpha"/>
<feOffset dx="5" dy="2"/>
<feGaussianBlur stdDeviation="7.5"/>
<feComposite in2="hardAlpha" operator="arithmetic" k2="-1" k3="1"/>
<feColorMatrix type="matrix" values="0 0 0 0 0 0 0 0 0 0 0 0 0 0 0 0 0 0 0.25 0"/>
<feBlend mode="normal" in2="shape" result="effect2_innerShadow_210_5260"/>
<feTurbulence type="fractalNoise" baseFrequency="0.1666666716337204 0.1666666716337204" stitchTiles="stitch" numOctaves="3" result="noise" seed="7039" />
<feColorMatrix in="noise" type="luminanceToAlpha" result="alphaNoise" />
<feComponentTransfer in="alphaNoise" result="coloredNoise1">
<feFuncA type="discrete" tableValues="1 1 1 1 1 1 1 1 1 1 1 1 1 1 1 1 1 1 1 1 1 1 1 1 1 1 1 1 1 1 1 1 1 1 1 1 1 1 1 1 1 1 1 1 1 1 1 1 1 1 1 0 0 0 0 0 0 0 0 0 0 0 0 0 0 0 0 0 0 0 0 0 0 0 0 0 0 0 0 0 0 0 0 0 0 0 0 0 0 0 0 0 0 0 0 0 0 0 0 0 "/>
</feComponentTransfer>
<feComposite operator="in" in2="effect2_innerShadow_210_5260" in="coloredNoise1" result="noise1Clipped" />
<feFlood flood-color="rgba(0, 0, 0, 0.17)" result="color1Flood" />
<feComposite operator="in" in2="noise1Clipped" in="color1Flood" result="color1" />
<feMerge result="effect3_noise_210_5260">
<feMergeNode in="effect2_innerShadow_210_5260" />
<feMergeNode in="color1" />
</feMerge>
<feTurbulence type="fractalNoise" baseFrequency="0.14705881476402283 0.14705881476402283" stitchTiles="stitch" numOctaves="3" result="noise" seed="2868" />
<feColorMatrix in="noise" type="luminanceToAlpha" result="alphaNoise" />
<feComponentTransfer in="alphaNoise" result="coloredNoise1">
<feFuncA type="discrete" tableValues="0 0 0 0 1 1 1 1 1 1 1 1 1 1 1 1 1 1 1 1 1 1 1 1 1 1 1 1 1 1 1 1 1 1 1 1 1 1 1 1 1 1 1 1 1 0 0 0 0 0 0 0 0 0 0 0 0 0 0 0 0 0 0 0 0 0 0 0 0 0 0 0 0 0 0 0 0 0 0 0 0 0 0 0 0 0 0 0 0 0 0 0 0 0 0 0 0 0 0 0 "/>
</feComponentTransfer>
<feComposite operator="in" in2="effect3_noise_210_5260" in="coloredNoise1" result="noise1Clipped" />
<feFlood flood-color="rgba(0, 0, 0, 0.16)" result="color1Flood" />
<feComposite operator="in" in2="noise1Clipped" in="color1Flood" result="color1" />
<feMerge result="effect4_noise_210_5260">
<feMergeNode in="effect3_noise_210_5260" />
<feMergeNode in="color1" />
</feMerge>
<feBlend mode="normal" in="effect4_noise_210_5260" in2="effect1_dropShadow_210_5260" result="effect4_noise_210_5260"/>
</filter>
<filter id="filter1_n_210_5260" x="10.0508" y="13.6367" width="6.91602" height="7.37305" filterUnits="userSpaceOnUse" color-interpolation-filters="sRGB">
<feFlood flood-opacity="0" result="BackgroundImageFix"/>
<feBlend mode="normal" in="SourceGraphic" in2="BackgroundImageFix" result="shape"/>
<feTurbulence type="fractalNoise" baseFrequency="0.071428574621677399 0.071428574621677399" stitchTiles="stitch" numOctaves="3" result="noise" seed="3405" />
<feColorMatrix in="noise" type="luminanceToAlpha" result="alphaNoise" />
<feComponentTransfer in="alphaNoise" result="coloredNoise1">
<feFuncA type="discrete" tableValues="1 1 1 1 1 1 1 1 1 1 1 1 1 1 1 1 1 1 1 1 1 1 1 1 1 1 1 1 1 1 1 1 1 1 1 1 1 1 1 1 1 1 1 1 1 1 1 1 1 1 1 0 0 0 0 0 0 0 0 0 0 0 0 0 0 0 0 0 0 0 0 0 0 0 0 0 0 0 0 0 0 0 0 0 0 0 0 0 0 0 0 0 0 0 0 0 0 0 0 0 "/>
</feComponentTransfer>
<feComposite operator="in" in2="shape" in="coloredNoise1" result="noise1Clipped" />
<feComponentTransfer in="alphaNoise" result="coloredNoise2">
<feFuncA type="discrete" tableValues="0 0 0 0 0 0 0 0 0 0 0 0 0 0 0 0 0 0 0 0 0 0 0 0 0 0 0 0 0 0 0 0 0 0 0 0 0 0 0 0 0 0 0 0 0 0 0 0 0 1 1 1 1 1 1 1 1 1 1 1 1 1 1 1 1 1 1 1 1 1 1 1 1 1 1 1 1 1 1 1 1 1 1 1 1 1 1 1 1 1 1 1 1 1 1 1 1 1 1 1 "/>
</feComponentTransfer>
<feComposite operator="in" in2="shape" in="coloredNoise2" result="noise2Clipped" />
<feFlood flood-color="rgba(0, 0, 0, 0.25)" result="color1Flood" />
<feComposite operator="in" in2="noise1Clipped" in="color1Flood" result="color1" />
<feFlood flood-color="#493521" result="color2Flood" />
<feComposite operator="in" in2="noise2Clipped" in="color2Flood" result="color2" />
<feMerge result="effect1_noise_210_5260">
<feMergeNode in="shape" />
<feMergeNode in="color1" />
<feMergeNode in="color2" />
</feMerge>
</filter>
<filter id="filter2_n_210_5260" x="8.54688" y="10.8711" width="8.74609" height="11.1992" filterUnits="userSpaceOnUse" color-interpolation-filters="sRGB">
<feFlood flood-opacity="0" result="BackgroundImageFix"/>
<feBlend mode="normal" in="SourceGraphic" in2="BackgroundImageFix" result="shape"/>
<feTurbulence type="fractalNoise" baseFrequency="0.23255813121795654 0.23255813121795654" stitchTiles="stitch" numOctaves="3" result="noise" seed="3828" />
<feColorMatrix in="noise" type="luminanceToAlpha" result="alphaNoise" />
<feComponentTransfer in="alphaNoise" result="coloredNoise1">
<feFuncA type="discrete" tableValues="1 1 1 1 1 1 1 1 1 1 1 1 1 1 1 1 1 1 1 1 1 1 1 1 1 1 1 1 1 1 1 1 1 1 1 1 1 1 1 1 1 1 1 1 1 1 1 1 1 1 1 0 0 0 0 0 0 0 0 0 0 0 0 0 0 0 0 0 0 0 0 0 0 0 0 0 0 0 0 0 0 0 0 0 0 0 0 0 0 0 0 0 0 0 0 0 0 0 0 0 "/>
</feComponentTransfer>
<feComposite operator="in" in2="shape" in="coloredNoise1" result="noise1Clipped" />
<feFlood flood-color="rgba(0, 0, 0, 0.62)" result="color1Flood" />
<feComposite operator="in" in2="noise1Clipped" in="color1Flood" result="color1" />
<feMerge result="effect1_noise_210_5260">
<feMergeNode in="shape" />
<feMergeNode in="color1" />
</feMerge>
</filter>
<linearGradient id="paint0_linear_210_5260" x1="9.16821" y1="13.9848" x2="16.6573" y2="17.1205" gradientUnits="userSpaceOnUse">
<stop stop-color="#54371A"/>
<stop offset="0.5" stop-color="#A17F5C"/>
<stop offset="1" stop-color="#6C4725"/>
</linearGradient>
<radialGradient id="paint1_radial_210_5260" cx="0" cy="0" r="1" gradientTransform="matrix(-5.31254 -4.35362 3.40011 -4.10863 13.2307 16.4721)" gradientUnits="userSpaceOnUse">
<stop stop-color="#312312"/>
<stop offset="1" stop-color="#593B17"/>
</radialGradient>
</defs>
</svg>
