<svg width="20" height="27" viewBox="0 0 20 27" fill="none" xmlns="http://www.w3.org/2000/svg">
<path d="M13.5049 2.16202C13.8849 1.97202 14.2049 1.94202 14.6349 1.98202C14.7249 1.98202 14.7849 2.09202 14.8749 2.09202C14.9949 2.09202 15.4149 1.88202 15.6849 1.86202C18.0149 1.65202 20.4749 3.97202 18.8349 6.18202C17.8649 7.50202 16.2549 7.11202 15.0749 6.33202L14.7949 6.67202L15.0849 6.83202L15.5349 8.77202C17.8249 8.95202 18.0249 11.622 17.3149 13.352C16.4049 15.592 14.3749 17.062 12.3649 18.232L11.4849 20.362L10.3049 19.882C9.94488 20.182 9.81488 20.512 9.61488 20.912C9.55488 21.032 9.38488 21.182 9.35488 21.272C9.29488 21.492 9.24488 21.852 9.17488 22.132C9.00488 22.832 8.88488 23.502 9.37488 24.112C9.52488 24.292 9.74488 24.252 9.63488 24.552C9.47488 25.022 8.20488 25.712 7.72488 25.762C6.72488 25.872 5.22488 25.282 5.12488 24.142C4.96488 22.382 6.15488 21.182 7.58488 20.402C7.73488 20.322 7.91488 20.332 8.04488 20.242C8.16488 20.162 8.20488 19.982 8.35488 19.882C8.61488 19.702 8.98488 19.772 9.05488 19.322L3.79488 17.172L5.50488 12.942C4.13488 13.032 2.90488 13.982 2.17488 15.092C2.03488 15.312 1.71488 15.832 1.67488 16.062C1.66488 16.122 1.76488 16.642 1.78488 16.662C1.80488 16.692 1.95488 16.712 2.01488 16.762C2.63488 17.272 3.04488 17.522 3.88488 17.592C4.40488 17.632 4.52488 17.352 4.32488 18.152C4.17488 18.782 3.68488 19.492 3.20488 19.912C1.64488 21.292 -0.475122 18.992 0.0948777 17.172C0.424878 16.132 0.814878 14.742 1.47488 13.832C2.38488 12.552 4.03488 11.802 5.58488 11.732C5.69488 11.732 5.91488 11.842 6.00488 11.732L6.41488 10.592C4.17488 8.22202 5.83488 4.36202 9.24488 5.06202C9.51488 5.12202 10.0449 5.39202 10.1949 5.40202C10.4449 5.42202 10.7049 5.10202 10.9249 5.09202C11.1449 5.08202 11.4249 5.28202 11.6349 5.34202L11.5749 4.75202C10.5049 4.60202 9.41488 4.31202 8.86488 3.29202C8.00488 1.69202 9.12488 -0.0679777 10.9249 0.00202234C12.0249 0.0420223 13.2549 1.09202 13.5249 2.15202L13.5049 2.16202ZM11.5449 0.322022C11.2549 0.212022 10.3649 0.102022 10.1349 0.292022C10.0149 0.392022 10.0749 0.892022 10.1049 1.06202C10.1549 1.15202 10.5349 0.962022 10.6649 0.942022C10.8049 0.912022 10.9649 0.962022 11.1049 0.922022L11.5449 0.322022ZM9.95488 0.382022C9.62488 0.422022 8.83488 1.11202 8.94488 1.42202C9.00488 1.60202 9.23488 1.73202 9.37488 1.85202C9.39488 1.65202 9.95488 1.24202 9.96488 1.20202C9.99488 1.03202 9.79488 0.632022 9.96488 0.382022H9.95488ZM12.8349 1.36202C12.9049 1.30202 12.4749 0.902022 12.4049 0.842022C11.7949 0.322022 11.7149 0.382022 11.1849 0.962022C11.5149 0.912022 12.0649 1.50202 12.2049 1.53202C12.3149 1.55202 12.6449 1.26202 12.8349 1.36202ZM10.7949 1.07202C10.3049 1.09202 9.66488 1.46202 9.55488 1.97202C9.35488 2.81202 10.1849 3.52202 10.9049 3.76202C11.8849 4.08202 11.5649 3.72202 11.9549 3.09202C12.1149 2.82202 12.4349 2.65202 12.5049 2.53202C12.6549 2.29202 12.0049 1.55202 11.7949 1.40202C11.5649 1.24202 11.0849 1.06202 10.8049 1.08202L10.7949 1.07202ZM13.3849 2.34202C13.3649 2.03202 13.1949 1.76202 13.0149 1.51202L12.2849 1.60202L12.6649 2.39202L13.3949 2.34202H13.3849ZM9.33488 1.92202L8.79488 1.60202C8.69488 2.28202 8.59488 3.26202 9.59488 3.07202C9.57488 2.84202 9.40488 2.65202 9.36488 2.41202C9.33488 2.27202 9.37488 1.97202 9.34488 1.91202L9.33488 1.92202ZM16.3849 2.59202C16.1849 1.84202 15.4149 2.03202 14.8549 2.22202L15.0049 2.77202C15.4149 2.53202 15.9249 2.45202 16.3849 2.59202ZM17.5949 2.42202C17.3949 2.22202 16.5049 2.01202 16.2049 2.04202C16.3649 2.14202 16.5149 2.52202 16.5949 2.60202C16.6749 2.68202 17.0249 2.73202 17.1849 2.81202C17.4149 2.92202 17.6249 3.12202 17.8249 3.27202C17.9149 3.10202 17.7049 2.54202 17.5949 2.43202V2.42202ZM14.0549 2.10202C13.8449 2.15202 13.5749 2.17202 13.5649 2.44202C13.5649 2.64202 13.8249 3.43202 14.0549 3.11202C14.2349 2.87202 13.9849 2.39202 14.0549 2.10202ZM14.6549 2.17202L14.2449 2.09202L14.3049 2.95202L14.7249 2.82202L14.6549 2.17202ZM13.4449 2.53202H12.7449C12.5949 2.59202 12.5849 2.93202 12.7649 2.93202C13.0249 2.93202 13.5349 2.87202 13.4349 2.53202H13.4449ZM18.4049 4.55202C18.6249 4.38202 18.9449 3.89202 18.8849 3.61202C18.8349 3.39202 17.9649 2.46202 17.8549 2.58202C17.8849 2.76202 18.0049 2.92202 18.0249 3.12202C18.0249 3.24202 17.9649 3.34202 17.9849 3.46202C18.0449 3.72202 18.5049 4.18202 18.4049 4.55202ZM15.0349 2.90202C15.2849 3.22202 15.6249 2.99202 16.0049 3.30202C16.5349 3.73202 16.4249 4.50202 16.1749 5.06202C15.9949 5.47202 15.6449 5.51202 16.3149 5.81202C17.6749 6.42202 18.6749 5.01202 18.0149 3.80202C17.4749 2.80202 16.0249 2.46202 15.0249 2.90202H15.0349ZM12.5249 2.77202C12.3549 2.63202 12.0549 3.26202 12.0049 3.38202C11.8249 3.81202 11.8649 4.16202 11.7849 4.60202C11.9049 4.63202 11.9049 4.56202 11.9549 4.50202C12.1849 4.24202 12.5149 3.71202 12.6049 3.38202C12.6249 3.32202 12.5449 2.78202 12.5149 2.76202L12.5249 2.77202ZM13.5649 2.96202L12.7749 3.08202C12.6249 3.64202 13.4549 3.53202 13.6949 3.36202C13.8149 3.28202 13.5449 3.09202 13.5649 2.97202V2.96202ZM14.2549 3.62202C14.5849 3.54202 15.3549 3.54202 14.9849 3.04202C14.8249 2.83202 14.2649 3.18202 14.0649 3.26202L14.2549 3.62202ZM10.6949 3.81202C10.3749 3.87202 9.81488 3.18202 9.67488 3.15202C9.53488 3.12202 9.24488 3.34202 9.03488 3.20202C9.15488 3.59202 9.80488 4.25202 10.2149 4.17202C10.2949 4.15202 10.7749 3.93202 10.6849 3.81202H10.6949ZM15.9349 3.47202C15.7649 3.30202 15.4449 3.22202 15.2249 3.14202C15.2449 3.35202 15.1549 3.63202 15.2349 3.83202C15.2749 3.93202 15.4049 3.95202 15.4849 4.07202C15.5649 4.19202 15.5949 4.40202 15.5949 4.54202L16.2049 4.32202C16.2649 4.09202 16.1049 3.63202 15.9349 3.46202V3.47202ZM13.8549 3.39202L13.5849 3.60202L13.8549 4.43202C14.5349 4.50202 14.0749 3.37202 13.8549 3.40202V3.39202ZM13.4349 3.64202L12.9549 3.70202C13.0149 3.87202 13.0549 4.51202 13.1749 4.55202C13.8749 4.78202 13.5649 3.99202 13.4349 3.64202ZM15.0949 4.18202C15.1849 3.44202 14.8949 3.61202 14.3649 3.76202V4.24202L15.0949 4.18202ZM12.8949 4.36202C12.9149 4.26202 12.8449 3.76202 12.7449 3.75202C12.4949 3.84202 12.4949 4.18202 12.4649 4.42202L12.8949 4.36202ZM11.6049 4.55202V4.10202C11.5649 4.00202 11.0149 3.92202 10.9149 3.95202C10.7949 3.98202 10.6249 4.25202 10.4449 4.25202C10.4249 4.41202 10.4449 4.35202 10.5349 4.37202C10.6849 4.41202 11.5549 4.61202 11.6049 4.55202ZM19.0749 3.94202C18.9349 3.91202 18.9749 3.95202 18.9349 4.02202C18.8549 4.15202 18.7849 4.42202 18.6849 4.54202C18.6149 4.61202 18.4449 4.64202 18.4149 4.70202C18.3749 4.77202 18.3449 5.07202 18.2849 5.22202C18.1849 5.48202 18.0049 5.61202 17.9049 5.85202C18.5349 6.04202 18.7849 6.14202 19.0049 5.46202C19.1649 4.97202 19.1549 4.46202 19.0649 3.95202L19.0749 3.94202ZM15.3449 4.73202C15.3949 4.52202 15.4449 4.20202 15.2249 4.06202C15.1149 4.34202 15.0549 4.53202 15.3449 4.73202ZM15.3449 6.27202C15.3549 6.06202 15.3249 5.84202 15.3449 5.63202C15.3549 5.52202 15.4649 5.42202 15.4549 5.33202C15.4449 5.27202 15.1549 4.88202 15.0849 4.72202C15.0349 4.61202 15.0549 4.43202 15.0049 4.37202C14.9349 4.26202 14.3949 4.33202 14.3549 4.53202C14.2549 5.05202 14.8949 6.00202 15.3349 6.28202L15.3449 6.27202ZM12.2849 5.50202V4.37202C11.5749 4.88202 11.8449 5.53202 11.8549 6.27202L12.2849 5.50202ZM14.2449 4.55202C13.7949 4.44202 13.5849 4.85202 13.1349 4.71202C13.0349 4.68202 12.9749 4.57202 12.8649 4.56202C12.2049 4.52202 12.5049 5.35202 12.5349 5.77202C12.9049 5.84202 13.3349 6.21202 13.6849 6.12202C13.8149 6.09202 14.3849 5.68202 14.4049 5.55202C14.4449 5.37202 14.1049 4.83202 14.2349 4.55202H14.2449ZM16.1349 4.55202C15.9049 4.63202 15.4549 4.61202 15.4149 4.90202C15.4149 4.94202 15.6949 5.50202 15.8849 5.25202C15.9549 5.16202 16.2049 4.63202 16.1349 4.55202ZM8.30488 5.22202C7.87488 5.21202 7.35488 5.36202 6.97488 5.57202C6.92488 5.60202 6.87488 5.55202 6.90488 5.67202C6.94488 5.82202 7.35488 6.34202 7.52488 6.31202C7.67488 6.28202 8.05488 5.92202 8.30488 5.95202C8.20488 5.72202 8.20488 5.44202 8.30488 5.22202ZM10.0149 5.47202C9.48488 5.30202 8.98488 5.17202 8.42488 5.22202V5.96202C8.65488 5.89202 9.10488 6.04202 9.28488 5.99202C9.32488 5.99202 9.85488 5.66202 9.93488 5.60202C9.99488 5.56202 10.0449 5.60202 10.0149 5.46202V5.47202ZM11.5949 5.54202C11.5449 5.48202 10.8749 5.23202 10.7549 5.31202L8.09488 6.94202L4.02488 17.022L9.07488 19.192C9.22488 19.192 9.50488 18.862 9.59488 18.732C9.63488 18.672 9.69488 18.682 9.59488 18.612L5.01488 16.602L8.82488 7.32202L10.8249 6.10202L11.6849 6.38202C11.7249 6.33202 11.6649 5.62202 11.6149 5.54202H11.5949ZM17.1749 6.88202C16.9649 6.73202 16.8149 6.27202 16.6549 6.14202C16.5349 6.04202 16.2649 5.99202 16.1049 5.90202C15.8849 5.77202 15.7649 5.54202 15.5249 5.47202C15.4849 5.72202 15.3949 6.21202 15.5849 6.42202C15.7449 6.59202 17.0049 7.01202 17.1749 6.88202ZM6.64488 7.61202C6.71488 7.16202 7.02488 6.84202 7.26488 6.48202L6.74488 5.71202C6.40488 5.92202 5.69488 6.84202 5.68488 7.22202C5.68488 7.47202 6.42488 7.68202 6.64488 7.60202V7.61202ZM13.8149 6.33202L14.5249 6.57202L14.9849 6.17202L14.5349 5.71202C14.3649 5.92202 14.1049 6.02202 13.9049 6.18202C13.8549 6.22202 13.7949 6.18202 13.8249 6.32202L13.8149 6.33202ZM12.3449 5.78202C12.2549 5.78202 12.2449 5.87202 12.2249 5.93202C12.1749 6.04202 11.9349 6.65202 11.9349 6.72202C11.9349 6.77202 12.1149 7.52202 12.1349 7.56202C12.2949 7.87202 12.8849 7.79202 12.8349 7.35202C12.8049 7.01202 12.2249 6.27202 12.3449 5.78202ZM18.5849 6.14202C18.3349 6.25202 17.9549 5.90202 17.8249 5.90202C17.6249 5.90202 17.1149 6.27202 16.8149 6.14202C16.9449 6.34202 17.2749 6.81202 17.5149 6.82202C17.8549 6.82202 18.4049 6.43202 18.5849 6.14202ZM11.9749 16.752L13.0649 16.162L15.6249 10.032L14.9649 7.04202L12.6149 5.96202C12.4749 6.44202 12.8049 6.47202 13.0449 6.69202C13.1749 6.82202 13.2249 7.01202 13.3249 7.09202C13.5349 7.25202 14.3649 7.42202 14.5149 7.62202L15.0349 9.73202L11.9749 16.742V16.752ZM9.03488 6.08202C7.36488 5.96202 6.34488 7.64202 6.95488 9.14202C7.06488 9.11202 7.10488 8.97202 7.14488 8.88202C7.45488 8.20202 7.70488 7.43202 7.98488 6.73202L9.03488 6.08202ZM13.3249 7.31202C13.4049 8.73202 11.2349 8.53202 11.5149 7.18202C11.5549 6.97202 11.8149 6.75202 11.7049 6.57202C11.2749 6.32202 11.0849 6.16202 10.6149 6.40202C10.4049 6.50202 9.08488 7.34202 8.97488 7.46202C8.87488 7.57202 8.76488 7.84202 8.70488 7.98202C7.45488 10.742 6.53488 13.672 5.27488 16.442V16.632L9.69488 18.522C9.90488 18.512 9.96488 18.302 10.0749 18.192C10.5649 17.762 11.0949 17.362 11.6349 16.992L14.8549 9.73202L14.4149 7.70202L13.3249 7.32202V7.31202ZM11.8749 7.96202C12.6949 8.76202 13.8649 7.26202 12.7749 6.69202C12.7349 6.91202 12.9649 7.05202 13.0049 7.22202C13.1749 7.98202 11.9949 8.21202 11.8649 7.44202C11.8649 7.41202 11.9349 6.74202 11.7349 6.94202C11.5349 7.14202 11.6749 7.77202 11.8749 7.96202ZM5.60488 7.52202V8.56202C5.60488 8.56202 5.77488 9.16202 5.80488 9.19202C5.88488 9.25202 6.82488 9.46202 6.83488 9.36202C6.63488 8.85202 6.48488 8.35202 6.58488 7.80202C6.27488 7.81202 5.94488 7.69202 5.72488 7.46202L5.60488 7.52202ZM17.3049 10.432C17.1349 9.62202 16.3849 9.04202 15.5949 8.90202C15.5549 8.95202 15.7049 9.59202 15.7449 9.70202C15.9449 10.162 16.2449 9.95202 16.6349 10.042C16.8749 10.092 17.1149 10.302 17.3049 10.442V10.432ZM6.83488 9.58202C6.49488 9.59202 6.15488 9.49202 5.85488 9.33202C5.79488 9.40202 6.40488 10.372 6.49488 10.372L6.83488 9.57202V9.58202ZM15.8949 10.072C15.7949 9.97202 15.6649 10.342 15.6449 10.402C14.7949 12.232 14.1249 14.162 13.3249 16.022C15.5649 15.132 16.9649 12.332 15.8949 10.082V10.072ZM17.4249 12.212C17.4749 11.802 17.5749 11.112 17.3949 10.742C17.2749 10.502 16.2949 9.97202 16.0849 10.122C16.3249 10.552 16.4449 11.042 16.4849 11.532L17.4349 12.202L17.4249 12.212ZM16.5649 14.232C16.8449 13.892 17.3649 12.972 17.3549 12.542C17.3549 12.242 16.7549 11.882 16.5349 11.722C16.4449 11.722 16.3949 12.322 16.3649 12.472C16.3249 12.642 16.1549 13.132 16.1649 13.232C16.1649 13.402 16.6749 13.942 16.5749 14.242L16.5649 14.232ZM5.91488 11.902C5.30488 11.852 4.71488 11.992 4.13488 12.182L3.95488 13.192C4.46488 13.012 4.98488 12.802 5.53488 12.812L5.91488 11.902ZM3.89488 12.272C3.84488 12.212 2.74488 12.832 2.61488 12.922C2.53488 12.972 2.20488 13.232 2.17488 13.282C2.00488 13.542 2.17488 14.232 2.24488 14.542C2.33488 14.622 2.66488 14.142 2.73488 14.082C3.04488 13.802 3.44488 13.482 3.83488 13.312L3.90488 12.282L3.89488 12.272ZM14.8549 16.262C14.9649 16.392 16.2849 14.842 16.3549 14.612C16.4449 14.302 16.3349 13.752 16.1049 13.512C15.9249 13.762 15.8349 14.042 15.6749 14.302C15.5549 14.492 15.0749 15.042 15.0549 15.152C15.0049 15.312 15.0649 15.512 15.0349 15.682C15.0049 15.882 14.8849 16.062 14.8549 16.272V16.262ZM1.31488 16.302C1.50488 15.982 1.63488 15.622 1.80488 15.292C1.88488 15.152 2.15488 14.832 2.17488 14.732C2.21488 14.522 1.79488 13.872 1.94488 13.552L1.26488 14.492C1.09488 14.792 0.554878 15.962 0.734878 16.242L1.32488 16.302H1.31488ZM14.4049 16.662C14.6249 16.412 14.9249 15.562 14.8849 15.212C14.3749 15.682 13.7649 16.032 13.1649 16.372L13.0149 17.532C13.1049 17.552 13.1449 17.492 13.2149 17.462C13.4249 17.352 14.2649 16.802 14.4049 16.652V16.662ZM1.56488 16.382C1.20488 16.542 0.834878 16.592 0.554878 16.262C-0.0151223 17.292 1.76488 17.572 1.56488 16.382ZM13.0149 16.502C12.9349 16.422 11.3949 17.322 11.2349 17.512L11.0549 18.892L12.7549 17.772C12.8649 17.352 13.0449 16.942 13.0149 16.502ZM0.164878 17.602C0.624878 17.692 1.04488 17.792 1.50488 17.622C1.87488 17.482 2.27488 16.952 1.70488 16.802C1.58488 17.432 0.714878 17.512 0.384878 16.992L0.174878 17.602H0.164878ZM4.20488 17.792C3.49488 17.842 2.74488 17.652 2.21488 17.182C1.77488 17.932 0.934878 18.102 0.164878 17.732C0.144878 18.952 1.25488 20.512 2.61488 20.032C2.01488 19.722 1.21488 19.382 0.964878 18.712C1.31488 19.042 2.40488 19.952 2.87488 19.862C3.01488 19.832 3.54488 19.332 3.47488 19.262C2.88488 19.232 2.28488 18.972 1.81488 18.622C1.78488 18.602 1.59488 18.552 1.69488 18.462C1.73488 18.422 2.51488 18.852 2.68488 18.912C2.99488 19.012 3.34488 19.102 3.67488 19.082L4.02488 18.342C3.51488 18.352 2.90488 18.342 2.43488 18.122C2.34488 18.082 2.28488 18.122 2.31488 17.972C2.65488 18.092 3.83488 18.352 4.08488 18.122C4.16488 18.052 4.14488 17.882 4.20488 17.782V17.792ZM9.57488 20.472C9.70488 20.362 10.0749 19.812 10.2349 19.632C10.3649 19.482 10.6749 19.272 10.7449 19.162C10.8449 18.992 11.1449 17.782 11.0649 17.672C10.5949 17.962 10.1549 18.392 9.77488 18.802C9.60488 18.982 8.97488 19.722 8.90488 19.892C8.73488 20.282 9.26488 20.722 9.57488 20.472ZM12.0949 18.462C12.0349 18.402 11.1849 19.052 11.0849 19.142C10.9949 19.222 10.3549 19.722 10.4449 19.812L11.4149 20.112L12.0949 18.462ZM8.73488 19.872C8.12488 19.902 8.05488 20.962 8.60488 21.132C8.94488 21.232 9.45488 21.152 9.46488 20.732C9.01488 20.682 8.54488 20.382 8.73488 19.872ZM8.05488 20.422C8.00488 20.372 7.46488 20.602 7.41488 20.722C7.59488 21.442 8.37488 22.142 9.14488 21.812L9.21488 21.332C8.56488 21.442 7.96488 21.142 8.05488 20.412V20.422ZM9.03488 22.082C8.09488 22.202 7.54488 21.592 7.22488 20.792C6.19488 21.392 5.21488 22.632 5.24488 23.882C5.24488 24.112 5.34488 24.532 5.54488 24.652C5.46488 23.762 5.78488 22.882 6.34488 22.202C6.23488 22.642 5.97488 23.002 5.83488 23.442C5.61488 24.172 5.43488 25.142 6.40488 25.322C6.20488 24.202 6.47488 23.102 7.22488 22.252C7.24488 22.222 7.29488 22.032 7.38488 22.142C7.42488 22.182 6.90488 22.962 6.84488 23.102C6.52488 23.832 6.49488 24.602 6.53488 25.382C6.91488 25.512 7.29488 25.662 7.68488 25.512C7.21488 24.662 7.42488 23.412 7.83488 22.572C7.82488 23.032 7.64488 23.492 7.61488 23.952C7.59488 24.202 7.60488 25.372 7.83488 25.452C8.02488 25.482 8.93488 25.152 8.89488 24.942C8.38488 24.422 8.11488 23.672 8.16488 22.942L8.42488 23.812C8.57488 24.192 8.78488 24.532 9.05488 24.842L9.44488 24.452C8.73488 23.832 8.69488 22.922 9.02488 22.082H9.03488Z" fill="#3E3B3A"/>
<g filter="url(#filter0_di_209_17698)">
<path d="M13.3273 7.31174L14.4173 7.69174L14.8573 9.72174L11.6373 16.9817C11.0973 17.3517 10.5673 17.7417 10.0773 18.1817C9.95734 18.2817 9.90734 18.4917 9.69734 18.5117L5.27734 16.6217V16.4317C6.53734 13.6717 7.45734 10.7317 8.70734 7.97174C8.77734 7.82174 8.88734 7.56174 8.97734 7.45174C9.08734 7.33174 10.4073 6.49174 10.6173 6.39174C11.0973 6.15174 11.2773 6.31174 11.7073 6.56174C11.8173 6.74174 11.5573 6.96174 11.5173 7.17174C11.2373 8.52174 13.4073 8.71174 13.3273 7.30174V7.31174Z" fill="url(#paint0_linear_209_17698)"/>
</g>
<path d="M11.5959 5.5415C11.6559 5.6215 11.7059 6.3315 11.6659 6.3815L10.8059 6.1015L8.80586 7.3215L6.83594 12.2415L4.99586 16.6015L9.57586 18.6115C9.67586 18.6815 9.61586 18.6715 9.57586 18.7315C9.48586 18.8615 9.20586 19.2015 9.05586 19.1915L4.00586 17.0215L8.07586 6.9415L10.7359 5.3115C10.8659 5.2415 11.5359 5.4815 11.5759 5.5415H11.5959Z" fill="#7E7676"/>
<path d="M9.03616 22.083C8.71616 22.913 8.75616 23.833 9.45616 24.453L9.06616 24.843C8.79616 24.543 8.58616 24.193 8.43616 23.813L8.17616 22.943C8.12616 23.673 8.39616 24.423 8.90616 24.943C8.94616 25.143 8.04616 25.473 7.84616 25.453C7.60616 25.373 7.60616 24.203 7.62616 23.953C7.65616 23.493 7.82616 23.033 7.84616 22.573C7.43616 23.413 7.22616 24.663 7.69616 25.513C7.29616 25.663 6.91616 25.513 6.54616 25.383C6.49616 24.603 6.53616 23.833 6.85616 23.103C6.91616 22.963 7.43616 22.183 7.39616 22.143C7.30616 22.033 7.26616 22.233 7.23616 22.253C6.48616 23.113 6.21616 24.203 6.41616 25.323C5.44616 25.143 5.62616 24.163 5.84616 23.443C5.97616 23.003 6.24616 22.643 6.35616 22.203C5.79616 22.883 5.48616 23.763 5.55616 24.653C5.35616 24.533 5.26616 24.113 5.25616 23.883C5.23616 22.633 6.20616 21.393 7.23616 20.793C7.55616 21.593 8.10616 22.203 9.04616 22.083H9.03616Z" fill="#9E9E9E"/>
<path d="M11.9766 16.7527L15.0366 9.74266L14.5166 7.63266C14.3666 7.43266 13.5366 7.27266 13.3266 7.10266C13.2366 7.03266 13.1866 6.83266 13.0466 6.70266C12.8066 6.47266 12.4666 6.45266 12.6166 5.97266L14.9666 7.05266L15.6266 10.0427L13.0666 16.1727L11.9766 16.7627V16.7527Z" fill="#7E7676"/>
<path d="M4.20608 17.7914C4.14608 17.8914 4.16608 18.0614 4.08608 18.1314C3.83608 18.3514 2.64608 18.0914 2.31608 17.9814C2.28608 18.1414 2.34608 18.0914 2.43608 18.1314C2.90608 18.3414 3.51608 18.3614 4.02608 18.3514L3.67608 19.0914C3.34608 19.1114 3.00608 19.0214 2.68608 18.9214C2.51608 18.8714 1.73608 18.4414 1.69608 18.4714C1.58608 18.5614 1.77608 18.6014 1.81608 18.6314C2.28608 18.9814 2.88608 19.2414 3.47608 19.2714C3.55608 19.3414 3.01608 19.8514 2.87608 19.8714C2.40608 19.9614 1.30608 19.0514 0.966083 18.7214C1.22608 19.3914 2.01608 19.7314 2.61608 20.0414C1.25608 20.5214 0.156083 18.9714 0.166083 17.7414C0.936083 18.1114 1.77608 17.9414 2.21608 17.1914C2.74608 17.6714 3.49608 17.8514 4.20608 17.8014V17.7914Z" fill="#9E9E9E"/>
<path d="M8.05602 20.4219C7.96602 21.1519 8.56602 21.4519 9.21602 21.3419L9.14602 21.8219C8.36602 22.1419 7.58602 21.4519 7.41602 20.7319C7.46602 20.6019 8.00602 20.3719 8.05602 20.4319V20.4219Z" fill="#72716F"/>
<path d="M12.0945 18.4617L11.4145 20.1117L10.4445 19.8117C10.3645 19.7217 10.9945 19.2117 11.0845 19.1417C11.1845 19.0617 12.0345 18.4117 12.0945 18.4617Z" fill="#7E7676"/>
<path d="M8.73565 19.8711C8.55565 20.3811 9.01565 20.6811 9.46565 20.7311C9.46565 21.1511 8.94565 21.2311 8.60565 21.1311C8.05565 20.9611 8.12565 19.9111 8.73565 19.8711Z" fill="#D1B26E"/>
<path d="M0.16625 17.6027L0.37625 16.9927C0.70625 17.5227 1.57625 17.4427 1.69625 16.8027C2.26625 16.9427 1.87625 17.4827 1.49625 17.6227C1.03625 17.7927 0.61625 17.6827 0.15625 17.6027H0.16625Z" fill="#72716F"/>
<path d="M1.56451 16.3817C1.76451 17.5717 -0.015488 17.2917 0.554512 16.2617C0.834512 16.5917 1.20451 16.5417 1.56451 16.3817Z" fill="#D1B26E"/>
<path d="M11.8758 7.96141C11.6758 7.77141 11.5358 7.14141 11.7358 6.94141C11.9358 6.74141 11.8658 7.41141 11.8658 7.44141C12.0058 8.21141 13.1758 7.98141 13.0058 7.22141C12.9658 7.04141 12.7358 6.90141 12.7758 6.69141C13.8658 7.26141 12.7058 8.75141 11.8758 7.96141Z" fill="#D1B26E"/>
<path d="M9.57636 20.4719C9.25636 20.7319 8.73636 20.2819 8.90636 19.8919C8.98636 19.7219 9.60636 18.9819 9.77636 18.8019C10.1464 18.3919 10.5964 17.9619 11.0664 17.6719C11.1464 17.7819 10.8464 18.9919 10.7464 19.1619C10.6764 19.2719 10.3664 19.4819 10.2364 19.6319C10.0764 19.8119 9.70636 20.3619 9.57636 20.4719Z" fill="#C1C1C1"/>
<path d="M13.0157 16.5031C13.0457 16.9431 12.8657 17.3631 12.7557 17.7731L11.0557 18.8931L11.2357 17.5131C11.3957 17.3231 12.9357 16.4231 13.0157 16.5031Z" fill="#C1C1C1"/>
<path d="M3.89597 12.2727L3.82597 13.3027C3.44597 13.4827 3.03597 13.7927 2.72597 14.0727C2.65597 14.1327 2.32597 14.6127 2.23597 14.5327C2.16597 14.2227 1.99597 13.5327 2.16597 13.2727C2.19597 13.2227 2.52597 12.9727 2.60597 12.9127C2.73597 12.8227 3.83597 12.2127 3.88597 12.2627L3.89597 12.2727Z" fill="#C1C1C1"/>
<path d="M1.31608 16.3027L0.726076 16.2427C0.556076 15.9627 1.09608 14.7927 1.25608 14.4927L1.93608 13.5527C1.79608 13.8727 2.21608 14.5227 2.16608 14.7327C2.14608 14.8327 1.87608 15.1427 1.79608 15.2927C1.61608 15.6227 1.48608 15.9727 1.30608 16.3027H1.31608Z" fill="#C1C1C1"/>
<path d="M14.4056 16.6627C14.2756 16.8127 13.4356 17.3527 13.2156 17.4727C13.1456 17.5127 13.1056 17.5727 13.0156 17.5427L13.1656 16.3827C13.7656 16.0327 14.3756 15.6927 14.8856 15.2227C14.9256 15.5727 14.6256 16.4227 14.4056 16.6727V16.6627Z" fill="#C1C1C1"/>
<path d="M6.64555 7.61266C6.42555 7.69266 5.68555 7.48266 5.68555 7.23266C5.68555 6.85266 6.40555 5.93266 6.74555 5.72266L7.26555 6.49266C7.02555 6.85266 6.71555 7.17266 6.64555 7.62266V7.61266Z" fill="#C1C1C1"/>
<path d="M16.5662 14.2329C16.6662 13.9329 16.1662 13.3929 16.1562 13.2229C16.1562 13.1229 16.3263 12.6329 16.3563 12.4629C16.3863 12.3229 16.4363 11.7129 16.5263 11.7129C16.7463 11.8729 17.3363 12.2429 17.3463 12.5329C17.3563 12.9529 16.8362 13.8829 16.5562 14.2229L16.5662 14.2329Z" fill="#C1C1C1"/>
<path d="M14.8555 16.262C14.8755 16.062 14.9955 15.882 15.0355 15.672C15.0655 15.502 15.0055 15.302 15.0555 15.142C15.0855 15.042 15.5655 14.482 15.6755 14.292C15.8355 14.032 15.9355 13.752 16.1055 13.502C16.3255 13.752 16.4455 14.292 16.3555 14.602C16.2855 14.832 14.9555 16.382 14.8555 16.252V16.262Z" fill="#C1C1C1"/>
<path d="M17.4262 12.2122L16.4762 11.5422C16.4462 11.0522 16.3262 10.5622 16.0762 10.1322C16.2862 9.98216 17.2762 10.5022 17.3862 10.7522C17.5662 11.1222 17.4662 11.8122 17.4162 12.2222L17.4262 12.2122Z" fill="#C1C1C1"/>
<path d="M5.60547 7.52289L5.72547 7.46289C5.94547 7.69289 6.26547 7.81289 6.58547 7.80289C6.48547 8.35289 6.63547 8.85289 6.83547 9.36289C6.83547 9.47289 5.88547 9.26289 5.80547 9.19289C5.77547 9.16289 5.60547 8.61289 5.60547 8.56289V7.52289Z" fill="#C1C1C1"/>
<path d="M5.91605 11.9018L5.53605 12.8118C4.98605 12.8118 4.46605 13.0118 3.95605 13.1918L4.13605 12.1818C4.70605 11.9918 5.30605 11.8618 5.91605 11.9018Z" fill="#C1C1C1"/>
<path d="M19.076 3.94195C19.166 4.45195 19.176 4.95195 19.016 5.45195C18.796 6.14195 18.536 6.04195 17.916 5.84195C18.016 5.60195 18.196 5.47195 18.296 5.21195C18.346 5.07195 18.376 4.76195 18.426 4.69195C18.466 4.64195 18.636 4.60195 18.696 4.53195C18.796 4.42195 18.866 4.15195 18.946 4.01195C18.986 3.94195 18.946 3.90195 19.086 3.93195L19.076 3.94195Z" fill="#C1C1C1"/>
<path d="M15.3459 6.27196C14.9059 5.99196 14.2659 5.04196 14.3659 4.52196C14.4059 4.32196 14.9459 4.26196 15.0159 4.36196C15.0559 4.42196 15.0459 4.60196 15.0959 4.71196C15.1659 4.87196 15.4559 5.26196 15.4659 5.32196C15.4759 5.40196 15.3659 5.51196 15.3559 5.62196C15.3359 5.83196 15.3559 6.05196 15.3559 6.26196L15.3459 6.27196Z" fill="#C1C1C1"/>
<path d="M17.3055 10.4326C17.1155 10.2926 16.8755 10.0926 16.6355 10.0326C16.2455 9.94258 15.9455 10.1526 15.7455 9.69258C15.7055 9.59258 15.5455 8.94258 15.5955 8.89258C16.3855 9.03258 17.1355 9.61258 17.3055 10.4226V10.4326Z" fill="#C1C1C1"/>
<path d="M17.1763 6.88266C17.0063 7.01266 15.7463 6.59266 15.5863 6.42266C15.3963 6.22266 15.4863 5.72266 15.5263 5.47266C15.7663 5.54266 15.8763 5.77266 16.1063 5.90266C16.2663 5.99266 16.5463 6.04266 16.6563 6.14266C16.8063 6.27266 16.9563 6.73266 17.1763 6.88266Z" fill="#C1C1C1"/>
<path d="M8.30554 5.22249C8.20554 5.45249 8.20554 5.73249 8.30554 5.95249C8.06554 5.92249 7.67554 6.28249 7.52554 6.31249C7.34554 6.34249 6.94554 5.82249 6.90554 5.67249C6.87554 5.55249 6.92554 5.60249 6.97554 5.57249C7.35554 5.35249 7.87554 5.20249 8.30554 5.22249Z" fill="#C1C1C1"/>
<path d="M12.3455 5.7832C12.2255 6.2732 12.8055 7.0132 12.8355 7.3532C12.8755 7.7932 12.2955 7.8632 12.1355 7.5632C12.1155 7.5232 11.9355 6.7732 11.9355 6.7232C11.9355 6.6532 12.1755 6.0432 12.2255 5.9332C12.2555 5.8732 12.2655 5.7932 12.3455 5.7832Z" fill="#C1C1C1"/>
<path d="M18.4055 4.55291C18.5055 4.18291 18.0455 3.72291 17.9855 3.46291C17.9555 3.34291 18.0355 3.24291 18.0255 3.12291C18.0055 2.93291 17.8855 2.77291 17.8555 2.58291C17.9655 2.46291 18.8355 3.39291 18.8855 3.61291C18.9455 3.89291 18.6255 4.38291 18.4055 4.55291Z" fill="#C1C1C1"/>
<path d="M11.5461 0.32267L11.1061 0.92267C10.9661 0.96267 10.8061 0.912669 10.6661 0.942669C10.5461 0.962669 10.1561 1.15267 10.1061 1.06267C10.0761 0.892669 10.0261 0.39267 10.1361 0.29267C10.3661 0.10267 11.2461 0.21267 11.5461 0.32267Z" fill="#C1C1C1"/>
<path d="M10.0158 5.47348C10.0458 5.61348 9.99578 5.57348 9.93578 5.61348C9.84578 5.67348 9.31578 5.99348 9.28578 6.00348C9.11578 6.04348 8.65578 5.90348 8.42578 5.97348V5.23348C8.98578 5.18348 9.49578 5.31348 10.0158 5.48348V5.47348Z" fill="#C1C1C1"/>
<path d="M18.5864 6.14254C18.4064 6.42254 17.8564 6.82254 17.5164 6.82254C17.2764 6.82254 16.9464 6.34254 16.8164 6.14254C17.1164 6.27254 17.6264 5.89254 17.8264 5.90254C17.9564 5.90254 18.3364 6.25254 18.5864 6.14254Z" fill="#C1C1C1"/>
<path d="M15.9357 3.47234C16.1057 3.64234 16.2557 4.10234 16.2057 4.33234L15.5957 4.55234C15.5957 4.40234 15.5657 4.20234 15.4857 4.08234C15.4057 3.96234 15.2857 3.94234 15.2357 3.84234C15.1457 3.64234 15.2357 3.36234 15.2257 3.15234C15.4457 3.23234 15.7657 3.30234 15.9357 3.48234V3.47234Z" fill="#C1C1C1"/>
<path d="M12.8355 1.36354C12.6355 1.26354 12.3155 1.56354 12.2055 1.53354C12.0655 1.50354 11.5155 0.913538 11.1855 0.963538C11.7255 0.383538 11.8055 0.323539 12.4055 0.843539C12.4755 0.903539 12.9055 1.30354 12.8355 1.36354Z" fill="#C1C1C1"/>
<path d="M10.6959 3.81324C10.7859 3.93324 10.3059 4.15324 10.2259 4.17324C9.8159 4.25324 9.1659 3.59324 9.0459 3.20324C9.2559 3.34324 9.5359 3.12324 9.6859 3.15324C9.8359 3.18324 10.3859 3.87324 10.7059 3.81324H10.6959Z" fill="#C1C1C1"/>
<path d="M9.9562 0.382812C9.7962 0.632812 9.9962 1.03281 9.9562 1.20281C9.9562 1.24281 9.3962 1.65281 9.3662 1.85281C9.2262 1.73281 8.9962 1.60281 8.9362 1.42281C8.8262 1.11281 9.6162 0.422812 9.9462 0.382812H9.9562Z" fill="#C1C1C1"/>
<path d="M9.33636 1.92328C9.37636 1.98328 9.33636 2.28328 9.35636 2.42328C9.39636 2.66328 9.56636 2.84328 9.58636 3.08328C8.58636 3.27328 8.69636 2.29328 8.78636 1.61328L9.32636 1.93328L9.33636 1.92328Z" fill="#C1C1C1"/>
<path d="M17.5961 2.42217C17.7061 2.53217 17.9161 3.09217 17.8261 3.26217C17.6261 3.11217 17.4161 2.91217 17.1861 2.80217C17.0261 2.72217 16.6761 2.66217 16.5961 2.59217C16.5061 2.52217 16.3661 2.14217 16.2061 2.03217C16.5161 2.00217 17.3961 2.21217 17.5961 2.41217V2.42217Z" fill="#C1C1C1"/>
<path d="M12.5259 2.7719C12.5259 2.7719 12.6259 3.3319 12.6159 3.3919C12.5259 3.7219 12.2059 4.2519 11.9659 4.5119C11.9159 4.5719 11.9159 4.6419 11.7959 4.6119C11.8659 4.1619 11.8359 3.8219 12.0159 3.3919C12.0659 3.2719 12.3659 2.6419 12.5359 2.7819L12.5259 2.7719Z" fill="#C1C1C1"/>
<path d="M16.3855 2.59181C15.9255 2.46181 15.4155 2.53181 15.0055 2.77181L14.8555 2.22181C15.4155 2.02181 16.1855 1.84181 16.3855 2.59181Z" fill="#C1C1C1"/>
<path d="M13.3864 2.34172L12.6564 2.39172L12.2764 1.60172L13.0064 1.51172C13.1764 1.75172 13.3564 2.03172 13.3764 2.34172H13.3864Z" fill="#C1C1C1"/>
<path d="M12.2857 5.50305L11.8557 6.27305C11.8357 5.53305 11.5757 4.88305 12.2857 4.37305V5.50305Z" fill="#C1C1C1"/>
<path d="M13.8156 6.33266C13.7756 6.19266 13.8456 6.23266 13.8956 6.19266C14.0956 6.03266 14.3556 5.93266 14.5256 5.72266L14.9756 6.18266L14.5156 6.58266L13.8056 6.34266L13.8156 6.33266Z" fill="#C1C1C1"/>
<path d="M11.6056 4.55315C11.5456 4.61315 10.6756 4.41315 10.5356 4.37315C10.4456 4.34315 10.4256 4.41315 10.4456 4.25315C10.6256 4.25315 10.7956 3.98315 10.9156 3.95315C11.0156 3.92315 11.5656 4.01315 11.5956 4.10315V4.55315H11.6056Z" fill="#C1C1C1"/>
<path d="M6.83571 9.5818L6.49571 10.3818C6.40571 10.3818 5.79571 9.4118 5.85571 9.3418C6.15571 9.5018 6.49571 9.6018 6.83571 9.5918V9.5818Z" fill="#C1C1C1"/>
<path d="M13.4361 3.64258C13.5661 3.99258 13.8661 4.78258 13.1761 4.55258C13.0461 4.51258 13.0161 3.87258 12.9561 3.70258L13.4361 3.64258Z" fill="#C1C1C1"/>
<path d="M14.2564 3.62215L14.0664 3.26215C14.2664 3.17215 14.8264 2.82215 14.9864 3.04215C15.3564 3.54215 14.5864 3.53215 14.2564 3.62215Z" fill="#C1C1C1"/>
<path d="M14.0564 2.10352C13.9864 2.40352 14.2364 2.87352 14.0564 3.11352C13.8264 3.43352 13.5664 2.64352 13.5664 2.44352C13.5664 2.17352 13.8364 2.15352 14.0564 2.10352Z" fill="#C1C1C1"/>
<path d="M13.8559 3.39281C14.0659 3.36281 14.5259 4.49281 13.8559 4.42281L13.5859 3.59281L13.8559 3.38281V3.39281Z" fill="#C1C1C1"/>
<path d="M15.0962 4.1832L14.3662 4.2432V3.7632C14.9062 3.6232 15.1862 3.4432 15.0962 4.1832Z" fill="#C1C1C1"/>
<path d="M13.5658 2.96313C13.5458 3.08313 13.8058 3.27312 13.6958 3.35312C13.4558 3.52312 12.6258 3.64312 12.7758 3.07312L13.5658 2.95312V2.96313Z" fill="#C1C1C1"/>
<path d="M14.6561 2.17352L14.7261 2.83352L14.3061 2.96352L14.2461 2.10352L14.6561 2.17352Z" fill="#C1C1C1"/>
<path d="M16.1363 4.55273C16.2063 4.63273 15.9563 5.15273 15.8863 5.25273C15.6963 5.50273 15.4063 4.94273 15.4163 4.90273C15.4563 4.61273 15.9163 4.63273 16.1363 4.55273Z" fill="#C1C1C1"/>
<path d="M13.4462 2.5332C13.5462 2.8832 13.0362 2.9432 12.7762 2.9332C12.5862 2.9332 12.6062 2.5832 12.7562 2.5432H13.4562L13.4462 2.5332Z" fill="#C1C1C1"/>
<path d="M12.8958 4.36195L12.4658 4.42195C12.4958 4.18195 12.4858 3.84195 12.7458 3.75195C12.8458 3.75195 12.9158 4.26195 12.8958 4.36195Z" fill="#C1C1C1"/>
<defs>
<filter id="filter0_di_209_17698" x="1.27734" y="6.27344" width="18.5801" height="20.2383" filterUnits="userSpaceOnUse" color-interpolation-filters="sRGB">
<feFlood flood-opacity="0" result="BackgroundImageFix"/>
<feColorMatrix in="SourceAlpha" type="matrix" values="0 0 0 0 0 0 0 0 0 0 0 0 0 0 0 0 0 0 127 0" result="hardAlpha"/>
<feOffset dy="4"/>
<feGaussianBlur stdDeviation="2"/>
<feComposite in2="hardAlpha" operator="out"/>
<feColorMatrix type="matrix" values="0 0 0 0 0 0 0 0 0 0 0 0 0 0 0 0 0 0 0.25 0"/>
<feBlend mode="normal" in2="BackgroundImageFix" result="effect1_dropShadow_209_17698"/>
<feBlend mode="normal" in="SourceGraphic" in2="effect1_dropShadow_209_17698" result="shape"/>
<feColorMatrix in="SourceAlpha" type="matrix" values="0 0 0 0 0 0 0 0 0 0 0 0 0 0 0 0 0 0 127 0" result="hardAlpha"/>
<feOffset dx="5" dy="2"/>
<feGaussianBlur stdDeviation="7.5"/>
<feComposite in2="hardAlpha" operator="arithmetic" k2="-1" k3="1"/>
<feColorMatrix type="matrix" values="0 0 0 0 0 0 0 0 0 0 0 0 0 0 0 0 0 0 0.25 0"/>
<feBlend mode="normal" in2="shape" result="effect2_innerShadow_209_17698"/>
</filter>
<linearGradient id="paint0_linear_209_17698" x1="7.33691" y1="11.2417" x2="13.3369" y2="13.7417" gradientUnits="userSpaceOnUse">
<stop stop-color="#8B8987"/>
<stop offset="0.163453" stop-color="#C2BFBD"/>
<stop offset="0.687504" stop-color="#7D7D7D"/>
<stop offset="0.971165" stop-color="#C2BFBD"/>
</linearGradient>
</defs>
</svg>
