<svg width="296" height="533" viewBox="0 0 296 533" fill="none" xmlns="http://www.w3.org/2000/svg">
<g>
<path d="M254.954 319.997C251.665 318.253 251.746 325.305 253.44 327.497L253.191 328.444C259.718 337.064 265.198 346.38 269.583 356.395L271.251 357.959C280.02 374.85 275.561 389.179 263.205 402.532L262.956 405.222C260.365 405.172 258.522 406.617 257.376 409.557C255.533 411.101 252.394 413.592 251.098 411.848C250.6 404.873 249.055 397.799 247.511 390.624C246.764 390.524 246.166 390.425 246.116 390.175C245.319 387.186 245.169 376.076 247.611 375.029L257.575 375.727C263.504 375.926 257.575 370.744 254.337 371.591C251.098 371.342 248.159 370.545 245.568 369.1C244.123 361.178 244.448 354.129 245.942 346.456C246.939 345.908 246.714 344.437 245.667 343.939C247.112 335.27 243.675 339.306 243.077 345.334C241.981 348.374 240.486 347.577 238.642 342.943C236.849 341.05 236.671 348.776 238.465 349.523C241.155 359.737 241.831 369.399 239.938 379.364C236.201 380.809 232.365 382.104 228.379 383.2C226.436 386.987 235.553 386.439 237.596 386.19V388.98C235.254 392.517 236.002 394.46 239.888 394.759C243.376 397.051 253.141 452.754 252.394 464.91L250.799 466.605C248.208 464.661 244.073 466.206 243.027 469.195C238.443 471.338 233.71 473.032 228.777 474.178L228.329 475.224C223.147 477.416 217.218 478.014 211.937 477.366C213.233 477.615 213.382 477.018 212.485 475.573C212.834 470.142 213.083 464.412 212.784 458.932C212.784 458.732 212.386 458.533 211.937 458.384C212.734 457.337 213.631 455.892 214.578 453.999C217.916 454.996 221.304 453.8 218.663 450.163C217.368 448.369 208.748 449.914 208.848 453.102C209.346 458.334 210.642 475.373 208.549 479.559C207.702 481.302 196.043 481.552 193.751 481.552C191.011 482.548 188.171 482.598 185.232 481.701C170.036 482.249 155.338 480.555 141.138 476.719C135.408 474.626 133.166 479.309 138.996 481.302C148.811 484.192 159.174 485.239 169.338 485.886C174.221 485.388 172.028 494.705 168.84 493.758C165.153 495.253 160.669 496.598 156.683 496.847L155.736 495.153C149.907 495.054 143.231 494.207 138.647 490.271L136.803 490.769C135.907 489.872 135.429 488.503 134.582 488.254C130.497 482.175 130.077 479.808 134.013 479.509C135.259 478.712 136.554 476.818 135.558 475.473C131.124 474.526 126.938 472.982 123.002 470.839L122.753 468.846L113.984 464.163L114.283 455.693L112.589 454.448C115.629 434.917 119.066 415.535 122.753 396.304L122.056 395.706C122.604 388.93 117.92 391.371 117.821 396.951C117.821 400.19 117.173 402.631 115.977 404.325C113.685 403.08 112.34 405.421 111.942 411.4C107.756 408.261 103.77 404.824 99.8843 401.137L97.8914 401.734C88.4249 392.866 84.3444 376.052 89.8748 364.095C91.4193 363.397 92.2979 359.504 91.6003 357.959C92.8425 359.784 93.4206 356.286 94.4763 353.166C94.825 350.077 95.1679 346.29 97.2106 344.347L97.0445 342.993C96.5961 340.452 94.253 339.75 92.559 340.896C86.3311 351.309 75.9691 371.84 79.9549 384.745C80.204 385.592 83.5921 394.112 83.891 394.61C88.2256 401.286 94.6529 410.254 101.08 415.386C107.507 420.518 111.643 418.425 109.998 428.888C108.753 436.611 104.966 447.422 104.02 454.896C103.671 457.786 103.571 465.708 104.368 468.298C106.162 474.178 121.209 476.469 122.554 478.612C123.401 479.957 124.796 487.032 125.792 489.224C127.337 492.562 133.465 497.146 128.134 500.634C127.038 501.381 125.045 501.182 123.55 502.079C120.86 503.623 114.034 507.908 112.739 510.299C110.198 514.983 109.849 520.762 113.088 525.296C113.486 525.894 122.106 530.976 122.803 531.175C131.373 533.368 134.96 532.072 142.683 530.727C146.668 530.03 151.053 529.83 154.939 528.286C158.825 526.741 171.779 519.866 173.523 516.627C176.114 511.794 174.52 508.008 172.527 503.474C175.068 499.438 176.363 488.527 182.242 488.925C183.687 489.025 187.574 496.15 189.367 497.445C191.609 502.079 188.022 516.727 191.858 519.367C192.655 519.915 194.25 519.666 194.947 520.165C197.04 521.61 198.136 523.154 201.076 524.599C208.35 528.236 215.973 529.631 223.496 530.677C224.991 530.877 229.07 531.475 230.988 531.475C236.548 531.475 245.817 530.378 249.504 526.99C250.152 526.393 252.992 521.759 253.041 521.061C253.191 519.916 253.554 518.784 253.454 517.588C253.305 516.044 252.792 515.182 252.194 513.239C252.095 512.841 248.906 507.609 248.607 507.26C245.817 504.321 234.258 500.285 233.062 497.694C231.717 494.655 235.155 493.858 236.45 491.566C238.144 488.676 238.343 484.441 239.489 481.651C242.08 475.323 258.223 475.324 260.116 467.651C260.864 464.562 258.92 463.017 258.522 460.127C257.326 450.661 256.383 445.236 254.988 435.72C254.689 433.677 253.141 423.956 253.34 422.162C253.39 421.464 263.454 416.084 265.049 414.738C274.964 406.517 283.882 392.019 284.48 378.865C285.476 357.093 270.28 335.27 255.981 320.572C255.435 320.194 254.726 319.554 254.954 319.997Z" fill="#101010"/>
<path d="M21.1164 94.6084C18.4757 97.5479 15.7355 100.438 12.9454 103.278C5.97015 98.3452 -0.00872803 109.406 5.5715 115.285C5.87042 120.218 5.77075 125.15 5.37216 130.083C0.290161 131.727 1.18701 137.805 6.16937 138.453C6.0199 142.24 7.56439 149.314 11.6001 144.731C13.892 144.581 13.892 143.983 11.6001 142.987L12.3972 142.09L9.80652 126.097C8.81003 118.075 10.0058 109.406 17.9277 105.47L18.5256 103.278L29.7359 101.534C34.6186 103.676 40.5973 103.327 45.2807 100.687C49.3662 99.8896 54.6475 99.9395 58.9323 100.288C63.2171 102.381 70.9896 102.979 75.5235 100.687C79.5592 103.776 81.851 108.36 82.4489 114.488C80.3563 116.132 80.1072 125.15 82.4489 126.595C83.7941 127.741 85.239 127.143 86.7835 124.851C90.2213 121.463 88.5772 113.292 87.4312 108.509C84.7408 97.3487 79.6589 92.5656 67.7511 92.466C64.7119 91.9678 63.7653 89.6759 64.961 85.6901C63.3168 75.7254 60.1779 54.351 67.5518 46.479C68.7475 45.1835 70.4416 44.9345 71.9861 45.5822C80.4063 51.3617 83.5949 57.5397 87.3316 66.8567C89.5737 72.3871 91.5168 78.0173 93.3602 83.6473C96.6984 88.2311 99.5883 82.8999 98.1434 79.1133C97.0473 75.9745 96.3996 72.8356 96.2501 69.5971L97.1967 67.1059C95.154 61.2766 92.9119 55.3974 89.3744 50.3154L86.7835 49.7176C83.7443 43.5395 79.908 39.5535 73.8296 36.3648C76.3705 33.7242 78.6624 30.9839 80.7549 28.144C82.7479 29.6387 89.9723 25.5531 89.3744 22.9623C98.4423 19.5245 107.709 16.8839 117.176 15.0903C119.916 15.7878 122.457 16.0868 124.799 16.037C125.197 16.7345 124.998 17.3822 124.35 18.0797C139.796 37.2617 143.981 63.3691 147.767 87.4836L139.846 90.1243L139.447 92.0675C134.315 93.0639 129.383 94.7579 124.6 97.1494C119.567 97.1494 113.688 100.986 110.201 104.573L105.717 105.021C100.734 98.4946 98.8409 100.737 100.136 111.748L97.8942 141.193C99.8373 151.108 101.581 161.023 103.026 170.888C99.7377 176.07 100.136 178.76 104.272 178.91C106.563 180.155 107.411 183.145 107.61 185.586C98.8907 189.572 90.9688 193.259 85.6377 201.778C81.9009 202.625 80.2568 204.07 80.7052 206.113C81.054 207.508 81.6517 208.654 82.4489 209.551C82.8973 210.199 83.7444 209.949 85.0398 208.704C88.3282 204.917 92.6628 202.327 97.1469 200.084C101.531 200.134 105.816 197.244 107.51 193.159C111.745 192.412 116.08 190.369 120.464 187.13C122.557 188.326 124.55 188.376 124.849 185.835C128.137 184.888 131.276 183.593 134.315 181.949L137.753 182.298C159.476 173.578 181.299 169.294 204.567 168.995L209.449 168.995C214.581 170.091 219.912 170.539 225.492 170.24C228.581 171.984 232.318 172.981 236.802 173.18C256.831 175.173 268.689 197.145 275.614 213.736L277.232 214.353C277.534 217.56 278.356 220.326 277.657 222.007C280.198 235.06 278.205 247.267 273.272 259.424C269.336 269.09 264.653 276.663 256.681 284.037L256.346 285.677C252.605 287.694 244.466 292.323 250.317 293.848L248.809 294.55C248.361 301.674 245.559 306.961 240.228 311.944C237.986 311.296 237.675 312.167 239.27 313.861C237.526 317.249 241.087 318.863 244.176 319.212C249.806 323.696 253.773 324.316 255.567 320.38C253.275 318.138 249.457 316.024 249.158 312.735C248.959 310.742 252.347 301.077 253.393 298.735C256.083 292.656 264.703 287.524 269.585 282.094C292.753 256.186 295.045 223.053 276.76 193.707C273.82 188.974 266.646 181.301 264.753 177.216C263.108 173.578 262.461 154.197 262.162 148.667C261.365 133.471 265.251 141.741 271.28 141.393C275.265 141.143 286.775 136.012 289.913 133.122C291.109 131.976 293.756 125.586 294.104 124.241C294.951 121.251 295.793 116.282 295.842 113.193C295.992 102.231 296.839 97.4981 292.255 86.6366C287.97 76.4228 276.312 69.8462 265.301 71.3409C262.66 71.6897 258.973 72.5864 255.834 73.0846C250.254 73.9814 244.574 75.825 238.944 76.4229C236.852 70.6932 237.3 64.814 236.254 58.8352C233.314 42.3935 226.986 19.2754 211.043 10.6559C199.185 4.22873 189.619 2.8338 176.366 1.28928C145.226 -2.34783 105.368 1.13974 78.3635 19.126C61.6229 30.2864 51.1599 51.2123 54.0497 71.7893C54.8468 77.6186 56.1079 78.6718 56.3415 85.3195C56.5639 91.6466 56.7434 89.921 56.3415 91.2204C55.9396 92.5198 49.8645 91.7685 47.6723 92.0675C39.1525 93.0639 29.4369 93.4625 21.3157 94.6582L21.1164 94.6084Z" fill="#101010"/>
<path d="M137.715 307.105C136.021 308.749 136.221 309.048 138.563 308.849L138.064 310.842C141.801 312.935 139.509 316.223 137.118 311.888L135.075 312.337C132.484 313.682 134.726 318.963 137.666 318.365C139.958 323.497 142.548 328.529 145.388 333.462C149.474 329.476 151.616 330.074 151.766 335.255C148.677 334.109 145.538 335.106 148.029 338.295C147.232 340.088 148.677 342.38 150.62 342.629C153.958 348.807 155.104 345.22 155.403 340.138C158.542 340.238 160.435 339.54 158.392 336.551L160.136 335.953C168.207 341.932 175.133 349.306 180.863 358.124C179.268 360.566 187.34 369.285 189.333 370.181L191.226 369.335C192.073 371.278 191.326 372.374 189.98 373.918C191.027 374.765 199.945 382.338 198.749 382.936C197.753 383.434 185.048 381.541 183.702 380.196C182.656 375.861 177.574 372.274 176.528 377.954C176.428 379.249 177.126 380.744 178.72 382.338C176.827 387.221 169.852 388.317 163.275 388.018C152.264 387.52 141.054 384.979 130.242 382.288C128.448 385.079 130.242 387.121 133.132 387.919C144.79 389.662 156.648 391.356 168.706 392.851C169.005 392.851 170.4 396.588 167.46 397.385C156.499 400.225 138.363 394.346 128.399 389.762L126.206 389.912C127.053 386.623 126.605 384.63 124.762 383.933C123.815 383.086 123.018 382.837 122.22 383.734C123.067 378.253 121.872 374.018 118.683 370.979C117.986 370.431 116.939 370.68 116.092 370.979C114.896 368.737 114 368.786 112.455 370.53L108.32 371.826C106.576 370.032 104.583 371.028 104.882 373.569C103.288 376.359 105.579 377.107 111.708 375.811C113.451 376.708 114.797 377.206 116.939 377.007C117.637 386.075 116.84 394.844 114.797 403.563L116.142 405.506C118.882 406.005 117.687 404.111 117.836 402.517C118.085 400.325 118.733 389.612 122.171 396.887C122.918 396.937 124.562 395.492 124.363 395.293L144.641 399.478C144.84 400.225 145.139 400.225 145.488 399.478C150.969 400.275 156.449 401.122 161.88 402.069L163.076 403.962L172.99 404.859C175.88 411.884 180.314 412.98 187.14 410.788C189.034 410.19 192.92 408.595 192.123 406.403C195.959 400.823 208.265 402.168 206.97 409.94C205.625 416.766 204.678 423.642 204.23 430.567L202.336 431.165C199.845 438.091 194.165 457.92 206.92 456.226C207.468 463.949 207.02 471.821 206.272 479.594C195.61 480.441 184.799 480.889 174.087 480.142L170.499 481.537C154.954 479.992 139.758 476.455 125.011 470.974L123.018 472.07C125.658 475.309 130.392 475.857 134.228 476.405C134.856 479.175 130.083 480.217 129.993 482.135C129.644 483.779 132.883 488.811 134.228 490.206C135.374 488.113 135.025 485.921 133.829 483.43C145.538 486.718 157.446 488.811 169.603 489.757C168.457 491.352 167.311 492.946 166.165 494.541C163.424 494.092 157.645 495.139 156.648 497.978C162.428 498.626 166.264 495.587 172.094 497.032C173.289 489.807 176.769 486.114 168.15 485.267C160.128 484.47 149.571 482.533 141.5 480.341C138.261 479.444 136.869 482.035 137.616 478.149C141.402 477.551 144.392 479.444 147.929 480.341C159.239 483.181 171.396 483.231 183.702 483.38C188.087 483.38 189.532 485.921 189.881 485.921C191.525 485.921 192.073 483.729 194.215 483.33C197.055 482.782 208.514 483.28 209.212 481.038C209.511 480.042 210.059 474.113 210.209 472.519C210.458 469.131 209.411 454.632 211.055 453.486C211.354 453.287 218.579 451.095 217.981 453.486C217.034 455.18 215.119 452.969 213.973 454.015C213.375 454.563 211.481 458.594 211.481 459.192L211.952 478.547C211.952 481.387 226.6 478.697 228.344 476.405C226.152 475.907 223.462 476.156 220.223 477.152C216.785 478.248 214.728 477.765 213.781 475.872C214.429 472.285 214.593 468.533 214.493 464.497C215.839 463.102 216.237 457.671 213.646 456.924C215.739 457.273 216.337 459.714 215.54 464.148C220.821 466.988 235.17 462.604 236.864 457.123C237.263 455.878 235.519 445.664 235.12 443.571C232.38 429.72 228.544 415.77 222.864 402.467L223.163 400.673C226.152 400.175 228.444 399.179 230.038 397.734C239.156 395.591 233.277 392.552 226.85 392.552C217.682 397.186 219.376 389.862 227.248 387.719C228.444 386.175 228.942 384.979 226.999 384.58C218.629 387.271 211.305 386.474 204.977 382.189C207.07 381.093 206.522 379.548 204.13 379.598C198.899 375.612 198.6 371.925 203.183 368.587L204.195 366.97L205.774 366.395C211.105 359.42 215.739 351.697 220.024 343.675C225.106 337.049 231.184 332.066 237.711 327.134C240.551 316.671 244.537 319.96 249.918 326.038C250.964 327.832 252.11 328.679 253.356 328.629C255.349 326.237 253.505 322.7 255.946 321.703C255.797 321.504 255.697 320.557 255.099 319.959C250.765 323.397 241.498 318.365 239.554 313.931H237.362C236.067 316.671 234.473 318.365 232.629 319.112C233.675 316.372 233.376 315.525 231.782 316.522C229.291 316.173 227.946 320.458 230.038 321.703C230.038 325.988 229.191 327.433 227.447 326.038C224.657 324.444 222.216 329.476 222.266 332.067C219.974 331.718 219.725 332.166 221.419 333.81C221.12 335.704 218.38 336.899 216.237 335.554L214.244 335.455L205.077 346.366C198.799 350.85 188.137 339.191 184.649 334.358L182.556 334.707C181.012 331.718 177.475 329.227 179.119 333.86L178.172 335.654C180.215 338.843 174.037 332.764 173.04 331.419L170.499 331.269C171.097 328.778 170.4 328.13 167.909 328.678C166.563 326.038 163.474 321.604 164.471 326.935L163.474 327.981C161.83 325.689 159.339 324.294 156.698 323.497C156.698 319.611 152.812 314.529 148.926 313.981C148.178 310.991 146.335 310.194 143.395 311.589C141.751 307.653 140.007 304.116 135.972 302.721C133.58 304.215 135.723 305.86 137.715 307.055V307.105Z" fill="#121212"/>
<path d="M21.2781 94.5234C4.28836 97.0146 -0.145859 109.421 0.00361633 125.065C0.103256 133.884 5.63362 156.454 13.0573 161.934C19.1856 166.419 21.0789 164.376 26.9082 164.426C36.9725 164.426 41.1576 163.878 50.8233 159.942C52.7665 159.144 57.5994 154.71 58.8949 156.753C59.2436 157.301 58.2969 167.016 58.3966 169.308C58.8948 179.373 60.9873 190.234 63.1297 200C63.8771 203.437 67.0161 209.765 66.0694 213.203C65.92 213.751 59.4399 217.038 57.4998 221.075C55.681 224.859 54.2632 226.625 53.9622 232.335C53.9622 238.129 54.9241 244.395 55.4136 245.606C55.903 246.817 55.9887 247.14 56.7133 249.163C57.3308 250.887 57.4998 250.67 58.5461 252.862C62.0337 260.186 76.7686 269.458 84.9397 269.956C88.0287 270.155 90.134 269.752 92.9241 271.147C93.9206 271.646 97.0595 276.678 98.1058 278.123C99.9991 280.564 102.894 283.65 104.688 285.294C106.482 286.938 109.428 290.077 110.823 291.621C113.514 294.611 114.996 295.909 118.334 298.401C120.775 300.194 123.316 300.692 124.711 304.031C117.039 310.458 109.017 316.287 102.839 324.309C98.2552 330.238 94.8672 337.213 91.1803 343.341C92.4259 344.985 95.3157 343.989 97.209 344.188C99.9493 341.896 102.59 336.864 104.134 333.825L104.533 331.782C102.565 330.603 110.857 324.594 112.754 322.615L113.9 322.465C116.491 318.978 119.58 316.138 123.117 313.945L124.163 313.447C125.06 309.76 125.658 308.615 129.146 310.458C129.893 311.853 131.189 311.803 132.982 310.308L135.173 311.561C137.465 314.65 141.353 312.002 138.612 308.714C138.363 308.315 138.064 307.568 137.765 306.97C134.875 305.177 134.028 303.134 135.174 300.942C137.217 299.447 136.769 298.55 134.327 298.351C132.982 295.362 131.986 294.913 128.996 296.208L127.402 295.76C128.149 293.07 123.665 290.08 121.373 291.425C118.932 290.329 116.69 288.735 114.547 286.543L113.601 287.141C109.864 284.6 107.273 281.71 105.828 278.521C106.277 277.226 104.035 273.29 102.391 273.34L97.8566 269.752C96.9598 267.311 95.5648 265.916 93.7712 265.567C91.8281 264.62 88.9881 265.019 86.8457 265.567C83.4079 268.756 78.0768 266.763 76.4825 262.129C75.7351 260.485 72.8453 257.844 71.3008 258.691C68.1619 256.798 67.7633 255.553 66.9163 252.065L63.466 248.29C61.1243 237.578 58.7951 218.783 74.8382 218.883C79.3722 220.527 85.899 220.427 80.5679 215.345C80.3188 213.651 80.9665 211.708 82.5111 209.466L84.2549 205.131L80.8171 205.978C78.8242 204.035 75.6355 207.025 76.4825 209.416C73.244 210.662 72.2972 210.562 73.5926 209.117L72.1976 206.377C72.7955 201.743 71.0517 198.953 66.9163 198.106C69.0587 195.814 69.6566 191.38 68.6602 187.843C70.9521 185.949 69.6566 180.22 66.9163 179.223C65.2722 170.454 64.5746 161.586 64.7241 152.518C64.0266 151.322 62.9804 150.724 61.6849 150.276C61.1867 150.076 51.77 151.173 51.0227 151.472C43.0509 156.404 31.2927 160.49 21.6768 158.596C17.9899 160.141 16.2958 159.144 16.5947 155.507C13.3562 153.166 11.7121 149.827 11.5627 145.543C12.3598 145.393 12.31 145.094 11.5627 144.696C6.43086 145.194 8.87222 140.56 7.67645 137.77C6.97893 136.126 5.0358 136.873 4.23862 136.076C1.04993 132.738 5.83287 132.489 6.77951 130.895C7.47704 129.749 7.52695 116.894 7.17819 114.951C6.7796 112.809 3.69058 109.869 4.08916 107.079C4.18881 106.232 7.92552 103.542 8.72269 103.342C10.5662 102.894 11.463 104.937 12.8083 104.937C15.5485 104.986 20.7301 97.5627 21.0291 94.5733L21.2781 94.5234Z" fill="#101010"/>
<path d="M254.353 142.987L252.609 143.734C252.858 146.026 252.509 157.635 251.861 151.905C248.473 120.815 240.801 103.776 207.12 97.1492C182.308 92.2665 152.314 94.9071 128.847 103.626L127.303 103.228C120.627 106.068 110.413 111.448 107.473 118.424C106.228 121.463 106.128 124.353 105.68 127.442C105.231 132.324 105.331 137.257 105.68 142.14C106.676 151.058 108.071 160.275 110.014 168.895C113.203 172.681 118.235 168.347 120.378 165.457C153.66 151.706 199.846 142.638 235.47 151.008C238.459 151.706 254.153 157.784 255.15 156.838C254.851 153.051 255.598 148.816 255.15 145.079C255.05 143.933 254.303 143.236 254.253 142.987H254.353Z" fill="#202020"/>
<path d="M209.412 168.896C207.768 172.534 212.9 172.633 215.84 172.633L224.011 172.085C224.708 174.477 226.004 175.722 228.445 175.971C227.648 180.007 230.388 182 236.616 181.95C238.26 184.74 240.253 186.135 242.645 186.135C241 187.132 240.004 187.829 241.349 189.623L242.894 191.018C248.922 188.627 257.342 194.257 257.791 199.787L213.896 211.994C211.455 211.396 210.708 208.357 211.754 206.214L211.106 204.321C211.754 203.972 212.053 203.424 212.003 202.776C207.17 200.485 204.928 188.427 208.017 198.043C217.235 205.317 217.235 190.42 209.362 190.52L206.921 189.573C197.106 192.064 187.091 191.267 176.977 187.182L175.632 187.929L175.134 189.025C176.18 190.57 175.782 192.513 173.938 194.904C174.636 196.947 174.337 198.641 173.041 200.036C172.643 200.684 172.643 201.332 173.041 201.929L185.099 207.31C185.547 210.798 184.202 213.987 180.266 212.891C163.276 209.154 146.137 205.965 128.948 203.374C127.901 202.926 130.691 198.342 131.389 197.645L130.692 195.701C128.998 192.114 124.812 197.545 124.115 200.186C122.969 204.62 125.31 207.958 129.795 208.656C126.805 213.289 128.399 217.275 134.129 217.325C144.692 213.04 157.995 216.328 168.856 219.068C178.472 221.211 181.312 223.254 177.326 225.097C175.682 226.692 175.881 227.14 178.173 226.841C179.886 230.412 174.678 239.797 171.218 245.031L172.095 246.721C171.347 246.97 171.347 247.269 172.095 247.568C174.436 250.607 165.518 254.194 162.678 254.991C154.059 257.482 138.115 253.696 157.297 255.39L159.141 253.596C159.539 252.45 159.589 251.753 158.742 251.055C158.144 250.557 145.489 246.422 144.542 246.621C133.332 248.863 146.635 261.967 152.913 263.461C154.308 265.504 155.802 266.5 157.447 266.55C158.094 267.049 158.891 267.348 159.539 266.899C169.703 260.173 165.966 263.063 158.792 268.643C155.753 271.433 153.212 274.721 151.219 278.558C151.866 277.113 152.116 276.216 150.571 275.17C146.137 272.429 146.087 279.504 146.187 282.793C131.538 284.636 140.507 300.928 151.418 291.611L153.162 292.459L155.055 292.608C158.144 285.682 161.632 278.956 165.468 272.429L164.372 270.885C165.219 268.792 167.81 266.749 172.144 264.856L174.088 266.052C178.622 264.558 183.355 264.159 188.088 264.059L189.433 262.266C192.124 261.917 193.967 260.173 195.013 256.984L206.074 258.23C212.053 257.781 211.156 250.856 209.263 246.671L210.309 244.927C205.875 238.45 203.334 231.026 210.06 242.087C212.452 246.023 214.494 249.66 213.647 254.493C211.555 261.668 211.156 264.009 219.427 264.059C232.481 266.999 236.068 278.857 238.858 290.167C240.403 295.547 248.198 294.962 249.444 290.279C251.287 288.933 253.126 287.598 254.621 286.252C257.161 285.306 269.649 269.59 269.599 268.444C269.599 267.945 269.35 267.497 269.051 266.999C259.086 262.066 253.705 253.247 257.243 242.187C260.033 237.902 259.834 235.66 256.695 235.461C250.367 232.72 252.46 230.578 258.389 231.774C259.136 230.179 258.289 228.934 257.342 227.688H262.823C266.958 223.304 270.446 221.51 276.425 220.514C277.521 220.015 277.969 219.268 277.371 218.172C277.72 217.125 277.72 215.93 277.371 214.734C275.428 207.958 273.734 204.321 269.948 198.392C267.407 194.406 257.093 180.555 254.004 178.064C244.638 170.441 220.922 169.096 209.113 168.946L209.412 168.896Z" fill="#F8D3A8"/>
<path d="M134.278 181.848C130.84 183.592 127.352 185.087 123.715 186.183C123.317 189.073 121.324 191.564 117.637 193.706C104.733 215.429 103.736 245.822 113.103 269.239C115.744 275.915 124.313 285.581 130.79 288.122C129.296 291.161 137.516 295.545 140.257 296.741C144.392 298.535 150.57 300.279 153.659 295.844C154.606 294.499 154.805 293.403 153.261 292.456L153.659 287.275C150.869 287.773 150.869 291.211 148.129 292.108C146.983 292.506 141.452 292.805 141.153 292.506C140.954 292.307 140.506 286.677 140.655 286.428C141.652 284.883 146.784 285.232 147.68 283.936C148.577 282.641 147.68 279.453 148.228 277.559C148.677 276.015 149.972 275.915 150.67 275.217C153.809 275.915 158.492 269.438 157.595 266.598C154.307 258.278 142.648 260.52 142.2 249.708C142.698 248.811 143.196 248.512 144.193 248.462C149.225 248.014 155.453 250.256 159.339 253.644C161.88 257.679 172.542 251.452 172.293 247.615V246.768C173.128 244.179 172.041 244.094 168.855 246.768L166.763 246.021C160.385 249.11 152.314 249.309 148.527 242.533H146.385C141.004 241.537 139.559 232.419 139.41 227.387C140.954 218.917 139.26 215.629 134.278 217.472C130.79 213.636 140.406 213.088 140.307 211.842L137.716 209.7L142.05 207.956C137.118 207.557 136.022 207.458 133.829 211.842C133.431 212.639 133.929 216.874 130.89 214.832C128.299 213.088 133.232 207.657 132.584 207.109C125.16 207.956 123.466 201.28 128.748 196.746C129.694 195.948 130.641 195.998 130.84 195.849L132.733 196.546C139.161 189.671 145.339 191.215 153.41 194.404L171.646 201.429L173.14 200.183C175.532 199.287 187.29 205.066 187.838 204.518C187.24 199.436 173.888 200.333 175.93 194.753C177.026 191.763 180.414 192.71 175.781 188.076L175.332 186.582C186.742 190.368 197.952 193.706 209.561 188.973L209.461 190.717C213.896 193.706 216.038 202.276 209.461 197.194C208.465 196.447 210.408 193.109 206.472 192.461C203.981 192.062 205.475 196.646 205.177 197.892L211.255 204.568L212.999 205.415C221.568 199.785 231.234 195.65 240.8 191.913L241.498 189.87C242.295 187.628 248.324 187.08 244.786 184.838C243.939 184.29 241.996 185.037 240.651 184.24C239.604 183.642 239.604 181.45 237.412 180.553C236.067 180.005 230.587 179.706 230.337 179.457C229.939 179.009 230.786 176.368 229.889 175.122C229.341 174.325 227.547 174.475 226.8 173.827C225.803 172.98 226.152 171.286 225.803 170.937C224.159 169.343 211.753 173.279 209.511 169.094C186.443 168.795 155.303 172.282 134.378 182.048L134.278 181.848Z" fill="#F8D3A8"/>
<path d="M124.76 15.9877C117.038 15.041 109.564 15.8881 101.792 18.8775C97.706 20.8206 93.5708 22.1658 89.3856 22.9132C85.4495 24.9559 84.3534 25.4541 80.7661 28.0947C75.9332 31.0841 78.4244 36.5149 80.6166 40.6004L86.7947 49.7182C91.3784 55.398 93.8198 62.6722 96.311 69.5976C97.158 78.1673 99.2008 86.3383 102.439 94.1605L104.083 95.5057C103.784 103.577 110.461 110.303 112.902 99.7407L116.041 100.339C118.632 98.0965 121.272 97.1002 124.013 97.3493C128.995 94.9578 134.177 93.1641 139.508 92.068C141.7 91.2709 149.423 89.3775 149.821 88.0821C146.932 70.7934 143.992 52.4085 137.116 36.2159C134.625 30.3368 129.444 20.422 124.86 16.0874L124.76 15.9877Z" fill="#232323"/>
<path d="M45.2937 100.636L46.4397 101.732C36.8736 102.479 27.8057 104.273 19.1863 107.063C10.2181 109.006 9.42088 139.697 12.4601 142.985C12.5099 143.035 13.1077 141.491 11.613 142.985C11.7127 143.534 11.613 144.131 11.613 144.729C11.613 145.028 11.613 145.327 11.613 145.576C14.0544 157.883 22.1756 160.872 33.7346 158.48C38.8664 157.384 46.5891 154.644 50.7244 151.655C54.4113 152.302 56.3545 151.455 56.5538 149.064C60.739 146.423 65.0238 144.131 69.5079 142.138C72.3478 142.886 80.3196 135.861 81.1666 133.32C81.4157 132.523 81.5153 131.725 81.6149 130.878C84.0065 130.529 84.6043 127.889 82.4619 126.544C82.9601 121.163 83.2092 120.067 82.4619 114.437C81.8142 108.159 79.5224 103.525 75.5365 100.636C67.5647 99.8384 58.0983 99.6888 50.027 99.7387C48.5821 99.7387 46.1905 99.1907 45.2937 100.636Z" fill="#222222"/>
<path d="M120.426 187.029L116.64 188.922C113.601 190.168 112.305 192.709 112.654 196.496L110.811 197.442C106.127 208.055 101.643 218.667 97.3584 229.429L98.853 230.625C96.0131 232.119 96.1625 242.782 98.853 244.426C96.2124 243.977 94.2693 241.337 93.1233 236.504L91.0806 236.205L89.4862 235.557C84.5038 228.532 72.1975 221.059 65.5212 229.628C66.4678 227.486 66.3681 225.941 65.1724 224.945C62.3324 224.845 61.5353 232.269 61.5353 235.159C61.5353 239.593 62.6812 245.572 65.1724 249.159C66.2187 250.903 67.0159 252.896 67.6138 255.138L69.4098 255.383C73.9936 260.714 80.5678 265.75 88.0413 265.202L99.3014 264.953C103.487 275.665 111.259 285.58 121.323 291.509C123.217 293.103 125.558 294.349 127.352 295.844C130.441 297.637 131.139 295.545 129.594 289.665L130.84 288.071C129.096 286.477 117.985 274.818 116.989 273.024C105.181 252.198 106.725 217.372 117.537 196.595C118.832 194.054 123.964 191.912 125.259 188.723C125.758 187.528 124.711 186.282 124.811 186.182C124.96 186.033 127.601 185.834 128.747 185.335C130.889 184.439 133.082 182.446 134.327 181.848C129.544 183.093 125.11 185.286 120.526 187.029H120.426Z" fill="#F0BB87"/>
<path d="M132.534 9.95808C131.787 10.1075 130.791 9.85843 129.944 9.95808C129.196 13.5454 133.033 14.0935 134.577 16.0864C142.649 26.4497 146.037 41.6458 150.421 53.7529L156.699 86.7856C156.699 86.7856 174.285 84.1687 174.735 84.145C175.184 84.1213 173.327 78.8002 173.14 77.7179C172.954 76.6355 170.699 54.6995 167.809 43.2899C166.315 37.3609 158.692 15.9368 154.955 12.0506C153.909 10.9545 152.862 11.1538 152.314 10.805C152.613 12.1004 151.965 11.7516 150.521 10.805L142.399 12.3497C137.816 13.6451 134.477 12.8478 132.435 9.9082L132.534 9.95808Z" fill="#202020"/>
<path d="M161.928 10.8066C163.323 15.2409 163.423 13.1484 165.416 15.5399C171.993 23.5615 179.217 63.5198 180.861 75.2781C181.11 76.9222 180.413 83.3993 182.256 83.3993H200.84C201.588 71.4915 198.847 59.8828 196.605 48.3238C194.363 36.7648 193.367 29.4407 188.086 18.8283C187.288 17.2838 187.338 15.1413 186.192 13.7961C185.246 12.6501 184.05 12.8993 183.552 12.5505L181.758 14.1947C175.082 13.547 168.057 12.2017 161.928 10.8066Z" fill="#212121"/>
<path d="M247.425 82.5011C244.286 83.2484 239.553 82.6008 238.806 86.4372C237.46 93.2132 242.094 91.818 246.13 94.6081C251.411 98.2951 255.297 104.523 256.842 110.701C258.037 115.484 257.539 126.395 262.571 128.289C264.365 128.986 263.667 126.395 264.714 125.249C267.354 122.36 273.184 128.04 276.721 127.591C277.518 128.438 275.027 131.079 280.508 129.783C284.942 128.737 283.099 126.146 283.896 125C284.045 124.751 288.629 123.107 288.928 121.612C289.476 118.723 289.326 107.712 288.978 104.473C288.878 103.277 288.131 102.63 288.081 102.381L286.935 101.633C283.796 82.9495 270.792 80.4085 254.051 83.5473C250.414 84.1452 248.272 83.7965 247.475 82.4512L247.425 82.5011Z" fill="#1C1C1C"/>
<path d="M96.2625 69.5476C94.3692 72.2878 97.0098 76.3735 97.1094 79.4625C97.1094 80.3095 96.7108 84.1458 95.4154 84.1956C93.2232 78.2168 91.4794 71.8893 88.8886 66.06C88.0416 64.1169 82.1126 51.7607 81.6144 51.113C80.7176 49.9671 79.1232 50.0666 78.1766 49.1698C76.8314 47.9242 73.5928 44.1377 72.3472 43.7391C64.774 41.497 62.8808 51.6111 61.8345 57.0917C59.6921 68.2522 62.0836 74.9783 63.2296 85.7402C63.5784 89.1281 60.7882 91.5696 66.4182 93.7618C70.4041 95.3063 74.0412 93.6622 77.9274 96.1035C78.4754 96.4523 83.4578 101.086 83.7568 101.534C84.1554 102.132 86.6465 111.947 86.7959 113.193C87.2443 116.78 86.7959 121.115 86.7959 124.802C85.6002 125.15 85.2515 126.545 85.7497 128.987C84.5539 131.03 84.0557 132.823 84.2052 134.318C81.0165 135.514 79.7211 137.158 80.2194 139.3L78.1766 142.09C76.8812 140.496 76.1338 140.895 76.4327 142.937C73.7921 141.991 67.3151 147.073 65.7208 149.564C64.1264 152.055 64.1762 153.101 64.7741 155.941C64.5748 163.215 65.2723 172.234 66.9165 179.259C67.2652 181.999 68.1621 185.038 68.6603 187.878C69.8063 191.117 68.7599 194.156 67.6638 196.896C71.9984 200.284 72.2475 203.473 72.3472 209.003C73.3437 210.946 74.8384 211.046 76.4327 209.501C77.6285 208.455 79.4719 206.96 80.7674 206.064C83.6571 203.971 85.6002 204.021 86.6465 203.273C87.2942 202.825 92.2267 195.85 95.515 193.558C97.6076 192.113 108.967 187.23 109.216 186.483C110.163 183.693 106.925 175.074 102.341 177.515C102.441 174.077 105.031 173.23 104.982 169.344C104.732 158.781 98.9031 149.913 99.7999 138.204C100.497 128.788 101.743 119.072 102.042 109.556C102.092 107.363 100.996 104.773 101.494 102.381C102.839 103.776 104.334 104.175 105.828 104.972L106.576 103.926C104.782 101.484 104.334 98.4452 104.085 95.4558C101.245 86.936 99.3514 78.0674 96.3122 69.5476H96.2625Z" fill="#111111"/>
<path d="M119.579 169.743C113.8 166.355 109.764 177.266 113.451 180.853C114.647 181.999 123.017 179.159 124.761 177.515C148.427 169.444 170.599 162.219 196.008 161.073C210.108 160.426 235.219 161.92 248.522 166.504C251.263 167.451 251.063 168.497 252.658 169.743L254.401 168.995C253.853 166.305 253.554 163.664 253.505 161.123C252.707 160.226 252.807 159.928 251.462 159.33C237.212 153.152 211.603 150.86 196.108 151.607C174.136 152.653 139.459 160.326 119.629 169.743H119.579Z" fill="#1B1B1B"/>
<path d="M127.352 103.227C127.501 107.761 130.391 103.327 130.59 103.277C159.089 95.8035 208.165 90.9705 233.027 109.405C243.44 117.128 247.675 133.769 249.917 146.075C250.565 149.712 248.522 156.289 254.302 155.94V142.986C251.063 122.708 253.704 103.825 230.984 95.9031C201.14 85.49 156.05 90.9706 127.302 103.277L127.352 103.227Z" fill="#3A3A3A"/>
<path d="M196.456 20.3217C200.043 27.0977 202.684 39.5535 204.029 47.7245C205.125 54.4009 205.922 62.273 206.819 69.1487C207.467 74.0812 206.221 79.1132 208.663 84.1454L231.88 88.5797C231.581 85.69 232.279 82.2522 231.93 79.4123C231.781 78.1667 231.033 77.4691 231.033 77.3196L229.339 78.1168C227.147 63.0702 223.261 41.7956 212.748 30.3362C209.111 26.4002 201.588 19.8234 196.456 20.3217Z" fill="#1F1F1F"/>
<path d="M277.286 217.846C277.139 220.191 274.737 221.538 270.031 221.838L267.874 222.835C264.344 226.328 260.815 229.172 257.285 231.317C250.667 230.519 251.844 233.064 256.844 235.109C258.756 237.953 256.403 238.951 255.716 241.346C252.236 254.368 257.334 262.551 268.707 268.438L254.621 285.677C254.964 286.176 255.226 285.802 256.01 285.303C276.06 266.942 284.787 240.997 277.237 214.354C277.335 215.501 277.139 216.699 277.237 217.796L277.286 217.846Z" fill="#F5BE8B"/>
<path d="M253.854 286.827C250.106 289.112 245.146 295.011 241.799 291.66C240.105 290.265 238.112 280.001 236.667 276.912C233.229 269.488 227.948 264.705 220.076 262.413C217.983 261.816 215.243 263.061 213.798 260.919C215.642 257.331 216.14 252.897 215.492 248.911C214.944 245.623 206.275 230.477 202.588 233.765C202.04 234.263 208.617 244.577 209.513 246.719C212.553 254.84 211.158 257.082 203.086 259.573C198.054 259.573 193.62 260.47 189.634 262.264C182.908 262.862 179.121 262.513 172.345 264.855C168.558 266.399 165.968 268.442 164.573 270.883C164.274 272.079 154.708 290.066 153.362 292.457C152.665 293.703 152.715 295.446 150.772 296.343C144.245 299.283 135.376 292.308 130.942 288.172L127.504 287.724C125.661 289.816 131.789 296.094 127.504 295.945C127.604 296.044 126.956 297.29 128.6 297.937C130.145 298.535 132.138 296.044 134.38 298.535L135.276 297.639C139.312 299.731 144.942 300.778 149.925 300.279C152.515 303.169 157.847 299.482 156.85 295.945C157.348 294.998 157.946 294.301 159.142 294.4C163.626 273.375 175.085 264.805 196.659 267.495L198.353 265.752C202.737 267.296 207.67 267.097 212.503 266.898C229.094 265.901 233.229 279.254 236.617 292.706L239.009 293.404C237.713 295.546 238.511 296.194 240.753 295.147C243.343 295.147 245.635 295.596 247.578 296.293C246.781 301.774 243.991 307.006 240.404 311.191L240.803 312.436C242.646 312.038 248.376 304.713 248.824 303.568C249.422 301.874 248.176 299.98 248.924 297.688C249.621 295.596 251.913 295.247 252.062 294.649C252.86 291.909 249.522 292.108 249.472 291.261C252.297 291.677 258.067 288.268 256.782 284.718C256.388 284.838 255.826 285.513 255.248 285.676C254.733 286.144 254.167 286.44 253.854 286.827Z" fill="#121212"/>
<path d="M107.473 193.058C103.986 195.251 100.498 197.642 97.1099 199.984C92.6756 202.226 88.341 204.817 85.0028 208.603C77.3798 213.237 80.2198 217.223 86.2484 221.308L93.2735 232.618C96.0636 234.561 97.5583 232.818 97.7576 227.437C101.594 216.974 106.028 206.66 110.911 196.696L110.114 194.752C113.153 191.414 110.712 191.663 107.523 193.009L107.473 193.058Z" fill="#8C8C8C"/>
<path d="M231.035 77.32C228.444 61.227 223.313 28.6425 209.362 19.0765C207.12 17.5319 194.066 11.2044 192.123 12.5496C193.169 15.2899 195.162 17.8807 196.458 20.322C203.284 24.6069 210.508 28.9914 214.942 35.9667C220.772 45.184 225.555 63.4691 227.498 74.3804C228.295 78.715 225.953 84.9928 230.985 87.733V77.3699L231.035 77.32Z" fill="#363636"/>
<path d="M45.2933 100.637C40.0619 100.736 34.9301 101.085 29.7485 101.484L18.5382 103.227C3.3919 110.003 8.12511 126.246 10.118 139.748C10.3672 141.292 11.5629 142.538 11.6127 142.987C13.9046 144.531 13.3067 143.834 13.3565 141.691C13.6056 131.826 10.6163 123.705 15.5986 113.69C20.0329 104.772 29.6986 106.217 37.9194 104.921C41.5067 104.324 45.2435 102.879 49.2294 102.43C52.6672 102.032 58.1478 103.825 59.9913 100.686C55.1086 100.736 50.176 100.587 45.2933 100.686V100.637Z" fill="#353535"/>
<path d="M247.425 82.5003C246.08 84.0946 247.027 84.8419 248.721 85.091C254.6 85.9879 261.475 84.1943 266.856 84.2441C268.5 84.2441 273.433 85.0911 275.027 85.5893C278.166 86.5858 281.704 91.7177 283.198 94.7071C284.693 97.6965 286.287 101.483 286.337 104.971L288.081 102.38C286.985 95.9525 283.248 83.2475 276.622 80.5571C270.992 78.2652 253.753 81.0554 247.475 82.5003H247.425Z" fill="#333333"/>
<path d="M183.502 12.5488C176.029 7.3672 169.901 8.01493 161.032 8.21422C160.484 9.60927 161.73 10.2569 161.879 10.805C162.876 12.0007 163.224 12.9475 164.918 13.3959C167.16 13.9439 184.449 16.6842 185.196 15.9867L183.453 12.5488H183.502Z" fill="#3A3A3A"/>
<path d="M89.336 22.9124C90.3324 24.3572 93.5212 23.2112 94.8664 22.8126C103.287 20.4709 110.112 17.332 119.13 17.0331C120.675 17.0331 125.309 19.4745 124.76 15.9868C116.888 8.46352 97.4074 18.6276 89.336 22.9124Z" fill="#333333"/>
<path d="M132.533 9.95712C129.942 17.7296 146.932 13.2952 151.117 12.5479C152.961 12.1991 154.107 13.4945 152.413 10.8539C151.566 10.256 150.818 9.11013 149.822 8.71154C145.537 7.16701 137.216 9.0603 132.583 9.95712H132.533Z" fill="#343434"/>
<path d="M86.7466 49.6682C85.4512 44.6361 81.6149 40.0523 80.0703 35.1696C80.0205 34.9703 79.4226 31.6322 79.4226 31.4329C79.323 29.5894 79.4226 29.4898 80.6682 28.0449C78.7749 29.44 71.2017 34.0237 72.0986 37.0131C72.547 38.4081 77.878 40.6502 79.3727 41.8958C81.1664 43.3407 85.2021 47.775 86.6968 49.6682H86.7466Z" fill="#151515"/>
<path d="M139.459 92.0179C134.327 90.573 127.252 96.5518 123.964 96.8507C122.669 96.9504 121.822 95.1567 120.177 95.5553C118.782 95.904 117.885 98.4451 116.59 98.5946C115.095 98.7939 111.957 96.7013 111.06 99.5412C110.611 100.986 111.707 104.424 108.768 103.876C105.828 103.328 104.882 97.9467 104.035 95.5054C103.636 99.1425 104.084 101.833 105.778 105.022C106.077 105.221 106.277 106.915 107.771 106.616C109.615 106.267 118.583 100.189 121.622 98.7938C127.003 96.3524 133.829 94.1104 139.509 92.0179H139.459Z" fill="#232323"/>
<path d="M240.501 294.998L241.099 297.24C247.875 294.898 241.348 306.806 239.953 307.603C238.11 302.322 230.038 303.02 234.423 307.105C234.472 311.141 233.924 315.177 232.679 319.212C232.928 319.86 233.825 321.255 234.373 320.956C235.768 318.515 237.86 316.522 239.554 314.031C239.903 313.532 240.103 312.835 240.401 312.287C244.039 306.557 247.327 301.575 248.174 294.6L240.401 294.998H240.501Z" fill="#B9B7B2"/>
<path d="M82.4597 126.544C82.36 127.441 81.6626 128.737 81.6128 130.879C79.8689 134.217 80.4169 138.153 84.2035 134.317C85.0007 133.071 86.4954 133.221 87.2925 130.032C88.0897 126.843 86.7943 125.897 86.7943 124.801C85.0006 123.206 84.2035 125.747 82.4597 126.544Z" fill="#101010"/>
<path d="M110.063 168.897C110.412 170.392 111.409 171.388 111.757 172.833C112.156 174.527 111.757 182.249 113.999 182.748C117.138 179.958 122.569 181.452 124.761 177.566C122.818 178.214 114.996 181.353 113.999 180.207C109.416 175.025 115.494 171.737 119.58 169.794C118.135 168.149 119.281 166.904 120.427 165.459C117.238 166.754 112.853 169.545 110.063 168.897Z" fill="#151515"/>
<path d="M107.472 193.058C109.515 193.058 110.462 192.46 110.063 194.802L112.654 196.546C114.996 191.962 115.394 189.471 120.426 187.029C114.298 189.421 113.352 189.421 107.472 193.058Z" fill="#151515"/>
<path d="M253.456 161.122C249.769 160.375 253.705 166.802 252.609 169.742C253.656 170.539 254.702 171.685 256.047 171.486C255.848 167.998 255.798 163.863 253.456 161.122Z" fill="#2D2D2D"/>
<path d="M75.536 100.637C77.3297 102.231 79.6215 105.22 80.319 107.512C81.0664 109.904 79.6714 113.192 82.4117 114.438C81.764 109.605 81.166 101.185 75.4862 100.637H75.536Z" fill="#222222"/>
<path d="M97.108 199.984C94.9157 200.532 89.4351 203.372 87.8906 204.618C87.0436 205.266 85.8978 207.558 85.0009 208.654C89.1363 205.963 92.9726 202.824 97.108 200.034V199.984Z" fill="#151515"/>
<path d="M110.064 194.803C107.871 197.593 99.0029 219.266 97.3089 223.949C96.2626 226.789 95.4654 229.778 95.3657 232.818L87.5933 220.312C81.6145 213.885 77.2799 218.07 85.0025 208.653C84.5541 208.952 83.2588 208.902 82.4118 209.5C82.1627 209.65 79.1732 213.237 79.1234 213.536C78.5754 216.177 83.9064 216.874 79.8209 218.618C78.077 219.365 75.7852 217.97 73.4933 218.17C70.8029 218.419 66.1194 220.412 62.9805 220.661C63.2795 226.241 60.7385 231.024 60.8382 236.704C60.888 240.54 62.4325 244.676 63.4788 248.363C64.0767 249.508 64.6248 249.758 65.2226 249.21C63.0304 242.035 59.8915 231.323 65.2226 225.045L67.2654 224.946C74.5895 215.38 87.1947 227.088 89.3371 235.558L91.1309 236.255C92.1772 238.398 94.6682 244.626 95.864 245.772C97.259 247.117 98.9033 244.626 98.9033 244.427V230.625C98.9033 222.006 112.007 206.511 112.704 196.497C112.804 195.351 112.704 194.205 112.704 193.059C112.605 192.909 110.313 194.504 110.114 194.803H110.064Z" fill="#111111"/>
<path d="M105.778 142.09V127.393C104.832 133.919 105.031 135.713 105.778 142.09Z" fill="#151515"/>
<path d="M18.5388 103.226C22.1261 102.778 26.7099 102.877 29.7491 101.482C24.6671 101.881 23.6706 100.885 18.5388 103.226Z" fill="#151515"/>
<path d="M120.676 513.823C118.883 515.816 117.836 520.649 120.477 522.592C121.523 523.389 128.997 525.531 130.492 525.631C136.969 526.03 146.335 524.236 152.563 521.944C154.158 521.346 165.667 515.816 166.065 515.168C166.863 513.923 165.816 508.641 166.215 506.648C158.941 509.239 146.036 516.862 138.364 515.069C135.972 514.521 129.694 510.186 128.598 510.086C127.403 509.937 121.424 513.026 120.676 513.823Z" fill="#222222"/>
<path d="M197.353 506.649C197.751 508.542 195.659 512.13 196.855 513.624C197.552 514.521 199.645 514.222 200.791 514.919C201.986 515.667 202.186 517.46 204.826 518.656C213.894 522.742 226.749 526.877 236.614 524.685C240.002 523.938 247.326 521.646 245.333 517.062C244.287 514.67 237.212 509.638 235.119 510.187C234.222 510.436 232.728 512.379 231.083 513.126C221.517 517.361 217.93 513.126 209.012 510.984C207.218 510.585 205.076 511.332 203.182 510.784C200.99 510.186 200.193 506.499 197.403 506.649H197.353Z" fill="#212121"/>
<path d="M238.808 352.895C239.555 362.012 242.196 371.23 239.506 380.347C228.146 383.436 216.288 388.767 205.127 382.24C206.373 384.333 212.053 387.173 214.245 387.372C217.633 387.721 223.512 384.433 227.598 385.678L220.025 389.764C217.982 389.664 219.527 394.398 220.025 394.946C222.466 397.786 225.456 394.547 227.199 394.298C229.342 393.999 232.082 395.693 234.473 395.195L230.139 397.786L230.338 398.583C233.427 397.636 236.516 397.088 239.605 396.889C240.801 398.134 241.349 401.871 241.798 403.764C245.783 420.754 251.961 447.409 252.211 464.25C252.211 465.944 251.962 466.442 250.865 467.688C251.513 467.488 252.659 467.837 253.456 467.688C254.453 466.542 251.314 449.552 250.865 446.513C248.823 431.416 246.082 416.27 242.694 401.124C241.897 397.536 241.748 393.351 237.015 394.248C239.406 392.853 240.353 387.223 238.659 385.728C237.911 385.08 231.783 385.977 230.139 385.629C229.74 383.337 230.537 384.134 232.032 383.685C233.876 383.088 239.854 382.49 240.502 380.696C241 379.351 242.246 368.888 242.246 367.094C242.246 363.009 239.805 354.339 238.808 350.254C238.061 350.652 238.061 351.549 238.808 352.845V352.895Z" fill="#1B1B1B"/>
<path fill-rule="evenodd" clip-rule="evenodd" d="M239.754 396.788C237.761 394.796 233.077 398.333 230.237 397.636L230.138 397.785L221.519 400.824C225.754 411.088 229.69 421.65 232.181 432.462C233.127 436.498 236.864 454.933 236.066 457.623C235.169 460.563 226.601 463.801 223.611 464.199C212.202 465.594 219.675 460.961 216.835 456.477C215.739 454.783 213.796 456.328 213.796 456.926V475.908C213.794 475.922 213.67 476.906 214.165 477.599C215.411 479.442 225.952 476.905 228.493 476.307C230.636 475.809 234.971 474.264 237.362 473.517C238.191 473.248 239.251 472.917 240.258 472.478C241.629 471.965 242.64 471.486 243.116 471.08C245.807 470.283 248.174 468.534 250.815 467.786L252.657 466.94C251.462 443.473 246.231 419.607 240.65 396.888H239.554L239.653 396.938C239.357 396.973 239.061 397.01 238.766 397.049L239.754 396.788Z" fill="#F6F6F6"/>
<path d="M219.774 496.284L218.578 494.64L204.179 494.441C210.407 492.199 216.784 490.306 223.261 488.811C225.97 488.245 222.813 496.037 228.443 490.206C229.439 488.811 234.223 482.633 230.486 481.636C229.639 481.437 215.14 483.928 213.546 484.377C212.101 484.825 208.713 487.615 207.268 487.615H193.467C192.919 487.615 192.122 489.01 192.172 489.758C192.271 497.48 214.592 500.32 219.824 496.284H219.774Z" fill="#909090"/>
<path d="M135.748 490.061C137.146 489.486 135.999 491.55 137.282 492.362C138.079 491.366 138.015 490.158 137.916 489.361L162.18 495.041C164.571 494.842 164.505 495.356 165.85 493.513C165.95 493.413 164.92 494.244 166.215 494.642C169.205 492.998 171.995 492.102 171.397 487.717C165.767 488.066 160.336 487.418 154.806 486.621C151.269 486.123 134.079 481.489 132.983 481.738C129.645 482.386 134.215 487.952 134.79 488.911L135.748 490.061Z" fill="#909090"/>
<path d="M199.896 502.364C204.928 506.798 215.341 511.083 222.167 511.631C226.103 511.93 234.573 511.083 230.139 506.2C223.463 498.926 221.32 502.712 213.299 503.211C208.765 503.51 204.331 502.962 199.896 502.314V502.364Z" fill="#F2F2F2"/>
<path d="M146.783 503.21C139.775 501.947 140.733 501.18 139.359 501.018C138.163 501.167 133.131 507.245 133.48 508.69C135.423 516.363 160.634 507.644 163.623 502.363C163.166 502.714 161.132 503.21 160.584 503.21C156.349 503.21 150.769 503.708 146.783 503.21Z" fill="#F4F4F4"/>
<path d="M166.215 494.541L165.85 493.895C165.274 493.703 165.702 493.911 164.316 493.703C159.533 493.802 136.969 486.022 135.125 487.666C135.125 489.011 136.072 490.904 136.869 492C140.058 496.584 151.318 498.527 156.748 498.029C159.937 497.73 163.475 496.086 166.265 494.591L166.215 494.541Z" fill="#CAC2BF"/>
<path d="M218.767 497.155C222.076 495.709 222.091 495.627 227.395 491.403C227.603 490.914 228.295 490.406 228.395 490.256C228.743 486.27 228.494 486.37 224.608 486.918C218.53 487.715 210.907 490.555 205.027 492.398C204.131 492.697 198.152 494.541 200.743 495.886C201.375 498.532 215.459 498.601 218.767 497.155Z" fill="#CAC2BF"/>
<path d="M144.184 399.827C141.459 398.959 123.673 393.849 122.831 394.666C122.93 395.688 121.764 396.549 121.615 397.111C120.823 400.075 121.444 404.937 120.8 408.054C117.877 422.31 113.715 436.158 112.427 450.823C112.229 453.02 112.526 455.268 112.427 457.465L123.624 396.353C130.56 397.681 137.248 399.061 144.184 399.878V399.827Z" fill="#1A1A1A"/>
<path d="M89.3376 363.257C84.2556 367.043 86.7467 366.694 86.7966 371.428C86.946 384.531 86.3482 385.528 92.9748 397.186C93.6723 398.382 93.3235 400.126 93.8715 401.023C94.5192 402.019 97.2097 402.418 97.9571 402.966C88.5405 390.66 85.3019 378.602 89.3376 363.207V363.257Z" fill="#121212"/>
<path d="M123.017 314.032C122.269 314.232 116.49 316.524 116.29 316.823C114.895 318.865 116.24 319.164 112.653 322.702C108.667 323.001 102.988 330.474 104.034 333.912C102.589 336.304 100.845 337.2 99.9982 338.496C98.9021 340.289 99.6991 341.784 97.1083 344.275C95.7631 345.62 93.0727 346.667 92.8236 347.414C92.5246 348.41 93.7703 351.051 93.6208 352.945H94.4677L96.8094 351.848C100.546 343.727 105.678 336.254 111.707 329.577L111.782 327.091C115.617 322.548 119.649 318.818 124.711 316.224V314.032C124.212 312.338 123.415 312.338 122.967 314.032H123.017Z" fill="#121212"/>
<path d="M243.988 339.939C243.639 341.334 242.842 347.163 242.244 347.711C240.201 349.754 240.101 341.134 237.062 342.53C237.162 345.967 236.315 350.103 238.806 352.893C238.756 352.046 238.806 351.149 238.806 350.302C238.308 348.309 237.66 346.366 237.959 344.273L240.998 349.455C243.141 349.953 245.134 342.43 244.884 340.835C246.216 340.958 245.239 344.473 245.732 345.17C247.974 342.978 246.13 335.405 243.988 339.988V339.939Z" fill="#223765"/>
<path d="M91.0797 358.074C91.5281 356.779 93.4712 355.583 93.6705 352.893C87.1934 349.604 89.9338 353.59 91.0797 358.074Z" fill="#121212"/>
<path d="M170.549 481.585C183.304 482.98 194.813 481.984 207.568 481.485C208.714 480.788 209.461 455.826 208.515 454.88C207.767 454.132 201.489 455.428 200.792 451.84C199.795 446.858 203.283 436.046 204.28 430.666C204.728 423.74 205.675 416.864 207.02 410.088C208.315 402.167 196.009 400.921 192.172 406.501C187.838 408.494 185.147 410.985 179.667 409.939C175.731 409.191 175.482 403.861 173.489 403.213C169.503 403.562 165.716 402.565 161.98 402.216C157.844 401.12 153.011 399.974 149.025 401.369C147.282 401.27 139.659 400.423 139.21 400.572C136.918 401.22 138.114 405.754 137.765 407.796C135.573 419.256 132.634 433.406 131.787 445.015C131.089 454.282 129.893 464.894 137.765 470.972C147.282 478.247 159.189 480.489 170.649 481.734L170.549 481.585Z" fill="#F6F6F6"/>
<path d="M238.807 293.303C236.266 290.114 229.34 291.908 228.942 296.342C228.942 298.534 228.443 299.78 227.596 300.229C226.052 298.535 225.404 298.833 225.853 301.076L223.062 305.36C220.721 305.908 219.027 307.054 218.08 308.848C211.802 310.99 208.913 307.802 206.77 302.172C205.575 287.922 194.215 288.869 193.268 302.57C189.531 316.122 173.239 310.99 168.556 301.026H166.264C165.068 297.538 163.623 296.392 161.83 297.588C160.584 293.104 159.687 290.314 156.748 295.844C153.459 298.684 155.153 298.883 149.822 300.179C145.836 300.826 141.801 299.979 138.213 298.186C133.978 299.332 138.363 305.709 141.402 306.656L141.253 307.851C142.548 312.086 144.84 312.983 148.128 310.542C150.37 312.336 153.36 313.282 157.146 313.232C155.552 318.414 159.289 323.994 161.979 317.418C163.075 321.603 165.068 325.34 168.008 328.628C168.855 329.525 169.702 330.372 170.598 331.219C174.335 333.51 177.175 331.368 176.278 327.034C178.072 325.539 179.467 326.286 180.115 329.475C178.869 330.521 179.766 332.265 182.705 334.656C186.99 338.692 188.435 342.728 194.215 346.066C197.952 348.209 202.037 350.6 205.973 347.959C207.418 346.963 215.39 337.347 216.386 335.553C218.778 336.051 219.724 334.956 218.13 332.963C221.07 333.61 221.767 326.087 220.721 324.343L221.618 319.61C223.063 316.521 225.753 319.709 224.109 323.446C224.458 324.841 228.842 324.293 229.34 322.599C230.586 323.695 231.034 323.197 230.187 321.752C230.835 320.307 231.433 318.165 231.931 316.571C234.472 315.773 235.269 309.745 234.522 307.054C234.721 306.556 233.924 304.563 235.817 305.31C238.159 306.257 238.956 310.542 239.255 310.492C241.995 309.894 247.875 297.09 246.629 295.794C244.088 295.794 242.743 296.243 240.6 294.947C240.501 294.898 238.956 293.303 238.857 293.203L238.807 293.303Z" fill="#B9B7B2"/>
<path d="M158.441 336.45C158.192 340.137 155.701 337.048 154.206 338.294C153.708 338.693 153.16 343.924 153.259 345.12L150.668 342.529C150.071 344.123 150.918 346.166 153.259 348.558C151.715 351.099 154.704 355.533 157.594 355.483L167.11 369.284C167.359 370.031 167.658 370.031 167.957 369.284C170.697 372.722 173.587 375.562 176.577 377.903C182.157 374.067 180.363 381.092 183.851 382.388C185.744 383.085 198.648 385.227 199.944 384.43C203.232 382.387 195.111 375.91 193.417 374.465C192.62 373.768 191.324 373.718 191.274 373.619C191.075 373.32 192.819 371.825 193.018 370.629C193.417 368.437 191.872 369.683 191.274 369.334C189.879 369.334 188.933 370.28 188.385 372.174C186.641 373.469 172.79 354.536 171.744 352.294L169.651 352.045L166.512 346.764C165.914 343.426 162.477 335.504 158.391 336.5L158.441 336.45Z" fill="#181818"/>
<path d="M215.489 396.936C213.844 398.68 215.239 408.197 215.887 410.787C219.325 424.24 219.873 435.201 220.72 449.201C220.82 450.995 219.624 452.788 219.773 454.333C219.923 455.878 222.115 457.721 221.517 459.913C224.507 460.112 229.04 460.461 231.083 457.821C231.233 457.621 232.478 453.536 232.478 453.287C232.877 444.617 226.848 422.645 223.809 414.026C221.667 407.947 219.126 404.858 217.182 398.182C216.884 397.235 216.834 395.442 215.439 396.936H215.489Z" fill="#202020"/>
<path d="M124.76 383.982C125.059 386.921 123.963 389.761 124.76 392.601C130.689 389.163 132.532 394.594 135.572 395.192C141.949 396.388 150.469 398.68 156.348 399.477C162.775 400.274 175.48 400.573 169.452 391.505C161.131 390.16 152.512 389.761 144.241 388.266C142.597 387.968 141.401 386.971 139.807 386.672C136.917 386.074 131.287 387.868 130.789 383.184C137.315 384.43 143.743 386.523 150.319 387.42C155.052 388.017 168.405 389.412 172.391 388.814C174.135 388.565 174.035 386.822 174.882 386.323C176.178 385.526 179.665 385.526 180.014 383.583C180.064 383.284 177.124 378.8 176.576 378.053C174.434 375.113 170.647 371.925 167.957 369.433L167.06 371.077L175.829 382.587C171.993 385.925 166.412 386.622 161.679 385.377L160.184 386.722C148.027 386.274 137.465 382.935 126.504 378.651C125.358 370.529 125.607 362.209 127.201 353.639L125.607 352.145C121.322 353.54 120.973 363.853 120.973 368.237C120.973 371.924 121.97 378.949 122.817 382.587L124.71 384.081L124.76 383.982Z" fill="#1A1A1A"/>
<path d="M204.379 449.551C204.379 449.551 209.311 451.694 210.109 451.743C217.881 452.092 215.49 450.448 215.39 445.814C215.241 437.444 214.792 427.28 213.646 419.059C213.497 418.063 211.255 411.686 210.657 411.686C206.97 415.123 209.062 420.554 208.415 424.988C207.867 428.625 202.685 447.857 204.329 449.551H204.379Z" fill="#1E1E1E"/>
<path d="M196.458 396.937C196.109 396.389 190.579 395.691 194.316 392.552C195.611 391.506 197.953 391.954 195.661 389.513C193.618 387.371 190.23 388.516 187.49 388.217C184.351 387.869 181.063 386.075 177.475 388.716C174.785 390.659 175.682 411.535 187.34 405.456C188.686 404.759 197.305 398.132 196.508 396.937H196.458Z" fill="#1F1F1F"/>
<path d="M169.703 352.045C171.845 356.131 176.23 361.761 179.219 365.398C182.607 369.534 189.333 379.797 191.276 369.334C187.54 367.192 183.903 361.512 180.913 358.124C178.173 354.935 175.682 351.547 173.44 348.01C167.013 339.789 163.375 344.671 169.703 352.045Z" fill="#EEEEEE"/>
<path d="M125.609 352.045C128.299 353.341 128.15 343.077 127.751 342.729C125.708 344.323 123.516 345.718 121.274 346.864C119.53 339.739 117.188 347.312 120.427 349.903C119.431 352.942 119.68 359.469 120.427 362.857C119.63 363.754 118.036 369.185 117.886 370.48C117.886 370.63 118.235 370.879 118.683 371.078C118.434 374.117 120.128 375.014 120.477 377.505C120.726 379.349 120.028 386.972 120.477 387.47L124.811 384.032C123.666 372.025 120.228 364.153 125.659 352.045H125.609Z" fill="#101010"/>
<path d="M200.891 388.417C199.894 390.061 200.99 399.428 204.877 400.275C210.507 401.47 213.596 392.303 212.5 390.061C210.955 386.922 201.937 386.723 200.891 388.417Z" fill="#1D1D1D"/>
<path d="M148.077 310.543C147.031 310.643 147.33 311.789 148.924 313.981C151.565 317.12 153.907 320.458 156.697 323.497C161.729 326.536 163.473 326.237 161.878 322.65C163.672 322.052 163.672 320.308 161.878 317.468C159.886 316.97 159.786 320.956 158.839 318.365C157.893 315.774 158.74 314.031 159.288 311.44C155.501 311.29 151.814 310.692 148.077 310.593V310.543Z" fill="#B9B7B2"/>
<path d="M180.912 358.074C175.93 350.8 168.407 336.65 159.737 333.91C157.794 333.312 158.541 335.355 158.442 336.501C163.125 340.536 164.969 347.811 169.652 352.046C169.104 351.049 166.663 345.668 167.061 345.12C173.538 346.715 174.485 351.597 178.321 355.932C179.168 356.928 180.364 357.476 180.912 358.074Z" fill="#C2C2C2"/>
<path d="M120.428 338.194C120.328 336.301 120.577 333.959 117.787 336.002C115.645 337.547 118.236 351.198 117.837 355.084C117.638 357.028 113.452 369.234 112.506 369.982C112.207 370.181 109.865 370.978 108.371 371.925C111.061 371.427 113.353 371.028 116.143 371.078C116.591 371.227 117.189 371.277 117.588 370.978C120.527 368.337 120.029 354.287 119.73 350.251C118.933 346.664 118.833 341.433 120.478 338.294L120.428 338.194Z" fill="#F6F6F6"/>
<path d="M134.276 298.485C134.426 299.133 134.874 300.329 135.123 301.076C133.479 302.272 133.928 303.119 135.97 302.82L146.782 316.621L146.334 311.439C147.181 311.639 148.227 313.183 148.924 314.03L148.078 310.592C147.031 310.592 146.184 308.749 143.793 311.439C141.152 308.4 143.942 306.955 143.793 305.859C143.643 304.912 135.422 305.012 138.611 299.332C143.294 300.777 145.038 301.325 149.821 300.179C143.992 300.478 138.113 298.037 133.828 294.15C132.831 295.047 133.928 297.289 134.276 298.485Z" fill="#B9B7B2"/>
<path d="M148.079 338.195C147.482 334.259 153.062 338.095 154.108 337.348C153.51 331.369 150.72 324.742 145.489 332.166C142.599 328.629 141.652 323.846 139.609 320.308C139.011 319.212 137.866 318.664 137.716 318.365C139.211 324.892 143.147 331.07 146.485 336.85C146.933 337.647 147.98 338.045 148.079 338.245V338.195Z" fill="#181818"/>
<path d="M180.065 329.575C180.862 327.482 179.417 324.742 177.125 325.29C175.431 325.688 176.128 328.528 175.58 329.375C175.132 330.023 171.644 331.02 170.598 331.318C174.036 334.706 177.324 339.789 182.705 339.539C181.808 337.646 180.214 335.653 179.267 333.909C178.819 331.269 179.068 329.824 180.114 329.575H180.065Z" fill="#B9B7B2"/>
<path d="M177.474 344.274C176.377 345.37 185.445 355.783 186.541 355.484C187.339 355.285 190.278 350.552 189.531 349.456C189.132 348.908 179.118 345.171 177.474 344.225V344.274Z" fill="#F0BB87"/>
<path d="M192.123 406.453C194.066 405.556 195.86 403.962 197.704 403.762C199.148 403.613 204.878 404.56 205.526 405.506C207.718 408.645 202.736 425.735 204.181 430.617C205.077 425.735 205.526 422.446 206.124 417.414C206.572 413.677 210.458 406.503 205.277 404.061C200.095 401.62 195.113 400.574 192.123 406.403V406.453Z" fill="#1E1E1E"/>
<path d="M193.219 354.04C191.126 354.838 186.543 362.51 191.674 363.955C193.618 364.254 197.803 357.179 198.151 355.136C197.005 353.492 194.913 353.443 193.169 354.09L193.219 354.04Z" fill="#DCDCDC"/>
<path d="M220.671 324.394L221.966 324.244C219.774 329.227 219.923 331.867 222.414 332.166C223.61 330.522 227.297 326.586 227.596 326.138C230.286 327.383 230.137 324.294 229.34 322.7C228.393 321.853 225.105 322.899 225.005 322.7C224.357 321.404 226.3 316.87 221.966 317.518L220.671 324.444V324.394Z" fill="#8D8D8D"/>
<path d="M222.366 332.167C220.124 330.074 225.256 320.259 224.11 319.213C223.911 319.013 222.217 319.312 221.519 319.213C222.067 321.554 221.27 322.7 220.672 324.394C219.875 326.686 218.679 331.719 218.081 333.014C217.035 336.053 220.921 336.9 221.519 333.861C221.868 333.363 222.018 332.615 222.366 332.117V332.167Z" fill="#404040"/>
<path d="M230.137 321.802C230.038 322.051 229.49 322.35 229.29 322.649C228.643 323.795 228.045 325.389 227.547 326.087C229.191 332.165 233.974 329.275 230.137 324.343C233.227 324.642 233.824 327.382 236.166 323.894C234.422 320.955 232.579 322.4 230.137 321.752V321.802Z" fill="#101010"/>
<path d="M161.931 322.651C162.628 325.939 159.39 322.651 156.749 323.498C158.891 325.839 170.251 337.099 164.521 326.936C164.82 324.693 164.721 322.202 161.931 322.601V322.651Z" fill="#B9B7B2"/>
<path d="M231.88 316.62C233.126 317.118 232.478 318.563 232.727 319.211C234.322 316.719 238.108 309.047 234.471 307.104C232.727 310.99 232.927 313.331 231.88 316.62Z" fill="#3C3C3C"/>
<path d="M135.123 311.441C135.173 311.739 135.023 312.038 135.123 312.287C137.216 313.832 138.412 317.967 141.251 314.48C143.494 311.739 139.358 310.045 138.561 308.85C138.661 311.092 137.116 311.69 135.123 311.441Z" fill="#101010"/>
<path d="M216.336 335.604C215.689 337.697 218.927 338.395 220.123 338.245C220.771 338.145 220.721 336.8 221.269 336.451C223.062 335.255 227.696 334.658 221.518 333.861C220.97 333.811 219.375 334.508 218.08 333.014C218.03 333.163 216.884 334.608 216.336 335.604Z" fill="#101010"/>
<path d="M161.93 322.649C162.18 323.795 163.923 325.887 164.521 326.983L164.97 325.239C165.817 326.634 166.913 327.581 168.009 328.677C167.511 326.535 163.425 317.816 161.98 317.467C162.229 319.011 161.632 321.254 161.98 322.649H161.93Z" fill="#373737"/>
<path d="M145.486 399.527L148.924 401.271C153.159 401.52 157.693 401.72 161.878 402.118C157.743 399.229 150.469 400.075 145.486 399.527Z" fill="#1A1A1A"/>
<path d="M180.065 329.576C179.218 328.43 178.321 326.686 176.627 326.985C176.328 327.284 177.324 331.618 177.723 332.416C178.221 333.512 179.168 333.761 179.218 333.911L179.666 332.167C180.413 333.313 181.808 333.911 182.705 334.758C182.257 333.163 181.111 330.871 180.114 329.576H180.065Z" fill="#535353"/>
<path d="M204.228 379.647C203.331 378.152 201.078 373.695 201.128 373.296C201.177 372.898 204.935 369.376 204.387 366.586C199.903 372.465 195.709 372.871 204.228 379.647Z" fill="#2B4274"/>
<path d="M137.716 307.106C136.819 305.561 136.62 304.266 135.972 302.771C135.723 302.173 135.324 301.625 135.125 301.027C130.093 303.519 133.879 306.408 137.716 307.056V307.106Z" fill="#101010"/>
<path d="M69.457 142.09C64.9729 144.083 60.688 146.375 56.5029 149.016C52.7661 150.361 48.282 152.553 45.0933 153.599C41.6555 154.745 28.552 158.781 25.8117 158.582C22.3739 158.382 16.993 153.849 15.0001 151.158C13.6549 149.364 12.7488 142.734 10.3572 141.688C10.3572 143.781 10.4162 150.261 10.8148 151.806C11.2632 153.45 14.2526 154.895 15.0498 156.29C15.847 157.685 14.5019 160.176 17.3418 160.923C23.4701 159.379 30.794 161.073 36.8226 159.08C38.5166 158.532 40.0611 156.639 41.8049 156.24C43.3993 155.891 44.8441 156.938 46.7873 156.19C48.3318 155.592 49.1788 152.005 51.0223 151.656C52.2679 151.457 53.4139 153.002 54.51 153.101C56.6524 153.301 62.9799 148.468 64.2753 156.34C64.7237 159.279 64.9728 164.262 65.222 167.55C65.4711 170.838 63.4781 175.572 66.9159 179.159C66.2184 173.678 65.3714 166.852 65.222 161.422C64.8234 148.468 68.0619 150.012 76.4322 142.838C75.6849 140.944 77.1796 140.147 78.1761 141.991C81.0658 140.197 82.5605 136.809 84.2047 134.218L81.6139 135.065C82.8097 133.421 81.6139 131.926 81.6139 130.73C78.0764 135.314 74.1902 138.652 69.5069 141.941L69.457 142.09Z" fill="#101010"/>
<path d="M68.6092 187.879C68.6092 190.021 68.9082 192.562 68.0612 194.605C67.4634 196.05 65.1217 195.901 65.1217 197.794C65.1217 201.232 70.353 200.185 71.1004 202.278C71.2499 202.726 72.0471 207.758 71.9973 208.257C71.9475 209.452 69.2071 212.641 70.3531 213.837C71.8976 215.431 74.5881 210.399 76.1825 210.997C76.6807 210.598 76.3319 209.602 76.4315 209.502C69.9047 208.456 73.3425 201.73 72.8442 199.637C72.5951 198.591 70.0541 198.043 69.2569 196.299C68.6092 194.904 69.8548 192.014 69.5559 189.972C69.4064 188.826 68.659 188.078 68.6092 187.879Z" fill="#101010"/>
<path d="M71.2006 258.726C73.4426 259.673 74.5885 261.018 76.3821 262.164C77.3288 266.498 84.2045 269.239 86.7455 265.602C89.0373 265.651 91.3789 265.552 93.6708 265.602C94.5178 267.096 95.9627 267.694 98.0054 267.345C98.2545 270.335 99.5002 272.278 102.29 273.374C102.739 274.121 105.33 278.007 105.728 278.555V279.951C108.169 282.442 110.76 284.833 113.501 287.225C117.985 288.221 116.59 292.606 121.273 291.56C116.59 287.624 110.212 282.143 106.575 277.31C104.781 274.968 100.347 264.655 99.6996 264.356C97.4575 263.21 92.1263 264.954 88.8878 264.854C80.9161 264.605 75.289 260.266 69.4099 255.383C67.1678 257.077 68.9087 258.178 71.2006 258.726Z" fill="#131313"/>
<path d="M112.653 322.65C105.479 321.554 108.369 323.995 106.127 326.935C104.731 328.828 98.6531 328.778 103.984 333.86C105.579 331.22 107.472 328.18 109.216 325.689C109.415 325.39 111.856 323.397 112.604 322.6L112.653 322.65Z" fill="#101010"/>
<path d="M93.6706 265.652C95.6635 270.485 96.6102 272.827 102.29 273.424C100.746 270.784 99.5996 268.891 99.6495 265.702C97.6565 265.503 95.6635 265.702 93.6706 265.652Z" fill="#101010"/>
<path d="M76.3831 262.165C75.3866 267.596 81.465 268.044 85.5506 268.991C87.7428 269.489 86.4475 266.699 86.7464 265.603C84.8531 265.553 81.9633 266.002 80.4686 265.603C80.2195 265.553 77.9276 263.112 76.3831 262.115V262.165Z" fill="#101010"/>
<path d="M63.4288 248.363C64.4253 251.751 65.8701 251.901 66.0196 252.449C66.6174 254.741 64.9235 257.182 68.3613 258.577C69.3577 258.976 70.703 258.577 71.2012 258.727C70.1051 257.78 69.793 255.768 69.6013 255.576C69.4096 255.384 66.5113 251.743 65.1915 249.057C63.8717 246.371 63.927 248.712 63.3789 248.413L63.4288 248.363Z" fill="#101010"/>
<path d="M123.018 314.03C123.516 313.931 124.214 314.13 124.762 314.03C128.321 312.118 127.357 311.856 129.097 310.593C136.149 305.401 122.074 308.978 123.068 314.03H123.018Z" fill="#101010"/>
<path d="M105.779 278.607C103.437 283.042 107.523 282.494 108.818 283.739C111.807 286.579 109.217 286.28 113.551 287.227C112.106 283.54 108.27 281.796 105.779 278.607Z" fill="#101010"/>
<path d="M177.474 225.047C180.364 226.343 182.656 223.254 180.364 221.51C175.83 218.072 156.349 214.186 150.271 213.787C145.936 213.488 135.274 212.292 134.277 217.275C135.623 218.72 138.413 218.869 138.612 219.019C139.007 219.147 138.048 218.955 137.765 222.905C137.366 231.823 139.479 238.833 147.251 244.264L146.384 242.336L146.783 240.592C143.943 235.61 140.954 222.506 147.63 220.812C140.505 246.92 172.841 255.19 170.698 224.449C173.339 225.496 175.631 225.695 177.424 225.047H177.474Z" fill="#131313"/>
<path d="M232.729 237.999C237.512 230.824 236.566 225.144 234.473 217.272C243.989 215.329 246.331 216.176 246.63 226.34C246.78 231.92 241.885 235.637 240.24 240.619C242.433 243.011 248.101 236.21 250.068 229.828C250.566 225.792 250.516 219.863 248.324 216.425C257.193 213.286 249.42 210.994 243.541 211.194C236.217 211.443 221.32 215.08 215.192 219.116C213.498 220.212 212.551 221.109 212.9 223.301C213.846 223.5 216.985 223.052 217.234 223.301C217.038 223.513 216.804 230.309 218.081 231.92C215.441 239.095 228.295 244.376 232.779 237.949L232.729 237.999Z" fill="#131313"/>
<path d="M130.789 195.649C129.394 197.641 125.209 202.674 128.148 204.766C129.593 205.763 149.573 208.104 153.409 208.852C159.139 209.948 179.716 215.727 183.702 214.482C186.392 213.685 187.887 208.304 186.492 206.012C186.093 205.364 174.883 200.73 173.089 199.983C166.512 197.293 148.427 189.819 142.398 189.62C137.814 189.47 134.376 192.908 130.789 195.698V195.649Z" fill="#181818"/>
<path d="M241.397 189.62C235.967 191.165 221.368 198.09 216.137 201.03C215.29 201.528 211.653 203.82 211.204 204.268C208.016 207.307 210.108 213.685 214.194 213.635L258.088 201.478C263.469 199.784 255.896 192.56 253.455 190.916C249.269 188.125 246.131 188.225 241.397 189.57V189.62Z" fill="#191919"/>
<path d="M241.397 240.591C243.191 236.605 245.682 231.573 245.732 227.139C245.732 226.093 244.237 218.469 243.888 218.17C239.474 217.23 237.94 217.805 236.215 218.071C238.258 225.893 239.404 231.424 233.624 237.951C229.738 241.04 225.304 242.335 221.218 238.648C217.631 238.449 222.165 243.182 223.809 244.278C228.393 247.367 239.09 244.647 241.007 241.388L241.397 240.591Z" fill="#F9F9F9"/>
<path d="M209.411 246.619C209.411 248.662 211.204 254.79 209.261 255.986C206.82 257.53 196.706 254.591 194.414 255.338C192.321 256.036 192.371 261.168 189.531 262.164C199.147 261.367 213.661 263.897 210.522 249.249C210.223 247.904 209.61 247.068 209.411 246.619Z" fill="#F0BB87"/>
<path d="M277.461 218.188C275.472 221.221 270.996 220.425 268.062 222.116C266.52 223.011 265.526 225.299 263.934 225.746C261.846 226.343 254.684 225.498 254.187 225.945L257.618 231.117C256.077 230.968 251.004 230.719 251.601 233.255L256.773 235.443C255.43 233.553 252.795 234.647 253.342 232.012C255.381 231.365 258.663 233.106 260.204 232.46C262.243 231.614 264.929 226.443 267.167 224.702C270.896 221.818 275.72 222.315 277.51 221.221C279.5 219.978 277.51 218.486 277.51 218.188H277.461Z" fill="#F8D3A8"/>
<path d="M172.293 264.754C170.499 265.352 164.67 267.843 163.723 269.188C163.474 269.537 164.57 270.633 164.521 270.832C166.552 268.01 168.347 266.728 172.293 264.804V264.754Z" fill="#F8D3A8"/>
<path d="M209.411 190.467C213.098 189.272 217.283 187.528 219.774 184.439C215.539 183.044 213.248 185.983 210.458 186.78C207.667 187.577 201.938 189.371 199.496 189.62C189.382 190.617 180.364 184.887 170.499 184.389C170.25 187.079 173.738 187.179 175.681 187.827C188.187 192.261 196.358 194.702 209.361 190.417L209.411 190.467Z" fill="#D7B38B"/>
<path d="M172.293 247.517C166.862 250.706 166.812 253.048 159.339 253.546C154.257 253.895 149.673 252.898 144.641 252.699C144.392 254.542 146.534 256.087 148.079 256.635C155.801 259.276 165.866 257.183 172.243 252.201C176.279 249.062 176.428 245.126 172.343 247.517H172.293Z" fill="#D7B38B"/>
<path d="M157.595 266.499C155.103 269.139 153.559 272.178 150.669 275.118C150.37 275.816 147.132 284.136 150.221 282.89C151.267 282.492 155.9 273.823 157.993 271.68C160.335 269.289 162.577 268.591 164.221 267.096C166.264 265.203 168.257 261.616 171.396 260.022C166.762 258.776 160.634 263.26 157.595 266.499Z" fill="#D7B38B"/>
<path d="M219.775 246.62C219.476 248.763 219.676 248.414 220.822 249.46C223.014 251.453 230.288 254.143 233.278 254.343C235.37 254.492 244.089 252.3 244.787 250.457C246.331 246.521 240.701 249.709 238.26 249.958C234.972 250.257 227.747 250.058 224.708 249.012C223.014 248.414 222.266 245.972 219.775 246.62Z" fill="#D7B38B"/>
<path d="M226.699 257.881L230.237 262.564C234.521 263.411 237.959 268.244 239.852 271.981C240.45 273.177 241.995 282.194 244.835 279.504C245.134 279.205 243.141 272.28 242.892 271.532C242.443 270.237 240.849 269.54 240.6 268.543C240.351 267.447 241.447 265.803 241.347 265.703C241.248 265.603 239.454 265.703 238.308 264.856C234.771 262.265 232.329 256.735 226.649 257.931L226.699 257.881Z" fill="#D7B38B"/>
<path d="M189.531 215.528C190.677 216.724 192.421 214.881 193.068 213.436C194.513 210.247 193.616 205.962 193.866 202.574C189.88 202.574 191.723 207.258 191.225 209.848C190.976 211.194 188.784 214.731 189.531 215.478V215.528Z" fill="#D7B38B"/>
<path d="M181.761 177.514C185.149 180.304 191.725 182.496 195.96 182.696C202.537 183.094 207.021 180.753 212.851 178.311C210.609 174.973 204.68 179.009 200.345 179.208C194.067 179.557 188.039 177.165 181.761 177.464V177.514Z" fill="#D7B38B"/>
<path d="M121.323 240.59C122.419 241.686 130.939 237.601 132.583 236.704C133.779 236.056 134.726 236.754 134.277 234.562C129.743 234.313 121.323 234.661 121.323 240.59Z" fill="#D7B38B"/>
<path d="M120.427 226.789V229.38C125.061 227.686 129.993 232.967 133.381 229.829C131.09 224.547 125.31 227.487 120.427 226.789Z" fill="#D7B38B"/>
<path d="M56.503 149.015C61.0369 147.371 65.4214 144.979 69.4571 142.09C64.6242 141.94 60.439 146.524 56.503 149.015Z" fill="#151515"/>
<path d="M65.1714 225.045C63.9259 227.486 63.2783 231.771 63.4277 234.561C67.5133 231.621 67.2143 227.287 73.3425 227.636C80.1683 228.034 85.4994 233.315 89.7842 238.048L91.0797 236.305C89.9835 234.013 89.5849 230.824 87.6418 228.084C82.4104 220.859 70.4029 214.831 65.1714 225.045Z" fill="#F8D3A8"/>
<path d="M75.5352 241.439C81.1155 238.898 82.6102 242.834 84.7526 247.318C85.4999 248.862 87.4429 257.93 89.7846 254.442C92.1263 250.955 85.5996 236.207 80.2186 235.46C74.8377 234.712 75.2861 237.004 75.5352 241.488V241.439Z" fill="#1C1C1C"/>
<path d="M86.4975 64.6137C86.0491 63.966 84.5544 63.8166 83.7573 62.6208C82.4618 60.6279 82.6612 57.6883 80.7181 55.2968C79.0241 53.2042 77.0311 53.2042 75.7855 52.0084C74.2908 50.6134 71.9491 43.0403 68.1625 47.076C67.8138 47.4745 65.4721 52.7557 65.223 53.6525C63.2799 60.578 63.1802 77.8668 66.1197 84.5929C70.3049 94.0594 73.3941 90.3724 79.7714 94.3084C83.5082 96.6003 89.9852 105.469 90.1845 109.853C90.2343 111.348 89.3375 112.743 89.3873 114.088C89.5368 119.619 88.7894 121.113 88.5901 125.398C88.3908 129.284 90.1844 129.733 87.4441 134.615C82.96 142.787 74.3407 145.527 70.4046 151.256C64.9241 159.079 70.305 173.727 69.7569 183.044C71.4011 185.834 72.6964 189.371 75.2872 191.314C75.9848 191.464 85.6505 185.336 87.1452 184.389C89.5865 182.795 98.3556 177.015 99.8503 175.521C107.573 167.848 97.5583 150.16 97.4088 140.893C97.4088 137.854 98.8537 133.769 99.0032 130.58C99.1527 126.743 98.0067 123.405 98.0565 120.217C98.1064 116.629 100.099 113.341 99.7505 109.056C99.3519 104.223 88.9887 68.0515 86.5972 64.7133L86.4975 64.6137Z" fill="#151515"/>
<path d="M87.6419 193.06C86.7451 193.359 85.6989 193.11 84.4533 193.707C77.8268 196.846 83.8055 204.021 87.592 196.797C88.6881 194.704 87.5921 194.206 87.6918 193.06C88.6384 192.761 91.4285 192.811 91.8769 192.063C92.973 190.319 89.8839 188.426 95.8627 188.077C100.496 187.778 98.7027 189.174 103.336 185.786C104.532 184.889 107.92 185.088 105.379 180.903C103.386 177.565 96.0122 185.287 94.4677 186.483C91.279 188.924 87.9907 188.725 87.6419 193.06Z" fill="#151515"/>
<path d="M96.2627 86.837C96.1133 88.4812 99.6009 102.681 102.291 100.638C103.736 97.3 101.145 94.9582 100.199 92.1183C99.6008 90.2748 101.693 86.4882 96.2627 86.837Z" fill="#101010"/>
<path d="M78.1254 142.09C78.4243 141.741 78.9724 139.399 79.8692 138.652C78.0756 137.307 71.2497 142.488 76.4314 142.987C76.8798 142.638 77.8763 142.439 78.1752 142.14L78.1254 142.09Z" fill="#101010"/>
<path d="M156.748 295.895C157.794 294.998 159.438 293.404 160.186 295.497C161.382 298.685 157.844 297.34 157.595 297.639C158.243 302.372 162.179 299.881 164.52 297.639C163.673 302.223 165.716 300.678 166.264 301.077C168.556 300.778 168.457 300.031 166.264 299.333L165.318 294.899C163.773 293.852 163.076 292.955 163.674 290.713H165.915C171.197 279.603 178.521 276.713 190.13 274.67C193.368 273.724 199.895 271.183 198.251 267.396C200.543 266.748 200.493 266.45 198.251 265.652C189.681 265.951 181.809 264.606 173.588 268.243C163.325 272.777 159.737 286.03 156.748 295.895Z" fill="#B9B7B2"/>
<path d="M198.201 265.653V267.397C201.539 268.742 204.678 270.586 207.567 273.027C218.23 274.322 225.604 279.305 229.689 288.024C227.098 289.768 225.853 297.989 227.547 300.231C227.845 300.081 228.892 300.53 229.191 300.181C229.54 299.633 229.141 297.64 229.44 296.544C230.309 293.643 238.898 293.346 238.898 293.346C238.898 293.346 236.008 283.683 234.173 279.305C226.949 261.817 213.596 265.155 198.151 265.653H198.201Z" fill="#B9B7B2"/>
<path fill-rule="evenodd" clip-rule="evenodd" d="M243.938 319.61C240.351 318.215 238.806 323.596 236.564 325.987C232.827 329.973 225.354 334.906 222.415 338.593C216.336 346.216 210.856 358.024 204.279 366.643L203.282 368.685C198.748 371.974 199.097 375.612 204.279 379.598C204.578 380.096 204.628 381.292 205.126 382.188C211.104 386.523 218.13 387.37 226.151 384.779C228.262 384.31 228.688 384.15 230.685 383.434L239.953 380.693C242.444 371.526 241.497 361.81 238.856 352.842C236.913 347.61 236.714 339.191 241.198 348.558C242.593 349.105 245.183 341.086 245.034 340.636C244.934 340.287 244.536 340.087 244.038 339.888C244.536 337.845 246.977 337.596 247.027 339.788C245.483 350.6 244.934 360.963 250.315 370.479L257.839 373.419C263.568 377.704 255.896 376.956 251.561 376.109L250.864 376.956C249.569 376.807 249.519 377.953 250.565 380.394C247.227 385.775 252.608 394.544 258.039 395.989C261.527 396.935 269.299 392.6 271.74 390.01C279.661 381.639 275.626 367.34 271.591 357.924C268.85 350.052 259.085 334.407 253.455 328.578C252.608 327.731 251.349 326.875 250.006 325.964C250.004 325.961 250.002 325.959 250.001 325.956C248.752 323.389 246.748 320.695 243.938 319.61Z" fill="#F6F6F6"/>
<path d="M198.202 267.348C197.554 267.796 196.907 269.44 195.561 270.337C187.789 275.369 178.97 273.875 171.995 279.604C168.607 282.394 166.763 287.028 163.625 290.665C162.678 292.259 162.23 293.754 164.422 293.903L166.215 299.284V301.028C166.809 303.125 167.909 304.067 169.205 305.363C174.785 310.893 182.159 314.63 189.832 310.395C197.505 306.16 192.173 290.815 202.836 294.053C203.533 294.252 204.679 304.317 207.718 307.406C209.761 309.548 215.939 312.637 218.032 308.751C219.576 307.107 218.082 306.808 213.647 307.854L211.156 307.007L212.053 305.413C210.209 302.473 208.864 299.185 208.615 295.697C221.021 285.384 190.679 289.17 189.383 291.064C187.64 293.605 188.835 295.249 191.426 296.195C191.227 305.911 184.451 311.242 176.13 304.815L174.038 305.313C173.191 301.825 171.746 299.534 169.703 298.388C170.65 296.494 170.949 293.904 170.5 290.615C172.892 288.573 173.49 286.53 172.294 284.587C174.835 282.295 178.273 280.651 182.657 279.704C190.131 278.857 196.259 276.167 201.042 271.633C204.978 275.768 210.209 278.159 216.836 278.807C219.975 279.405 222.366 280.75 224.11 282.843L223.064 284.686C225.206 290.217 224.907 296.694 221.121 301.477L221.519 303.569C219.178 309.05 224.708 304.615 225.854 300.978C226.302 300.679 227.05 300.381 227.598 300.131C228.295 298.537 229.092 290.217 229.441 289.818C229.84 289.419 231.683 289.967 231.932 289.768C232.929 288.821 227.548 280.7 226.352 279.405C220.921 273.476 215.291 274.373 208.864 271.832C205.377 270.437 201.69 264.807 198.252 267.298L198.202 267.348Z" fill="#1C1C1C"/>
<path d="M225.854 301.076C224.508 302.073 223.512 304.364 221.967 305.411L221.519 303.667C220.074 303.019 218.38 303.518 216.487 305.212C213.846 305.112 212.053 305.76 211.106 307.155C213.846 309.895 214.145 308.101 216.736 308.151C217.483 308.151 217.932 308.898 218.031 308.898C221.32 308.749 225.754 304.664 225.804 301.126L225.854 301.076Z" fill="#353535"/>
<path fill-rule="evenodd" clip-rule="evenodd" d="M122.867 316.971C120.775 316.971 113.202 324.793 111.807 327.035V326.985C105.13 333.811 98.0551 344.025 94.5176 352.894C92.3254 358.324 88.9378 369.086 88.5889 375.015C88.0409 384.88 96.6107 393.25 106.227 393.499C115.842 393.748 113.7 382.738 112.653 376.211L104.034 377.058C104.084 375.513 103.536 374.368 104.881 373.62C105.877 373.072 106.923 372.773 108.318 371.876L114.398 370.182C119.081 361.513 119.13 352.594 117.586 343.128C116.938 337.498 117.885 335.904 120.426 338.245C119.679 338.445 119.679 338.743 120.426 339.092L121.871 346.665H122.917C127.401 339.79 128.846 342.58 127.252 355.185C127.7 362.957 131.238 382.687 140.306 383.136C140.33 383.11 140.352 383.083 140.376 383.058C146.633 384.938 153.236 386.079 160.186 386.476C160.734 386.476 161.88 387.272 163.175 387.322C170.15 387.571 172.891 387.173 178.321 382.589L167.958 369.187C167.958 369.187 167.261 369.336 167.111 369.187L157.595 355.386C156.2 353.044 154.505 350.602 153.26 348.46C149.833 345.878 148.09 341.612 145.513 338.131C146.219 333.985 124.496 316.922 122.867 316.971Z" fill="#F6F6F6"/>
<path fill-rule="evenodd" clip-rule="evenodd" d="M123.477 395.153C118.569 414.899 115.327 435.227 112.703 455.677L112.254 466.04C112.852 467.236 121.372 471.421 123.066 472.119C131.088 475.308 146.184 478.994 154.853 480.539C160.134 481.486 165.217 481.934 170.598 481.635L168.654 479.691C140.604 475.207 129.892 470.873 133.679 442.274C135.223 430.666 136.967 419.156 139.408 407.697C137.764 402.267 140.554 400.672 147.778 402.914L164.507 402.631C164.505 401.734 147.778 399.775 145.536 399.526H144.639L123.477 395.153ZM245.98 354.286C245.831 352.242 250.315 335.503 245.482 336.549C244.038 336.848 244.274 338.897 244.075 339.744L243.988 339.937C246.778 340.685 246.556 341.947 245.609 344.537C245.609 345.085 245.417 346.432 245.417 347.03C245.341 347.288 245.272 347.601 245.205 347.963C241.978 355.357 245.222 362.649 244.985 370.529C245.633 372.423 252.26 372.672 254.402 372.821L254.352 372.771C254.346 372.769 254.34 372.766 254.334 372.764C254.356 372.765 254.379 372.769 254.401 372.77C256.294 373.518 257.658 372.88 258.455 375.022C254.917 375.57 249.201 372.509 246.76 375.598C246.386 376.07 246.11 376.722 245.914 377.519C245.506 378.127 245.355 378.824 245.617 379.416C245.496 380.795 245.514 382.416 245.637 384.199C245.14 386.616 245.504 389.698 246.493 391.369C247.935 400.588 250.54 410.989 250.963 415.071C252.657 416.665 261.475 407.946 263.07 406.451C263.059 406.447 263.047 406.443 263.036 406.438C276.577 393.286 281.551 375.307 271.64 358.074H271.591C273.185 362.708 276.174 374.416 275.875 379.149C275.376 386.772 265.761 394.544 258.139 394.444C251.164 394.344 250.715 382.338 250.864 377.106C250.863 377.106 250.863 377.104 250.862 377.103C250.928 377.103 250.995 377.106 251.062 377.105C253.603 377.105 262.073 378.899 261.426 375.809C260.777 372.721 251.81 370.877 251.062 369.582C250.315 368.286 250.465 365.048 249.767 363.305C249.02 361.212 246.08 355.93 245.98 354.286ZM94.4696 352.892C94.1869 353.448 93.3758 355.274 93.3758 355.274C93.3589 355.294 92.2211 356.629 91.6502 358.342L91.2664 359.684C90.685 362.635 89.9395 362.89 89.5409 364.285C85.854 371.31 86.7967 382.039 89.5868 389.513C91.2807 394.046 94.2203 400.274 97.9569 403.015C100.099 404.609 111.056 415.118 112.206 415.072C114.797 413.079 114.677 411.123 115.425 408.383C115.674 407.536 116.043 405.756 116.093 405.605C116.89 402.168 118.335 393.947 118.683 390.509C119.182 385.726 118.335 380.246 118.683 375.363C114.648 375.064 110.661 375.513 106.626 375.811C103.886 376.011 104.883 376.359 104.883 373.619C104.036 373.37 102.79 373.221 102.541 373.768C100.15 379.697 107.373 378.801 111.11 378.103C112.406 385.427 113.153 393.947 102.939 391.356C84.6046 386.723 90.4833 367.341 95.6649 354.536L94.4696 352.892ZM118.233 337.298C117.237 344.024 119.629 350.7 119.579 357.626C119.579 361.113 117.835 365.049 118.731 368.836L116.091 370.978C116.34 370.978 117.486 372.373 118.681 370.978C118.831 369.284 120.426 364.302 120.426 362.758V349.804C120.425 349.056 118.782 346.764 119.579 345.07C120.575 344.822 120.575 345.918 121.272 346.814C121.272 346.83 121.273 346.847 121.273 346.863H121.323C121.771 347.411 122.319 348.705 122.618 348.606L127.351 343.425C127.8 346.563 126.903 349.254 125.607 352.044C125.508 357.375 121.672 376.805 125.607 380.095C126.853 381.141 143.293 384.977 146.184 385.476C151.067 386.322 160.481 387.867 160.481 386.525C160.478 385.184 146.967 384.983 140.541 382.691C137.452 381.595 136.17 379.995 134.775 377.006C129.893 366.394 128.198 353.29 128.198 341.682C124.81 340.908 124.525 344.458 122.364 345.894C122.325 345.768 122.219 345.637 122.042 345.504L120.426 339.091C120.464 339.372 120.508 339.654 120.55 339.937L120.376 339.042V338.195H120.426L118.233 337.298ZM135.173 311.177C134.272 306.084 131.808 309.328 129.145 310.543H129.096C128.71 310.786 124.613 313.899 124.762 313.98C120.217 317.693 114.552 323.166 111.59 327.282C113.234 325.588 120.626 318.166 122.47 318.464C123.317 318.614 134.377 327.632 136.071 329.027C139.011 331.568 143.545 335.454 145.538 338.144C144.193 341.084 149.873 350.052 153.31 348.508C152.364 346.864 151.567 343.924 150.72 342.479C149.873 341.035 148.926 339.589 148.129 338.144C148.228 335.354 146.783 332.813 143.694 330.521L137.765 318.266C136.072 315.376 136.121 315.375 135.175 312.236C135.139 312.087 135.205 311.571 135.173 311.177Z" fill="#CAC2BF"/>
<path d="M167.111 369.284C164.919 364.251 161.182 359.568 157.595 355.482C160.485 360.465 162.478 365.298 167.111 369.284Z" fill="#F6F6F6"/>
<path d="M65.1725 149.016C65.7206 149.664 70.3543 147.372 69.5073 145.578C67.1656 144.532 63.6778 147.322 65.1725 149.016Z" fill="#101010"/>
<path d="M229.49 220.96C225.704 224.846 232.031 227.935 234.074 225.096C235.967 222.455 232.231 218.12 229.49 220.96Z" fill="#E6E6E6"/>
<path d="M131.686 201.729C146.184 203.423 160.334 207.658 174.683 210.149C176.627 210.498 182.755 211.893 183.552 209.9C184.548 207.509 181.708 207.16 180.064 206.512C172.591 203.323 150.968 193.907 144.142 193.159C137.914 192.462 134.426 196.846 131.686 201.729Z" fill="#919191"/>
<path d="M248.524 192.413C245.236 191.516 242.894 192.712 239.954 193.758C236.766 194.954 212.95 206.613 212.9 208.157C214.196 210.001 215.591 209.453 217.434 209.253C228.893 207.858 241.499 200.833 253.257 199.289L255.2 197.794C255.2 197.146 249.72 192.712 248.524 192.363V192.413Z" fill="#949494"/>
<path d="M163.624 290.713C161.731 292.905 161.432 293.204 161.88 296.742L164.023 294.998L166.165 299.333C166.165 296.742 166.165 294.151 166.165 291.56C164.122 292.258 163.275 293.453 163.574 290.713H163.624Z" fill="#B9B7B2"/>
<path d="M219.775 281.197C218.629 282.393 217.234 282.592 215.44 281.696L214.145 282.941C214.145 282.543 214.045 282.144 213.896 281.795C213.397 280.799 194.664 280.998 192.073 281.197L190.827 282.941C188.486 280.35 180.813 284.187 178.471 286.529C177.226 286.529 176.03 286.18 174.834 285.532C179.069 281.197 174.784 280.251 172.243 284.685C169.802 289.07 169.005 293.504 169.653 298.486C170.3 300.329 171.197 300.728 172.791 299.682C171.147 301.775 172.443 303.518 173.987 305.362C182.208 312.536 191.475 309.995 192.771 298.636C192.87 297.589 193.269 296.593 192.87 295.497C192.472 294.251 188.884 294.002 190.379 292.408C191.376 291.312 205.874 290.265 208.066 290.664C212.849 291.461 207.767 293.205 207.169 294.151C205.625 296.543 209.063 305.113 211.056 307.106C216.088 307.704 217.981 307.006 221.419 303.668C226.7 298.486 227.199 289.468 224.01 282.941C223.013 281.247 220.124 278.607 219.675 281.197H219.775Z" fill="#F8D3A8"/>
<path d="M224.108 282.939C220.371 275.266 210.107 277.509 203.78 272.576C202.933 271.928 202.634 270.234 202.434 270.085C200.192 268.74 197.253 273.423 195.808 274.22C190.377 277.259 176.925 278.057 173.138 282.491C172.441 283.288 172.59 284.185 172.341 284.683C173.636 284.036 174.284 282.64 175.779 282.939C175.53 283.836 174.932 284.583 174.932 285.53L177.672 285.829C190.178 278.356 204.876 280 218.527 282.042L219.823 281.196C220.072 281.245 222.314 280.149 224.157 282.939H224.108Z" fill="#F8D3A8"/>
<path d="M173.985 305.362C171.494 300.928 177.124 299.035 177.473 295.348C177.622 293.953 176.277 294.401 175.779 293.455C175.43 292.857 175.779 291.561 175.231 290.714C173.537 287.974 169.95 289.319 170.846 293.255C171.195 294.85 174.816 299.321 169.684 298.524C170.132 302.211 171.295 303.07 173.935 305.362H173.985Z" fill="#F8D3A8"/>
<path d="M174.882 285.533C174.882 288.173 177.124 288.622 179.466 288.124C180.064 287.974 180.114 286.729 180.712 286.479C182.156 285.931 190.328 282.942 190.826 282.942H214.143C215.289 282.942 218.528 284.736 220.62 283.789L219.773 281.198C204.776 277.461 188.135 276.614 174.832 285.533H174.882Z" fill="#1E1E1E"/>
<path d="M262.256 237.563C261.42 238.636 254.92 234.638 253.665 233.761C252.753 233.127 252.031 233.809 252.373 231.664C255.832 231.42 262.256 231.761 262.256 237.563Z" fill="#D7B38B"/>
<path d="M263.023 223.752V226.32C259.457 224.641 255.66 229.875 253.053 226.764C254.817 221.531 259.265 224.444 263.023 223.752Z" fill="#D7B38B"/>
<path d="M234.489 217.229C242.395 214.648 245.369 217.613 245.801 219.53C248.869 232.951 243.308 240.237 237.173 244.838C216.466 252.507 213.015 225.282 213.015 223.365C213.974 222.981 217.233 223.173 217.233 223.365C216.522 228.052 218.828 241.839 228.162 240.237C239.201 235.54 235.712 224.723 234.489 217.229Z" fill="white"/>
<path d="M158.947 249.633C174.439 249.94 178.951 233.528 179.271 225.283C178.12 225.667 169.492 222.216 168.917 222.407C174.669 231.994 163.549 247.716 154.729 241.58C145.91 235.445 148.402 224.516 148.786 219.148C146.621 218.156 144.349 218.041 143.225 219.531C142.438 220.575 142.53 222.993 142.267 223.941C141.372 232.377 143.456 249.326 158.947 249.633Z" fill="white"/>
<circle cx="3.06767" cy="3.06767" r="3.06767" transform="matrix(-1 0 0 1 234.681 220.105)" fill="#FFFDFD"/>
<circle cx="3.06767" cy="3.06767" r="3.06767" transform="matrix(-1 0 0 1 167.958 220.873)" fill="#FFFDFD"/>
</g>
</svg>
