<svg width="112" height="62" viewBox="0 0 112 62" fill="none" xmlns="http://www.w3.org/2000/svg">
<path d="M6.80136 41.158C6.70894 42.2669 8.0109 45.0331 5.73043 44.9287C5.61628 44.7128 5.6951 43.8841 5.73043 43.5569C5.79567 42.9528 6.60022 41.7516 6.80136 41.1562V41.158Z" fill="#312F29"/>
<path d="M65.8079 14.7012C63.3032 15.071 60.4485 14.2637 58.2739 14.3207C54.8905 14.4095 51.7131 16.4765 48.9279 17.193C47.5501 17.548 48.4686 15.9735 48.9601 15.5212C49.7148 14.8259 60.0513 12.4884 61.784 12.3235C64.7182 12.0424 64.0479 12.2411 66.2969 13.4542C66.431 13.8537 67.208 14.4962 65.8079 14.7033V14.7012Z" fill="#DBDAD3"/>
<path d="M77.8909 14.7285C77.8503 15.6353 78.3786 16.1375 79.3921 16.1026C76.6692 17.5604 73.8804 18.8322 70.8857 19.7622C71.2642 18.2788 75.6736 16.749 75.8564 16.5188C75.9199 16.4397 75.3739 15.8492 75.4653 15.7213C75.6913 15.4051 77.4261 14.9889 77.8884 14.7308L77.8909 14.7285Z" fill="#ABA7A1"/>
<path d="M93.9566 32.3499C93.346 34.9471 94.9036 34.5318 94.9496 34.8421C95.0809 35.7619 94.8166 37.1723 94.9249 38.1902L93.9582 38.6398C93.5348 36.5242 93.3526 34.4291 93.9582 32.3477L93.9566 32.3499Z" fill="#484843"/>
<path d="M4.40326 41.1548C3.93863 39.5739 4.73366 37.7413 4.40326 36.1211C5.75585 37.5781 6.40116 39.8276 4.40326 41.1548Z" fill="#0E0E0D"/>
<path d="M69.3527 22.2793C69.695 25.2047 69.2323 28.2731 68.5311 31.08C67.8485 31.1985 68.085 30.0073 68.1099 29.5291C68.2219 27.5021 68.8817 25.2829 68.5352 23.1621L69.3527 22.2815V22.2793Z" fill="#0E0E0D"/>
<path d="M99.2405 29.7083C96.9874 30.0373 94.4631 29.5849 92.1519 29.7083C93.9039 28.1776 97.6019 28.2096 99.2405 29.7083Z" fill="#0E0E0D"/>
<path d="M38.0277 42.4132C36.4548 40.8599 36.4877 37.5761 38.0277 36.1211C38.178 37.8195 38.5067 40.8721 38.0277 42.4132Z" fill="#0E0E0D"/>
<path d="M18.4299 45.9339C17.2144 46.4088 15.4462 46.111 14.1768 45.9339C15.1181 44.5775 17.5685 44.6178 18.4299 45.9339Z" fill="#0E0E0D"/>
<path d="M19.8026 31.0891C19.7797 30.8384 19.0416 30.0607 19.3465 29.4126L18.448 29.8333C18.5534 29.5273 18.3724 28.9621 18.4503 28.5796C20.0135 28.45 19.8897 30.0564 19.8026 31.0891Z" fill="#0E0E0D"/>
<path d="M58.127 20.5951C59.0569 20.3201 60.0273 20.2165 60.9108 19.7617C61.2868 20.8002 59.5037 20.9462 58.9235 21.0117C58.6263 21.0456 58.1512 20.9906 58.127 20.5951Z" fill="#0E0E0D"/>
<path d="M50.6821 8.6954C50.8388 9.76228 51.0955 10.805 51.2198 11.8698L52.0115 10.6759C52.325 10.6779 52.3979 11.4261 52.8086 11.8718C53.0978 12.1844 53.3734 12.2631 53.8733 12.2691C53.3572 12.376 49.7579 13.5942 49.6201 13.4611C50.0903 11.8295 50.2254 10.3673 50.147 8.6954C50.2984 8.34851 50.4767 8.35456 50.6794 8.6954H50.6821Z" fill="#CECBC7"/>
<path d="M50.937 8.43543H50.3072C50.3072 8.38561 49.7094 8.00808 49.6519 7.52132C49.5432 6.57462 49.7542 5.60685 49.6838 4.66016C51.8352 5.29831 50.7228 7.24919 50.937 8.43352V8.43543Z" fill="#B9B9B5"/>
<path d="M7.37487 28.5723C10.0707 31.5393 4.19971 31.7422 6.90042 35.6764C10.3748 33.0927 16.8541 33.9088 18.3967 29.4606C19.2458 27.4811 19.7081 29.4876 19.8346 30.793C19.9538 32.0984 19.2531 38.1745 18.8419 39.4348C18.5573 40.3118 18.5548 40.1112 17.9174 40.5621L17.3359 40.4539C17.3018 38.5465 17.1753 36.6572 16.9587 34.7904C16.1704 33.9787 14.2483 35.4938 13.0318 35.8139C11.8152 36.1341 7.56951 36.7338 6.98071 37.09C6.28972 37.5071 7.00504 39.2386 6.90042 39.8722C6.82499 40.3163 6.43083 40.5035 6.41623 40.5643C6.50383 42.1628 6.18509 43.1999 5.4576 43.6734C5.03668 43.2044 4.56467 42.0027 4.49897 41.4526C4.8761 39.552 4.88583 37.5838 4.49897 35.6809C4.40165 35.4262 4.73985 34.7791 4.26053 34.7949C2.73013 35.4036 2.58415 39.0042 0.907759 38.3413C-1.50585 37.3876 1.54279 33.476 2.56955 32.3397C4.08292 30.669 5.8031 29.8709 7.37487 28.5768V28.5723Z" fill="#1F1F1C"/>
<path d="M110.284 42.8149C110.257 43.0812 110.66 43.5915 110.569 44.124C110.502 44.5253 109.6 47.3613 109.407 47.7324C108.455 49.5618 107.009 49.6223 105.325 49.9652C105.245 49.7131 104.933 49.3823 104.912 49.1705C105.218 47.5872 105.163 45.9917 104.912 44.4043C105.027 43.9384 106.787 41.5946 107.364 41.399C109.181 40.7878 109.562 41.3566 110.282 42.8149H110.284Z" fill="#1F1F1C"/>
<path d="M111.636 38.6384C108.363 38.7096 109.205 32.2685 109.424 29.8772C109.523 28.8022 109.622 26.9071 110.727 26.4247C110.815 26.4454 111.188 26.0043 111.407 26.0595C112.844 26.4247 111.225 31.9745 111.163 33.4148C111.08 35.3765 111.638 37.035 111.633 38.6384H111.636Z" fill="#1F1F1C"/>
<path d="M66.6382 33.3985C66.7291 33.8134 66.4433 34.7263 66.687 34.9773C67.8391 36.1661 72.3389 33.7886 72.3035 35.2366C72.2592 37.1059 66.7269 37.0105 66.3923 37.4586C65.2269 39.0166 66.9861 45.1908 67.0282 47.1306C67.1257 51.8358 64.0194 56.7569 62.7056 61.1821C61.4826 61.4954 62.1495 61.068 61.9811 60.7817C61.518 60.0016 61.5269 59.151 61.8349 58.317L60.9619 58.5224C62.0121 56.0806 63.131 53.5225 63.8001 50.9645C65.6656 43.8215 62.6746 36.0084 64.0194 28.2908C64.3362 26.4796 66.3945 27.4858 66.6404 28.9048C66.2328 30.3778 66.4034 31.911 66.6404 33.3985H66.6382Z" fill="#1F1F1C"/>
<path d="M58.2473 32.7988C57.6426 34.6184 52.697 33.7905 52.3613 34.0544C52.7407 34.6205 52.7062 36.8742 52.8165 36.9827C53.0626 37.2253 58.6404 36.3485 59.6038 38.4554C57.6127 39.5918 55.141 39.9345 52.8096 39.9196L53.2718 42.8522L60.7419 39.0832C61.6846 38.8023 59.3118 41.5838 58.9945 41.8668C57.907 42.8351 54.1133 45.2676 52.6809 44.8931C50.7059 44.378 51.3381 41.0922 50.7702 39.9238C50.5679 39.5088 49.7057 39.113 49.6436 38.8661C49.4367 38.0298 50.6576 38.0809 50.8898 37.7297C50.9657 37.6127 51.4462 35.2717 51.4393 35.0504C51.4071 34.0416 50.1081 34.2332 50.0644 33.7969C50.0552 33.7139 50.5196 32.437 50.5863 32.3945C50.899 32.1902 57.1804 32.7158 58.2496 32.8009L58.2473 32.7988Z" fill="#1F1F1C"/>
<path d="M99.9263 39.482C102.008 38.4664 103.983 37.1358 106.153 36.2543C106.544 36.0968 108.008 35.2409 107.706 36.331C105.157 40.5593 99.0388 43.5166 93.5929 43.6741C93.227 41.462 97.2416 40.7488 97.7361 39.9099C98.401 38.7773 98.6804 35.1856 99.5679 33.5206C99.7755 33.131 101.595 30.9232 101.864 31.0999C103.207 34.0295 100.418 36.6567 99.9263 39.4841V39.482Z" fill="#1F1F1C"/>
<path d="M13.9854 45.979C13.7403 45.9615 13.0934 46.6559 12.0552 45.6123C9.82836 43.375 13.4588 40.7496 14.2003 38.6781C15.2062 38.3328 14.8924 40.3594 14.8043 40.7691C14.5507 41.9667 13.4373 42.7762 13.5619 44.0558C16.5195 44.7931 18.5981 42.6065 21.1365 43.3301C21.8179 44.8691 19.6534 45.7059 18.2198 45.979C16.8291 45.7605 15.3782 45.7001 13.9854 45.979Z" fill="#1F1F1C"/>
<path d="M87.6785 44.9312C85.6989 40.5332 86.6734 35.4286 87.1044 30.7632C87.2924 28.7371 89.325 30.2936 89.3169 32.7285C89.3066 35.633 88.798 40.4136 88.4936 43.4507C88.4302 44.0899 88.4037 44.7703 87.6785 44.9312Z" fill="#1F1F1C"/>
<path d="M97.847 27.7052C97.9306 27.7052 98.5826 27.3181 99.4591 27.3145C100.789 27.3091 102.115 27.8712 103.493 27.707C103.402 29.0916 100.216 29.3681 98.788 29.4627C96.7628 29.2165 94.6945 29.1433 92.6717 29.4627C92.6072 29.4627 92.1582 29.9551 91.5635 29.8017C90.4291 29.5091 90.4315 27.9372 91.7307 27.7052C94.6707 27.8515 96.6864 27.9336 97.7826 27.9532L97.847 27.7052Z" fill="#1F1F1C"/>
<path d="M38.2479 36.7975C37.8182 38.5416 37.9242 40.3084 38.2479 42.0567C38.0889 42.7737 37.6451 43.4372 36.6042 43.6735C34.6283 40.0228 35.552 36.0907 36.6042 32.3477C38.8535 33.2352 38.1503 35.2936 38.2479 36.7975Z" fill="#1F1F1C"/>
<path d="M23.8578 33.1924C24.2611 36.8756 24.1643 40.3693 23.5688 43.6735C22.4953 42.0916 22.7768 41.9916 22.7021 39.9009C22.9162 37.6825 22.8722 35.4151 22.7021 33.1924C22.7285 32.8603 22.5789 32.3451 22.8487 32.3493C23.2388 32.3174 23.651 32.7538 23.8578 33.1924Z" fill="#1F1F1C"/>
<path d="M93.868 37.8226C94.4758 36.3288 94.3771 34.7041 93.5693 32.9486L93.868 32.0054C93.9719 31.7987 93.5797 31.2416 94.1512 31.153C97.3772 30.5538 95.8603 34.3644 95.8941 36.3878C95.9148 37.6496 97.424 39.5697 95.1538 39.8988C93.8992 39.3312 94.1408 38.6223 93.868 37.8226Z" fill="#1F1F1C"/>
<path fill-rule="evenodd" clip-rule="evenodd" d="M56.6081 0.00825159L54.2643 0.843213C55.4411 3.13948 59.2234 -0.107235 59.8972 0.419384C60.186 1.85598 64.0536 10.1921 64.8796 10.3637C69.0451 9.5649 79.6891 8.03887 83.2028 9.99458C87.2246 12.2341 81.5969 15.2659 79.6511 16.2768C77.9133 16.9972 76.5761 16.1288 78.2399 15.0249C84.0166 11.908 83.6085 11.0496 76.6169 10.8334C72.9145 10.719 69.1758 11.2937 65.5427 11.6899C65.3305 12.3719 65.8533 12.8528 66.0134 13.3569L64.8386 13.6665C60.6613 11.8677 56.8975 14.0903 64.8034 13.853L65.5427 14.6118C66.6765 15.0779 65.9151 16.8306 66.0798 17.0297C66.259 17.2478 67.1228 17.3049 67.6384 17.9633C68.1849 18.6624 69.6481 22.0605 69.7751 22.9575C69.6653 23.9682 69.3527 24.248 68.8347 23.7924C68.3523 21.3537 65.5791 19.1224 64.863 17.5375C64.6459 17.0589 65.0869 16.6354 65.0729 16.2817C63.5929 15.9596 62.0265 15.9596 60.3698 16.2817C57.9279 16.6991 55.1634 17.322 52.8552 18.1674C51.6515 18.6086 47.8709 20.871 47.4294 20.8774C45.1313 20.9002 48.1099 16.5487 45.6393 16.7563C44.8272 16.8244 38.1916 19.7752 37.0124 20.3833C32.9925 22.4576 31.0234 23.6258 37.5593 23.3715C43.9423 23.1215 51.9293 21.9768 58.0163 20.4555C58.4839 20.483 58.7967 20.6227 58.9567 20.8725L58.8972 20.9965C58.5614 21.6157 57.8833 21.7855 57.2097 22.0258C50.1677 24.5346 39.7428 27.6998 32.1257 26.1127C29.7197 25.6104 28.0277 23.5363 30.0446 21.7036C33.8926 18.2053 41.1331 16.2768 46.2009 14.5541C45.5946 11.6683 46.2148 8.51304 45.778 5.65474C45.5629 4.24612 43.7704 4.47016 46.3005 2.74556C48.9549 0.936062 53.2757 -0.104042 56.6081 0.00825159ZM58.9518 2.09028C57.9827 2.54578 52.323 4.28427 52.1081 4.5688C51.8169 4.95443 53.5882 10.7584 52.3757 12.104C52.0892 12.6252 52.4019 12.7646 53.3161 12.5209C53.877 12.3811 54.5361 12.2582 55.0778 12.1333C56.3126 11.8472 63.1241 10.926 63.1794 10.229L58.9518 2.09028Z" fill="#1F1F1C"/>
<path fill-rule="evenodd" clip-rule="evenodd" d="M29.3813 32.7973C29.5365 31.9623 30.0903 29.598 31.4389 30.8862C32.68 32.0727 31.6917 32.6072 31.687 32.9653V32.9672C31.2693 34.8953 31.3671 36.8767 31.687 38.809C31.4363 41.6037 30.6081 44.0086 30.2739 46.7397C26.4715 47.299 24.9984 41.2079 26.559 39.059C27.2059 38.1692 28.5862 38.1584 28.7797 37.8979C29.2691 37.2368 29.1879 33.8313 29.3813 32.7973ZM28.6333 40.061C27.1104 41.0441 27.3322 41.9154 27.7905 43.3286C28.0268 44.0575 27.631 44.4133 28.8627 44.2289L28.6333 40.061Z" fill="#1F1F1C"/>
<path fill-rule="evenodd" clip-rule="evenodd" d="M75.8931 32.9668C80.641 34.8929 82.6395 36.8003 78.9634 40.9131C72.7356 47.8797 73.4822 36.1536 75.8931 32.9668ZM75.8931 39.4434C75.8293 39.7905 76.7621 39.682 76.8169 39.6396C76.9543 39.5359 78.6022 37.0825 78.5855 36.9258C78.5472 36.5826 77.8031 36.2121 77.5308 35.8965L75.8931 39.4434Z" fill="#1F1F1C"/>
</svg>
