<svg width="78" height="38" viewBox="0 0 78 38" fill="none" xmlns="http://www.w3.org/2000/svg">
<rect width="78" height="38" rx="9" fill="#919191"/>
<path d="M19.0518 23.455H31.3518V24.49H19.0518V23.455ZM24.5568 20.56H25.7868V23.89H24.5568V20.56ZM20.5518 13.6H29.8218V17.71H21.8118V20.425H20.5818V16.72H28.5918V14.62H20.5518V13.6ZM20.5818 19.9H30.1368V20.92H20.5818V19.9ZM34.1856 14.035H42.9156V15.055H34.1856V14.035ZM32.8506 23.155H45.1056V24.19H32.8506V23.155ZM42.2406 14.035H43.4706V15.4C43.4706 15.97 43.4606 16.58 43.4406 17.23C43.4306 17.87 43.3906 18.58 43.3206 19.36C43.2506 20.14 43.1306 21.02 42.9606 22L41.7006 21.865C41.8806 20.945 42.0056 20.1 42.0756 19.33C42.1556 18.56 42.2006 17.85 42.2106 17.2C42.2306 16.55 42.2406 15.95 42.2406 15.4V14.035ZM56.5194 12.61H57.7644V22.51H56.5194V12.61ZM49.0494 24.85H58.1844V25.87H49.0494V24.85ZM49.0494 21.505H50.2944V25.195H49.0494V21.505ZM50.4894 13.555C51.1694 13.555 51.7744 13.695 52.3044 13.975C52.8344 14.255 53.2544 14.65 53.5644 15.16C53.8744 15.66 54.0294 16.235 54.0294 16.885C54.0294 17.535 53.8744 18.115 53.5644 18.625C53.2544 19.125 52.8344 19.52 52.3044 19.81C51.7744 20.09 51.1694 20.23 50.4894 20.23C49.8194 20.23 49.2144 20.09 48.6744 19.81C48.1444 19.52 47.7244 19.125 47.4144 18.625C47.1044 18.115 46.9494 17.535 46.9494 16.885C46.9494 16.235 47.1044 15.66 47.4144 15.16C47.7244 14.65 48.1444 14.255 48.6744 13.975C49.2144 13.695 49.8194 13.555 50.4894 13.555ZM50.4894 14.635C50.0494 14.635 49.6544 14.73 49.3044 14.92C48.9544 15.11 48.6744 15.375 48.4644 15.715C48.2644 16.055 48.1644 16.445 48.1644 16.885C48.1644 17.335 48.2644 17.73 48.4644 18.07C48.6744 18.4 48.9544 18.66 49.3044 18.85C49.6544 19.04 50.0494 19.135 50.4894 19.135C50.9294 19.135 51.3244 19.04 51.6744 18.85C52.0344 18.66 52.3144 18.4 52.5144 18.07C52.7144 17.73 52.8144 17.335 52.8144 16.885C52.8144 16.445 52.7144 16.055 52.5144 15.715C52.3144 15.375 52.0344 15.11 51.6744 14.92C51.3244 14.73 50.9294 14.635 50.4894 14.635Z" fill="white"/>
</svg>
