<svg width="210" height="210" viewBox="0 0 210 210" fill="none" xmlns="http://www.w3.org/2000/svg">
<path d="M97 47.5L102 75.5H108.5L113.5 47.5L105.5 37L97 47.5Z" fill="#2A4071"/>
<path d="M139.88 58.7809L123.019 81.6871L127.494 86.4006L151.242 70.746L153.347 57.7146L139.88 58.7809Z" fill="#2A4071"/>
<path d="M139.88 149.76L123.019 126.854L127.494 122.14L151.242 137.795L153.347 150.826L139.88 149.76Z" fill="#2A4071"/>
<path d="M70.3768 59.7809L87.2383 82.6871L82.7625 87.4006L59.0152 71.746L56.9097 58.7146L70.3768 59.7809Z" fill="#2A4071"/>
<path d="M70.3768 149.76L87.2383 126.854L82.7625 122.14L59.0152 137.795L56.9097 150.826L70.3768 149.76Z" fill="#2A4071"/>
<path d="M49 95L77 100V106.5L49 111.5L38.5 103.5L49 95Z" fill="#2A4071"/>
<path d="M162 95L134 100V106.5L162 111.5L172.5 103.5L162 95Z" fill="#2A4071"/>
<path d="M96.5 163L101.5 135H108L113 163L105 173.5L96.5 163Z" fill="#2A4071"/>
<path d="M105 18.5L82.5 39.5L96 75.5H98L92.5 45L105 31L118.5 45L112.5 75.5H114L128 39.5L105 18.5Z" fill="#2A4071"/>
<path d="M166.419 44.6129L135.697 42.7571L118.888 77.3358L120.265 78.7861L138.595 53.7959L157.354 53.2202L156.498 72.65L130.249 89.3009L131.282 90.3886L167.028 75.7518L166.419 44.6129Z" fill="#2A4071"/>
<path d="M166.419 163.928L135.697 165.784L118.888 131.205L120.265 129.755L138.595 154.745L157.354 155.321L156.498 135.891L130.249 119.24L131.282 118.152L167.028 132.789L166.419 163.928Z" fill="#2A4071"/>
<path d="M43.8379 45.6129L74.5593 43.7571L91.3691 78.3358L89.9919 79.7861L71.6619 54.7959L52.9024 54.2202L53.7587 73.65L80.0074 90.3009L78.9746 91.3886L43.2288 76.7518L43.8379 45.6129Z" fill="#2A4071"/>
<path d="M43.8379 163.928L74.5593 165.784L91.3691 131.205L89.9919 129.755L71.6619 154.745L52.9024 155.321L53.7587 135.891L80.0074 119.24L78.9746 118.152L43.2288 132.789L43.8379 163.928Z" fill="#2A4071"/>
<path d="M20 103L41 80.5L77 94V96L46.5 90.5L32.5 103L46.5 116.5L77 110.5V112L41 126L20 103Z" fill="#2A4071"/>
<path d="M191 103L170 80.5L134 94V96L164.5 90.5L178.5 103L164.5 116.5L134 110.5V112L170 126L191 103Z" fill="#2A4071"/>
<path d="M104.5 192L82 171L95.5 135H97.5L92 165.5L104.5 179.5L118 165.5L112 135H113.5L127.5 171L104.5 192Z" fill="#2A4071"/>
<circle cx="105" cy="105" r="90.5" stroke="#2A4071" stroke-width="5"/>
<circle cx="105" cy="105" r="102.5" stroke="#2A4071" stroke-width="5"/>
<circle cx="105" cy="105" r="24" fill="#2A4071"/>
</svg>
