<svg width="144" height="148" viewBox="0 0 144 148" fill="none" xmlns="http://www.w3.org/2000/svg">
<g filter="url(#filter0_fn_421_37293)">
<path d="M1.35156 73.625C1.35156 34.9651 32.6916 3.625 71.3516 3.625C110.011 3.625 141.352 34.9651 141.352 73.625C141.352 112.285 110.011 143.625 71.3516 143.625C32.6916 143.625 1.35156 112.285 1.35156 73.625Z" fill="#A5E9A1"/>
<path d="M108.862 8.38489C108.226 7.33552 111.135 9.48016 109.514 7.51713C109.977 7.71669 110.442 7.92096 110.902 8.12996C110.843 8.47315 110.786 8.81697 110.724 9.15921C110.106 8.8931 109.487 8.63634 108.861 8.38626C108.862 8.38581 108.862 8.38535 108.862 8.38489ZM106.09 11.4802C107.04 10.9484 108.79 11.6817 107.463 9.93021C107.166 10.1265 106.867 10.3222 106.573 10.5215C106.086 9.96662 105.585 9.41606 105.076 8.87416C104.796 8.8646 104.516 8.857 104.238 8.84964C104.203 8.21286 104.163 7.57454 104.113 6.9337C104.338 7.13467 104.565 7.33971 104.787 7.54281C106.012 7.66388 106.981 8.03556 108.387 8.7404C108.332 8.5587 108.275 8.37782 108.219 8.19604C108.807 8.78308 109.381 9.37772 109.941 9.9771C109.242 9.8071 108.461 9.62965 107.813 9.49448C108.26 10.7389 110.003 11.2317 110.882 11.5841C112.073 12.0589 111.608 12.2493 112.478 12.6239C112.616 12.6851 112.812 12.4276 113.059 12.5902C114.319 13.4037 116.52 15.2802 114.722 14.8751C112.819 13.3527 110.769 12.7097 108.86 11.2965C108.941 12.3665 107.734 11.9596 106.09 11.4802ZM137.94 41.4189C137.237 40.9301 136.71 39.5134 136.475 38.4708C136.475 38.4698 136.474 38.4687 136.474 38.4677C136.424 38.2393 136.668 37.5151 137.004 38.1808C137.547 39.2713 137.02 40.1919 137.84 40.4885C137.867 40.7927 137.91 41.1039 137.94 41.4189ZM139.086 43.7718C139.184 44.5366 138.442 44.4911 138.233 43.5831C138.233 43.5833 138.232 43.5835 138.232 43.5838C138.142 43.2051 138.936 43.6682 137.875 42.6433C138.133 42.2136 138.356 41.8004 138.597 41.3729C138.75 41.6775 138.893 41.9543 139.049 42.2771C138.328 42.3469 138.985 43.0064 139.086 43.7718ZM115.936 15.3174C116.401 14.9004 116.017 14.6066 115.603 13.7686C116.223 14.2526 116.835 14.7482 117.436 15.2492C116.933 15.2661 116.435 15.2898 115.936 15.3174ZM100.283 6.04828C100.282 6.04782 100.28 6.04735 100.279 6.04689C100.007 6.03536 99.7343 6.02588 99.467 6.01806C99.4116 5.75747 99.356 5.49831 99.2977 5.23751C98.384 5.08615 97.4651 4.95081 96.5502 4.83625C96.8842 4.24184 98.3645 4.91382 99.369 4.82355C100.528 5.51571 100.957 6.13883 100.805 6.69074C100.633 6.47686 100.461 6.26231 100.283 6.04828ZM56.9233 142.975C56.6009 143.098 56.2805 143.219 55.9549 143.338C56.3163 143.504 56.6829 143.647 57.0479 143.822C58.208 143.229 58.1602 143.95 59.4989 144.129C63.6088 144.593 62.6181 143.2 66.1633 145.352C63.1802 145.021 64.2577 145.974 62.3451 146.429C62.0352 145.884 63.9557 144.96 62.775 144.584C60.6467 144.866 58.5552 145.038 56.1815 144.891C56.2308 144.99 56.2801 145.09 56.33 145.19C56.711 145.213 57.0822 145.231 57.4599 145.248C57.0196 145.401 56.5884 145.551 56.1318 145.697C56.7527 145.286 55.3876 145.299 55.6933 144.739C55.829 144.491 56.4761 144.245 56.8615 144.058C56.0282 143.743 55.1811 143.421 54.3591 143.079C54.8531 142.977 55.3444 142.869 55.8304 142.756C56.1928 142.83 56.5529 142.902 56.9171 142.971C56.9192 142.972 56.9212 142.973 56.9233 142.975ZM48.6352 3.5501C47.7386 4.49822 45.8676 5.27852 44.5956 5.02673C45.9309 4.4941 47.271 4.00343 48.6352 3.5501ZM100.695 7.15359C100.622 7.00377 100.551 6.85667 100.477 6.70698C101.074 6.75028 101.676 6.80389 102.275 6.86266C102.244 7.19038 102.213 7.51883 102.182 7.84596C101.69 7.61071 101.192 7.37803 100.695 7.15359ZM129.002 28.8565C128.733 28.5424 128.719 28.5073 128.433 28.0772C128.433 28.0779 128.433 28.0785 128.434 28.0791C128.324 27.9069 127.377 26.4734 127.679 26.4671C128.23 27.1181 128.798 27.8269 129.334 28.5153C129.227 28.6328 129.107 28.7332 129.002 28.8565ZM122.465 21.3267C122.465 21.3255 122.464 21.3243 122.464 21.3231C122.268 21.0814 122.109 20.8247 121.887 20.5946C122.979 21.1209 122.635 21.7322 123.503 22.3364C124.368 22.9437 125.092 23.1685 125.008 24.4444C124.685 24.2967 124.3 24.1742 123.953 24.0415C123.213 22.725 122.676 22.6835 121.59 22.1263C121.882 21.859 122.172 21.5935 122.465 21.3267ZM75.0842 146.223C75.3421 145.752 75.6791 146.182 75.7128 146.185C75.7122 146.186 75.7117 146.187 75.7111 146.187C78.1695 145.595 75.405 146.476 77.7609 146.363C77.4217 146.507 77.0864 146.655 76.7459 146.796C76.19 146.615 75.6191 146.399 75.0842 146.223ZM138.183 102.375C138.314 102.407 138.448 102.434 138.579 102.466C137.986 103.756 138.306 104.308 137.368 105.172C137.658 104.243 137.929 103.311 138.182 102.374C138.182 102.375 138.183 102.375 138.183 102.375ZM132.288 35.2214C131.242 34.0458 130.517 33.1721 129.98 31.7243C129.98 31.723 129.98 31.7218 129.979 31.7205C129.949 31.6358 130.418 31.8132 130.41 31.681C130.197 31.4532 129.958 31.232 129.734 31.0098C129.89 30.844 130.046 30.6796 130.199 30.514C130.672 31.2652 131.131 32.0248 131.578 32.7944C131.612 32.6127 131.643 32.4286 131.676 32.2462C132.16 32.8326 132.633 33.4226 133.1 34.0248C132.65 34.0006 132.2 33.9811 131.753 33.9686C131.935 34.385 132.116 34.8018 132.288 35.2214ZM124.48 121.143C124.751 121.058 124.631 121.558 124.978 121.358C125.325 121.156 125.581 120.447 125.783 120.84C125.487 121.265 125.175 121.712 124.864 122.14C126.559 121.379 127.133 119.627 127.852 120.19C126.62 121.308 125.817 122.386 124.912 123.726C124.435 123.18 125.029 121.603 123.863 121.869C124.069 121.631 124.28 121.377 124.479 121.147C124.479 121.146 124.48 121.145 124.48 121.143ZM77.7643 10.3942C76.9319 10.2485 74.9734 10.4011 73.9265 9.94445C73.6733 9.82837 72.8209 8.45575 72.8247 8.27925C72.8618 7.6804 73.9829 7.62852 72.7957 7.20805C73.1994 7.21262 73.591 7.20197 73.9906 7.20676C73.9347 6.802 73.8779 6.3984 73.8224 5.99522C73.3253 6.03797 72.8274 6.08637 72.3302 6.1412C72.3077 6.00768 72.2852 5.87386 72.2624 5.74036C74.0556 5.77278 73.0073 5.23681 73.9614 4.78715C73.1056 4.51296 72.2302 4.25553 71.3516 4.01345C71.8587 4.04271 72.4547 4.07183 72.8982 4.1168C72.9742 3.43462 71.9001 3.58009 71.7168 3.45502C70.6882 2.70646 75.9473 3.19514 76.4625 2.28754C75.6153 2.11696 74.7203 1.96203 73.85 1.82343C74.1055 1.70966 74.3652 1.59729 74.6227 1.48623C76.595 2.25885 78.7786 2.68517 80.9982 3.41824C81.2068 3.41814 81.4159 3.41828 81.6211 3.42087C81.6055 3.10742 81.5921 2.79555 81.575 2.48202C81.8935 2.49071 82.2124 2.50183 82.534 2.51524C81.4552 3.37961 82.7486 3.54515 84.1407 4.43047C83.2795 4.6328 82.3264 4.26347 82.2909 4.93065C85.1221 4.85336 88.1162 6.26414 90.8547 6.46599C91.5365 6.51956 91.7793 5.68515 93.2821 6.24962C93.2014 6.32241 93.1401 6.48131 93.0687 6.5883C95.7998 7.05609 97.4879 7.43265 99.9452 8.96236C99.9187 8.61382 99.8929 8.26484 99.8619 7.9156C99.2348 7.81039 98.6097 7.71741 97.9887 7.63194C97.79 7.00765 98.4553 7.01605 96.7312 6.35956C95.3117 5.83616 96.079 6.36158 95.6432 6.36201C95.0557 6.36879 94.7309 5.82663 94.0921 5.8546C93.5998 5.87765 93.9409 6.42669 92.8384 5.96043C93.4602 5.58745 94.1055 5.20861 94.7499 4.84655C94.992 5.05821 95.2291 5.27209 95.4663 5.48734C95.1363 5.52468 94.8125 5.56414 94.4843 5.60601C95.5589 5.69616 96.5769 5.8042 97.6961 5.94953C97.0817 6.55331 98.2342 6.68504 98.8332 6.83422C99.7663 7.065 98.8069 7.25041 99.4141 7.40817C100.02 7.56694 100.885 7.28117 101.859 7.87492C101.164 7.93847 101.777 8.56795 101.496 8.79383C101.217 9.01799 100.124 8.59797 100.998 9.38576C103.068 10.0649 101.465 7.94422 102.888 8.40336C104.616 8.98219 104.05 10.9675 103.393 11.1087C102.878 11.2212 101.653 10.5404 101.141 10.6753C103.11 12.3011 103.656 11.2692 104.154 11.2561C105.941 11.2424 103.929 12.7441 105.931 12.9189C105.689 13.2732 105.475 13.5937 105.242 13.9335C105.551 14.02 105.783 14.0335 106.14 14.171C105.593 12.8894 106.367 13.3769 106.776 13.6182C107.419 13.9968 106.634 13.0586 106.857 13.0689C107.462 13.0977 108.125 13.6514 107.868 13.0658C107.981 13.3334 108.109 13.6126 108.224 13.8831C109.073 14.1512 111.815 13.8128 109.933 13.0227C110.448 12.564 110.828 13.1879 111.194 13.5534C111.561 13.9191 111.789 13.5637 112.116 13.8814C113.407 15.1546 112.028 15.077 111.483 15.3885C113.594 16.4055 111.91 14.8499 114.762 16.6464C115.306 16.4793 114.347 15.1342 115.555 15.7166C115.261 16.504 115.677 17.5307 116.926 18.915C117.182 18.8883 117.439 18.8615 117.696 18.8376C117.989 20.0644 117.089 20.2866 119.089 20.8431C117.215 21.4346 118.466 21.0814 119.199 22.7077C119.346 23.036 118.548 22.767 118.763 23.2127C118.86 23.4134 119.412 23.5717 119.635 24.0748C119.747 24.3222 120.107 25.5942 120.88 25.9557C121.055 24.9582 122.636 25.5956 122.193 24.1615C123.802 26.0694 125.22 27.1019 122.538 25.8122C122.783 26.4371 123.018 27.0624 123.243 27.6877C123.675 27.8803 124.107 28.0821 124.538 28.2888C124.066 28.7777 123.892 28.8386 125.054 30.0702C124.469 29.6012 123.877 29.1462 123.277 28.6979C123.158 28.768 122.985 28.7839 122.902 28.8888C123.69 29.383 125.367 31.2702 125.874 31.6544C126.39 32.0318 125.705 31.0626 125.949 31.0959C127.99 31.3976 127.081 31.9546 127.908 32.6664C128.396 33.0903 127.638 31.7822 127.886 32.0177C128.811 32.8965 128.523 33.8129 129.132 34.7277C129.271 34.1616 129.411 33.59 129.545 33.0212C130.203 34.0003 130.92 35.0941 131.619 35.9508C131.893 36.2875 131.993 35.8416 132.048 35.8899C132.331 36.1268 133.218 37.263 133.293 37.3955C133.869 38.3823 133.498 38.6298 134.007 39.6079C133.767 39.2453 133.539 38.9061 133.299 38.5565C132.577 38.7451 131.856 38.936 131.137 39.1364C131.615 40.068 132.073 41.0106 132.508 41.9626C132.37 41.1731 132.214 40.381 132.045 39.5883C133.146 40.3582 134.232 41.1634 135.306 42.0158C135.272 42.7538 135.224 43.482 135.165 44.2084C135.963 45.7339 137.15 44.8527 136.307 46.1103C136.605 46.5378 136.899 46.9692 137.188 47.4063C136.992 47.4054 136.796 47.406 136.601 47.4064C136.933 47.9335 137.258 48.4672 137.58 49.0066C137.956 48.174 138.354 47.3281 138.686 46.4832C139.279 47.5902 138.771 47.8124 138.711 48.0322C138.549 48.6161 139.337 49.3598 139.15 49.8382C139.086 49.997 138.343 48.9877 138.093 49.5179C138.05 49.6281 137.138 51.6123 137.769 52.4528C138.026 52.3512 138.325 52.174 138.598 52.043C139.176 53.3033 137.974 54.3689 137.539 54.3088C138.011 54.9105 138.303 55.9142 138.767 55.9462C138.87 56.3005 138.969 56.6474 139.066 57.0011C137.935 56.891 138.476 58.3059 139.397 58.2054C139.28 57.5847 139.156 56.9655 139.023 56.3499C140.226 56.5387 140.472 54.4866 140.356 58.6698C139.945 59.5473 140.139 57.3139 139.844 58.0234C139.833 59.1392 140.245 60.095 140.024 61.1797C139.732 62.527 139.012 61.0542 140.099 63.8769C140.641 57.1301 141.46 64.5773 142.144 67.6803C140.78 68.5692 140.393 70.676 140.617 73.625C140.617 73.625 140.617 73.625 140.617 73.625C140.646 74.0083 140.685 74.4053 140.733 74.8155C141.002 74.601 141.037 74.1185 141.045 73.625C141.045 73.625 141.045 73.625 141.045 73.625C141.052 73.2801 141.045 72.9313 141.103 72.6626C141.24 72.0086 141.52 72.711 141.713 71.8907C141.908 71.0707 142.11 69.3215 142.361 68.4599C142.686 69.1472 143.418 72.6308 142.605 70.3455C142.328 71.6463 142.004 72.4263 141.821 73.625C141.759 74.0296 141.711 74.4806 141.68 75.0138C142.362 75.6627 142.822 75.6295 142.735 77.7196C141.831 76.4385 141.021 78.7504 140.046 78.1646C140.366 76.7464 141.296 77.5989 141.805 76.782C141.858 76.6974 141.66 75.3297 141.68 75.0138C140.771 76.3691 140.416 76.7935 139.403 75.9412C139.463 76.8827 139.296 77.4586 139.79 77.5747C139.562 77.7602 139.334 77.9447 139.105 78.123C139.091 78.4286 139.091 78.7044 139.062 79.0266C139.846 78.6393 139.32 79.4675 139.601 80.1121C139.879 80.763 140.565 79.9817 140.384 81.7041C140.625 81.1515 140.83 80.6394 141.047 80.1C141.138 81.2271 141.201 82.3828 141.236 83.524C141.807 82.8107 142.681 81.1513 143.275 81.2565C142.999 81.7647 143.168 83.6244 143.151 83.8261C143.102 84.6015 142.784 84.1281 142.767 84.1849C142.408 85.3557 142.357 86.367 141.706 86.7106C141.797 87.647 141.515 88.2892 141.322 89.2319C141.215 89.7498 141.651 89.7444 141.502 90.0293C140.481 91.9118 140.485 89.855 140.422 93.9675C140.842 93.5886 141.264 93.2101 141.68 92.8165C141.668 93.2863 141.653 93.7541 141.632 94.2245C141.494 94.5032 141.355 94.7777 141.214 95.0536C140.603 94.8593 139.99 94.6636 139.378 94.4697C139.25 94.7701 139.119 95.0742 138.986 95.3741C139.097 94.8204 139.201 94.2688 139.298 93.7167C139.204 93.6359 139.109 93.5585 139.015 93.4782C138.616 94.2186 138.203 94.9481 137.778 95.6704C137.985 95.7556 138.193 95.8412 138.4 95.9267C137.506 97.5923 137.319 97.5484 137.257 99.4253C136.754 100.689 137.171 102.077 137.2 102.976C136.968 103.189 136.733 103.399 136.498 103.61C136.59 103.854 136.679 104.101 136.768 104.348C136.378 104.57 135.985 104.791 135.595 105.005C136.03 105.444 136.155 105.628 136.957 104.419C137.419 105.177 135.989 107.335 135.274 108.113C134.737 108.712 134.618 107.659 134.505 107.711C134.133 107.876 133.702 109.093 133.529 109.304C132.814 110.196 132.431 110.887 131.774 111.679C131.645 111.833 131.022 112.09 130.987 112.122C130.735 112.393 130.083 113.035 130.021 113.115C126.761 117.249 131.425 113.644 128.331 117.52C128.596 117.537 128.854 117.561 129.118 117.578C128.899 117.887 128.675 118.197 128.452 118.503C128.009 118.765 128.109 118.104 127.726 119.014C127.554 118.795 127.38 118.577 127.21 118.357C127.068 118.768 126.932 119.166 126.775 119.584C125.634 119.5 123.908 121.137 123.195 120.263C122.959 119.969 123.749 118.483 122.876 118.868C122.354 119.339 123.004 119.283 122.832 119.513C121.562 121.164 121.171 120.63 120.713 121.356C120.815 121.64 120.914 121.932 121.013 122.222C120.731 122.396 120.448 122.569 120.163 122.741C120.238 122.922 120.31 123.106 120.384 123.289C120.609 123.083 120.86 122.849 121.065 122.659C121.314 123.442 118.898 126.171 119.49 124.784C119.732 124.225 120.531 123.59 119.492 123.44C118.893 124.187 118.183 125.012 117.509 125.768C117.367 125.655 117.227 125.54 117.085 125.426C116.149 126.4 117.54 126.134 117.794 126.42C117.567 126.635 117.334 126.849 117.103 127.061C116.89 127.016 116.676 126.96 116.462 126.921C116.631 127.138 116.913 127.746 116.038 128.159C115.475 128.417 115.766 127.286 114.944 128.074C115.277 128.357 115.937 128.508 115.016 129.412C114.638 129.138 114.248 128.92 113.882 128.606C112.896 129.907 111.917 129.771 110.69 131.228C109.916 132.148 109.133 133.984 107.575 132.898C106.824 133.302 107.277 133.53 107.11 133.745C106.311 134.756 105.118 134.472 104.904 134.536C103.516 134.943 103.084 135.483 101.88 135.648C102.078 135.908 102.244 136.166 102.428 136.425C103.167 135.517 103.646 135.3 105.001 134.676C104.595 134.974 104.188 135.268 103.775 135.558C103.969 135.751 104.162 135.944 104.354 136.136C107.911 132.991 107.821 134.932 104.5 137.134C103.973 136.865 103.442 136.596 102.928 136.313C101.24 137.97 99.9895 137.851 97.5982 138.669C97.3148 138.767 96.3927 139.426 95.951 139.603C95.959 139.602 95.9671 139.601 95.9751 139.6C95.8572 140.13 96.3059 140.187 96.4953 140.551C96.2694 140.691 96.0407 140.829 95.8139 140.966C95.1609 140.87 95.2715 140.566 94.2189 141.005C94.4637 141.249 94.7084 141.492 94.9566 141.734C93.7641 142.156 92.8704 142.088 91.7931 142.56C91.9488 142.392 92.1008 142.224 92.254 142.055C89.7354 142.486 91.1762 140.177 89.5949 141.555C89.4376 141.433 89.2835 141.308 89.1275 141.185C89.8669 140.951 90.6008 140.706 91.3246 140.449C91.2754 140.229 91.2275 140.01 91.175 139.791C90.413 140.09 89.6396 140.378 88.8615 140.65C89.4039 140.353 89.9428 140.049 90.4716 139.739C89.5365 139.897 88.5921 140.037 87.6586 140.154C88.8278 140.716 87.5909 141.126 88.0204 141.862C86.1935 141.597 84.7592 141.005 82.2847 141.99C81.7916 142.181 82.15 142.715 80.6011 142.226C81.0818 143.084 79.2834 143.739 79.616 144.567C80.1355 144.465 80.6737 144.37 81.1709 144.25C80.5542 144.031 80.3624 143.225 81.1826 142.865C82.2209 142.409 83.9116 142.692 83.6823 141.8C84.119 141.766 84.5219 141.715 84.9439 141.668C84.8174 141.925 84.6928 142.182 84.5655 142.438C85.6887 141.86 86.4546 141.806 87.1563 142.233C85.7591 142.689 84.3576 143.098 82.9271 143.466C83.1472 143.469 83.3703 143.471 83.5903 143.471C82.586 144.231 83.8214 144.603 81.754 145.044C81.7285 144.777 81.7004 144.51 81.6745 144.242C81.0307 145.068 78.9241 145.307 79.6879 146.047C79.0199 145.868 78.8734 145.72 78.558 146.198C76.8126 145.739 75.7024 145.001 76.2268 144.023C75.6292 144.216 75.0202 144.402 74.4226 144.58C74.7861 144.823 75.154 145.062 75.5288 145.299C74.4478 145.345 73.3718 145.366 72.2928 145.366C72.182 144.61 74.3533 145.084 73.7091 144.418C73.5815 144.286 73.0173 144.595 72.8642 144.52C71.2649 143.713 73.7611 144.271 73.2775 143.638C71.6298 143.535 72.062 142.949 71.3516 142.94C71.0508 142.933 70.5478 143.028 69.5899 143.273C69.5108 143.051 69.4264 142.823 69.3551 142.602C68.2557 142.553 68.3308 143.054 67.3685 143.097C66.7615 143.122 66.0825 142.198 65.3818 142.736C65.2518 142.831 66.282 144.01 63.9361 143.736C62.1106 143.497 62.9617 142.829 62.0256 142.44C61.1093 142.058 58.703 142.717 58.2809 141.418C58.7503 141.668 59.3753 141.867 59.9157 142.087C60.1819 141.897 60.4397 141.706 60.6988 141.514C59.3719 141.611 58.135 141.017 57.1736 141.379C55.6596 140.209 53.6378 140.482 53.8973 141.534C54.4876 141.542 53.9834 140.988 54.6909 141.436C54.7173 141.671 54.749 141.906 54.777 142.141C53.4563 141.794 52.5369 141.539 53.3137 141.05C53.1143 140.98 52.9172 140.91 52.7188 140.838C52.552 141.3 52.388 141.765 52.2197 142.227C51.9579 142.211 51.6951 142.193 51.4332 142.175C51.1891 141.992 50.9466 141.806 50.7037 141.619C51.3003 140.985 51.9138 141.16 49.9978 140.106C49.91 140.359 49.8196 140.61 49.7317 140.863C48.1107 139.97 48.2908 139.357 46.1794 138.582C48.1094 138.331 48.4449 140.172 49.0496 138.411C49.4115 138.665 49.7801 138.919 50.1498 139.167C50.2949 138.93 50.439 138.692 50.5798 138.453C48.3999 137.936 44.1616 138.168 43.2257 136.43C42.9974 136.485 42.7755 136.522 42.5386 136.583C41.4792 135.308 40.1802 136.451 39.2327 134.921C39.1411 134.759 40.1148 133.598 38.3828 132.704C38.3301 132.898 38.1923 133.197 38.1074 133.432C37.7919 133.119 37.4851 132.8 37.1818 132.482C37.0251 132.599 36.8647 132.714 36.7064 132.832C37.3014 133.262 37.9025 133.684 38.5141 134.096C37.9486 133.859 37.3824 133.612 36.8227 133.359C37.3658 134.013 37.6861 134.192 37.0304 134.365C36.4074 134.045 35.7877 133.716 35.1748 133.377C35.0504 133.443 34.9253 133.51 34.8003 133.575C34.9037 134.061 35.0187 134.542 35.1306 135.033C33.6811 133.833 32.3316 132.934 31.5692 131.55C31.4405 131.313 32.401 131.416 30.8228 130.826C30.9462 130.608 31.0277 130.418 31.1382 130.215C29.1251 129.623 28.7024 129.042 27.4179 127.355C28.1612 128.562 27.4253 127.575 27.002 127.551C26.7099 127.536 27.4358 128.097 27.2419 128.172C27.0494 128.251 25.6532 128.044 26.397 128.769C29.2964 129.179 28.7438 131.025 31.8483 132.29C31.3265 132.17 30.8009 132.042 30.2786 131.908C30.3972 132.152 30.5039 132.371 30.6372 132.631C29.3029 131.34 29.9271 132.007 29.1785 131.754C28.4316 131.499 27.21 130.821 26.4462 130.292C26.2057 130.126 26.653 130.056 26.1618 129.621C25.8287 129.328 24.568 128.923 24.7343 128.292C24.8494 127.888 26.9814 128.338 24.9685 126.609C24.8397 126 25.7181 126.921 25.7698 126.903C26.2286 126.714 25.2319 125.413 24.4579 125.159C24.3928 125.14 24.5989 125.794 24.0306 125.461C22.6809 124.664 22.3161 123.747 22.0036 122.674C21.4867 123.046 20.0261 122.652 19.1041 121.295C18.9152 121.356 18.7275 121.42 18.5371 121.48C18.7776 121.603 19.0175 121.726 19.2586 121.846C19.3622 122.124 19.5015 122.393 19.5902 122.68C18.3564 121.594 17.5633 121.993 16.793 121.604C14.1736 120.231 17.0147 120.013 17.6216 120.113C17.7286 120.481 17.8174 120.853 17.9231 121.224C18.0611 121.049 18.2003 120.873 18.3419 120.701C15.7228 117.682 19.01 119.317 18.0375 117.53C16.8848 117.827 15.8475 116.728 15.2918 114.817C15.1651 114.654 15.0419 114.487 14.9155 114.324C14.7679 114.388 14.5732 114.529 14.456 114.544C12.9859 112.797 14.1732 111.526 14.1859 111.271C14.2603 110.117 13.0669 110.026 12.9122 109.793C12.2741 108.821 12.4743 108.316 11.7679 107.455C11.0129 106.521 11.1231 107.387 10.6887 107.214C10.3405 107.072 9.85306 106.259 9.45744 106.023C9.70558 106.069 9.95828 106.131 10.2065 106.173C9.86432 104.953 9.64526 103.935 9.11378 102.646C7.1211 101.811 8.85113 99.579 7.23767 100.867C7.64049 102.155 7.75283 102.927 7.60491 103.8C7.16529 103.023 6.74063 102.235 6.32893 101.438C6.42649 101.112 6.55036 100.86 6.63804 100.493C5.95264 100.061 5.57397 98.5489 5.2412 98.0267C3.6928 95.5794 3.2098 96.6099 3.71103 93.7415C4.37829 95.4898 4.99131 95.2897 5.50888 97.0469C5.80831 96.5206 5.42137 95.6792 6.13621 96.0651C5.44715 94.4483 5.16433 95.1349 4.53568 94.6085C3.99422 94.1525 3.63579 92.997 3.18496 93.1962C3.40957 93.0023 3.63421 92.839 3.85984 92.6479C3.5442 91.5356 3.25983 90.4193 3.00038 89.295C3.38401 89.7122 3.77168 90.1214 4.16095 90.5235C4.17486 90.1423 4.19142 89.7613 4.21164 89.3812C2.6659 86.8289 3.59619 81.7934 1.53357 82.85C1.29063 81.4956 1.55264 81.2839 1.891 80.5077C1.71709 80.4431 1.57142 80.3774 1.37892 80.3133C1.47079 79.4221 0.795339 78.7913 0.909032 77.9936C1.02336 77.1965 1.60883 76.9808 0.609768 76.9121C0.871491 76.3925 1.09067 75.882 1.34331 75.3746C1.11012 75.078 0.881387 74.7783 0.653315 74.4782C0.720183 74.1936 0.788559 73.909 0.858649 73.625C0.858649 73.625 0.858649 73.625 0.858649 73.625C0.906705 73.4303 0.955567 73.2361 1.00529 73.0427C0.52748 72.7823 0.772008 70.9108 0.501525 70.0749C1.0568 69.3118 2.64788 69.4302 2.50534 67.6165C2.10335 67.6286 1.70254 67.6409 1.30051 67.6546C1.41881 67.2431 1.54039 66.8339 1.6661 66.4237C1.79838 66.4118 1.93032 66.4033 2.0626 66.3917C2.00049 66.6006 1.94015 66.8035 1.8787 67.0117C2.11566 66.8485 2.35174 66.6914 2.58949 66.5347C2.32855 65.8709 2.07703 65.1998 1.83556 64.5202C1.47885 65.3457 1.13532 66.1965 0.809207 67.0387C0.619109 65.9204 0.999099 65.181 0.799162 64.1916C1.45762 63.4391 1.73048 63.7946 2.27862 64.2023C2.26863 63.8946 2.26291 63.5836 2.25696 63.2758C2.82323 63.5613 3.23574 63.1069 2.95672 64.8406C3.14133 64.7422 3.31857 64.6414 3.50982 64.5489C3.5209 64.2617 3.68906 64.0981 3.66832 63.7794C3.61026 62.9167 2.686 62.0837 2.31217 62.0817C2.11498 62.0824 2.34379 62.9953 2.08044 62.9194C1.43647 62.7365 2.03549 60.7931 0.940166 63.5545C0.658412 62.5446 1.00827 62.3688 1.30766 61.3441C1.07485 61.388 0.843839 61.4305 0.611586 61.4728C0.796012 60.9995 0.984822 60.5293 1.17838 60.0636C2.16686 60.9276 3.27696 57.5434 3.63855 60.8535C3.86049 59.9468 4.1018 59.0419 4.36292 58.1471C4.43398 58.3601 4.50488 58.5723 4.57789 58.784C4.4271 59.1791 4.28076 59.5767 4.13861 59.9748C4.44573 59.5343 4.75691 59.0946 5.07271 58.6648C5.06978 57.4794 4.78949 56.9425 4.43478 56.297C3.74421 57.5313 4.33876 57.221 4.19501 58.2762C3.89259 58.1691 3.59575 58.1524 3.29031 57.9862C4.05099 57.5913 4.02302 55.7373 4.10982 55.3177C4.35642 54.059 4.71172 55.1979 4.95711 54.3854C5.20348 53.5779 5.13631 52.4994 5.96557 52.0417C5.6194 51.9405 5.24777 51.8766 4.92022 51.8222C5.23013 50.5148 5.55391 50.9094 5.64924 50.7966C7.2326 49.0391 6.93388 47.6809 7.86466 45.3339C7.63274 45.5796 7.41074 45.8352 7.18649 46.0913C7.25467 44.0379 6.93532 45.297 6.06205 46.7422C6.73041 45.3304 6.50922 44.2463 6.80953 43.1517C7.10681 42.0546 8.28464 40.4937 8.8472 40.0121C8.46421 41.6069 7.45448 43.0138 6.8367 44.6709C7.25372 44.6388 7.61663 44.5914 8.0682 44.5751C7.81139 43.291 8.55432 42.9545 8.79868 42.6901C9.52288 41.911 8.92418 41.6373 9.83953 41.4192C9.61118 41.3277 9.42038 41.2484 9.20615 41.1647C10.28 39.3227 11.8081 37.6038 11.7895 35.9526C12.3539 36.1604 12.8824 36.3849 13.4643 36.5889C13.5693 35.6057 14.3692 35.2263 14.7049 34.558C15.0428 33.8914 14.4898 33.8495 14.8521 33.0279C14.9202 32.8756 15.3583 32.7771 15.4194 32.3258C15.4717 31.8763 15.0987 29.6695 16.3409 30.4129C16.8152 29.8209 17.3079 29.2979 17.8034 28.7449C17.4003 29.3509 17.0061 29.9597 16.6256 30.5732C17.2782 30.3058 17.9278 30.0532 18.5813 29.8099C18.3927 29.5528 18.2007 29.2911 18.0147 29.0375C18.7926 27.5269 19.9732 26.9639 21.0297 25.6767C21.2088 25.4618 20.3063 25.5128 21.2839 24.7277C22.2738 23.946 23.7038 24.1201 24.9445 22.3905C25.0052 22.3048 24.8871 21.2308 25.8562 21.1914C26.0745 21.183 25.6672 21.8078 26.0803 21.6863C26.4897 21.5602 27.9166 20.5568 28.2938 20.8096C28.1835 20.7035 28.0004 20.6498 27.8617 20.5636C28.0445 20.3196 28.2316 20.0745 28.4216 19.8314C28.6104 20.0232 28.801 20.2141 28.9886 20.4052C29.9243 18.8764 30.0312 17.4989 32.3285 16.3217C31.5166 16.405 30.7002 16.503 29.8846 16.6162C29.8841 16.9545 29.8867 17.2938 29.8934 17.6289C28.8796 18.2451 27.8767 18.8916 26.8918 19.5614C26.9387 19.9254 26.9899 20.2856 27.0417 20.6476C26.7776 20.8161 26.5175 20.9855 26.2553 21.1579C26.1678 20.9368 26.0822 20.7158 25.9984 20.4919C25.5612 20.938 25.1308 21.3907 24.7092 21.8449C24.7602 19.9988 27.451 19.6375 26.6175 18.8925C26.9453 18.8467 27.2736 18.8041 27.6012 18.7645C27.3619 18.2682 27.9068 18.0263 28.7624 17.4819C28.4177 17.4108 28.0546 17.3601 27.7208 17.2802C28.7321 16.9631 30.1202 15.8982 31.0465 15.4366C31.4514 15.2332 31.3047 15.8088 31.4404 15.7708C32.1313 15.5801 32.8383 14.2986 33.1019 14.1957C34.6611 13.5777 36.1991 14.1536 37.311 12.5526C35.6215 13.2689 36.5297 12.8572 35.7279 12.7751C35.478 12.7482 33.2716 13.7035 35.9078 12.3002C36.2118 12.0849 41.3887 10.3989 40.1287 11.8215C40.795 11.2406 41.2929 10.7201 41.9126 10.1762C44.4085 11.0152 43.1153 9.75177 42.2134 9.13397C42.5046 8.9978 42.7804 8.86484 43.0842 8.73229C42.8409 9.8941 46.0995 8.57194 47.0743 7.7157C47.3995 7.42097 46.2219 7.52132 47.056 7.05647C47.5004 6.96711 48.009 6.88121 48.4813 6.80077C47.6279 6.43906 48.8326 5.77486 48.6208 5.1847C49.6365 5.43885 50.6143 6.38442 50.359 7.13885C50.9511 6.67847 51.5533 6.22643 52.1661 5.78092C51.8082 5.72678 51.4453 5.67785 51.0851 5.62925C53.4166 5.3301 56.1476 3.79809 56.9018 5.00022C57.2011 4.92789 57.5005 4.85893 57.7985 4.79101C57.8482 4.55369 57.8957 4.31657 57.9474 4.07927C59.3536 4.00697 60.7644 3.97772 62.1589 3.99082C60.9539 4.29313 60.7199 4.64889 59.4018 4.60842C59.9356 4.77722 60.4779 4.95171 60.9921 5.13437C62.7859 4.18437 63.0337 3.66814 65.9632 3.62846C66.0984 3.61892 68.344 4.06944 68.4122 4.13156C68.7644 4.3757 68.262 4.77182 68.4193 4.89599C68.8605 5.2309 71.405 6.10948 71.3509 6.25803C70.694 7.8419 62.5408 8.37933 60.3803 8.9819C37.9979 13.5191 17.8444 28.7442 9.89308 50.4734C9.81318 50.695 10.0845 50.6868 10.0595 50.7843C9.9014 51.3877 9.33169 51.8286 9.2405 52.0426C9.04843 52.497 9.47844 52.3581 9.36353 52.6972C8.18253 56.1958 7.13443 59.5613 6.60789 63.2385C6.57415 63.4788 6.32634 63.1888 6.31172 63.6191C6.30557 63.8409 6.64571 64.5809 6.5896 65.069C6.39178 66.7829 6.11459 68.2016 6.01915 70.0288C5.96679 71.019 5.88564 72.503 5.8951 73.625C5.89512 73.6273 5.89513 73.6296 5.89514 73.6318C5.89799 74.1274 6.10686 74.6386 6.1246 75.1226C6.15096 75.8094 5.73779 75.6818 5.71506 75.7888C5.61931 76.2592 6.07334 76.3061 6.08247 76.7448C6.10242 77.5636 5.80172 77.6309 5.90285 78.6727C5.97314 79.4174 6.37765 81.0925 6.57177 82.0123C6.49397 84.2287 7.14157 86.9536 7.73861 88.9122C8.09016 90.0692 7.71767 90.2833 7.84615 90.7648C8.31393 92.4575 9.22254 93.56 9.77099 95.0903C10.5048 97.1191 10.895 99.0337 11.7515 100.965C11.8909 101.277 12.2088 101.043 12.359 101.34C12.9142 102.442 13.695 103.814 14.1748 104.801C14.7116 105.9 14.4534 106.576 15.1735 107.553C15.3865 107.838 15.8595 107.671 16.2244 108.135C16.8056 108.877 17.0118 109.972 17.347 110.545C17.8082 111.325 17.7692 110.397 18.4142 111.425C18.4407 111.467 18.2551 111.824 18.4229 112.026C18.9127 112.612 19.0905 112.384 19.7427 113.283C19.8003 113.371 20.4471 114.74 20.5432 114.854C21.079 115.532 22.1284 116.933 22.5289 117.263C23.9536 118.447 23.3652 117.011 23.5789 118.953C24.262 119.256 24.9452 119.54 25.6545 119.849C25.1236 119.695 26.2714 121.339 26.3964 121.413C27.3698 122.051 27.1725 121.258 28.195 122.278C26.0649 121.787 29.5034 123.631 30.1828 124.113C33.4025 126.563 36.3115 128.849 39.8869 130.823C41.0823 131.483 42.8149 132.114 44.116 132.716C44.4205 132.856 44.0861 132.977 44.3534 133.105C44.621 133.23 44.4379 132.841 44.7384 132.992C46.6024 133.932 47.9631 135.032 49.993 135.044C50.0498 135.164 50.0222 135.234 50.1345 135.384C51.7994 135.351 54.4637 136.942 55.5657 137.309C57.2642 137.895 57.8095 137.593 59.0582 137.919C60.7146 138.358 63.1796 139.466 62.2133 138.035C63.3732 138.157 64.5032 138.274 65.6635 138.495C65.7933 138.52 65.6751 138.838 65.7272 138.849C66.0576 138.924 66.1898 138.64 66.4158 138.644C67.0304 138.652 66.0049 138.93 66.8869 138.894C67.3514 138.871 67.6357 138.641 68.9046 138.686C69.7096 138.712 70.5257 138.726 71.3516 138.726C78.3738 138.74 85.7997 137.608 92.5049 135.331C93.018 135.156 92.5782 134.976 93.222 134.769C95.4654 134.077 99.557 132.854 101.339 131.816C103.115 130.8 102.484 130.603 103.492 129.813C103.685 129.659 103.643 129.988 103.837 129.88C105.138 129.159 106.869 128.55 107.914 127.915C108.605 127.496 108.315 127.19 108.753 126.847C109.404 126.337 110.338 126.167 110.702 125.908C112.407 124.689 113.296 123.515 114.864 122.352C114.747 122.335 114.653 122.305 114.545 122.281C116.273 120.765 117.92 119.161 119.48 117.471C119.345 117.495 119.213 117.515 119.077 117.537C120.913 115.577 121.371 116.37 119.777 115.31C119.852 115.12 119.925 114.914 119.996 114.734C120.692 115.43 122.309 114.662 123.774 113.135C123.886 113.022 123.721 111.631 124.569 112.389C124.503 112.008 124.442 111.767 124.375 111.441C124.909 111.283 125.444 111.11 125.978 110.934C126.072 110.706 126.168 110.476 126.259 110.248C126.094 110.095 125.888 109.99 125.749 109.805C126.34 108.877 127.765 107.086 128.17 106.307C129.204 104.377 129.65 102.154 130.937 100.896C131.217 100.119 130.488 100.685 131.03 99.5933C131.288 99.5552 131.533 99.5197 131.799 99.4759C131.282 98.1677 131.914 98.2223 132.603 97.0115C133.065 96.19 133.043 95.5377 133.373 94.7185C133.456 94.5106 133.72 94.6328 133.76 94.4838C133.901 93.9843 133.957 92.4666 134.043 92.1195C134.861 88.9445 135.492 86.2209 136.055 83.144C136.113 82.8149 135.769 83.2024 135.83 82.8627C135.926 82.3157 136.315 82.699 136.38 82.381C136.553 81.4903 136.099 81.427 136.205 80.1749C136.371 78.1137 136.558 75.8939 136.639 73.625C136.639 73.625 136.639 73.625 136.639 73.625C136.72 71.3744 136.696 69.1026 136.494 66.958C136.48 66.8232 136.211 66.8585 136.193 66.7125C136.08 65.7613 136.319 64.7529 136.187 63.8918C135.965 62.4556 135.398 61.4574 135.108 60.0692C134.53 57.3521 134.058 54.9071 133.131 52.1867C132.367 49.971 131.572 48.0893 130.482 45.7625C125.668 35.5342 117.468 27.1447 108.559 20.3794C108.332 20.2056 108.564 20.0758 108.486 20.0343C107.741 19.6451 107.5 19.8771 107.63 19.149C106.667 18.6718 106.115 18.9181 105.049 18.2202C104.478 17.8536 105.32 17.4347 104.117 17.1983C103.024 17.0041 103.835 17.9128 101.328 16.0686C101.262 16.0207 101.125 15.4058 100.49 15.2278C99.8541 15.0528 100.373 15.6816 98.9337 15.1065C95.5645 13.7657 91.391 11.7663 87.2434 10.8674C86.9888 10.7985 84.4442 10.4811 83.9323 10.5148C82.9397 10.5577 83.075 10.9416 81.8315 10.8184C80.8677 10.7285 80.1474 10.214 79.0045 10.1574C78.8713 10.1524 78.6039 10.5351 77.7643 10.3942ZM52.2166 142.667C51.8581 142.988 50.9704 144.314 49.542 143.394C49.4104 143.308 50.5021 142.567 49.7041 142.145C50.5633 142.302 51.3771 142.506 52.217 142.665C52.2169 142.666 52.2168 142.666 52.2166 142.667ZM71.6649 0.500063C72.8905 0.580565 74.1057 0.690474 75.3134 0.830635C74.4661 0.967128 73.6281 1.11803 72.7934 1.2847C72.4208 1.02044 72.0468 0.758597 71.6649 0.500063ZM134.534 109.028C134.534 109.027 134.535 109.026 134.535 109.025C134.082 110.228 133.596 111.422 133.074 112.609C133.026 112.419 132.976 112.229 132.926 112.04C133.269 111.067 133.588 110.094 133.884 109.12C134.1 109.09 134.317 109.06 134.534 109.028ZM137.418 99.4136C137.863 98.7337 138.059 99.0164 138.476 98.7011C138.475 98.7009 138.475 98.7007 138.474 98.7005C138.584 98.6168 138.831 98.1278 138.912 97.9343C138.717 97.9465 138.517 97.98 138.322 97.9974C138.544 96.1387 141.146 93.058 140.216 97.8281C140.027 97.6851 139.837 97.5461 139.647 97.4043C138.927 99.6834 137.452 101.917 137.418 99.4136ZM34.513 135.822C32.3963 135.411 31.7224 135.18 29.9679 133.363C30.3747 133.39 30.7808 133.414 31.1852 133.433C31.4015 133.837 31.6212 134.236 31.8475 134.638C31.8485 134.639 31.8494 134.64 31.8504 134.64C32.0412 134.496 32.2319 134.351 32.4189 134.205C33.1041 134.755 33.8063 135.297 34.513 135.822ZM125.888 27.4811C126.648 26.0986 126.107 26.7659 127.392 27.7991C127.836 28.1601 127.691 27.5732 127.945 27.8174C129.317 29.1504 128.606 29.8827 127.947 29.8657C127.275 29.0548 126.582 28.2504 125.89 27.4837C125.89 27.4829 125.889 27.482 125.888 27.4811ZM85.087 3.82016C85.0859 3.81994 85.0848 3.81972 85.0837 3.8195C85.1045 3.45609 85.8603 3.5061 85.0952 3.00779C85.7269 3.13139 86.3624 3.26617 86.9973 3.40842C86.8037 3.39986 86.6065 3.3897 86.4129 3.38272C86.5517 3.53893 86.6897 3.69715 86.8264 3.8541C87.1389 3.49933 87.2974 3.77939 87.9217 4.06919C87.8426 3.5955 87.7608 3.12159 87.6743 2.64769C88.4251 2.95493 89.1644 3.27347 89.9022 3.60476C89.8831 3.71511 89.8642 3.82567 89.8451 3.936C90.1706 3.87469 90.4945 3.81327 90.822 3.75637C90.865 3.90654 90.9049 4.05474 90.9469 4.20492C91.3208 4.20547 91.6958 4.20922 92.0709 4.21438C92.0828 4.5558 91.2869 4.45856 92.6517 4.78786C92.1433 4.9771 91.6402 5.17093 91.1371 5.36985C89.1428 4.76479 87.1279 4.24831 85.087 3.82016ZM134.49 39.2175C133.31 37.2213 133.818 37.6759 134.727 37.7847C134.652 38.2637 134.574 38.7435 134.49 39.2175ZM99.6459 139.025C99.2305 139.749 98.799 140.464 98.3306 141.17C97.1384 141.948 95.5195 141.559 96.3697 140.868C97.3791 140.037 98.7527 139.999 99.6459 139.025ZM69.4855 145.064C71.1511 145.329 69.5702 145.894 69.1739 146.226C68.721 145.656 68.0836 145.685 67.0403 145.56C68.0282 145.584 69.2109 145.019 69.4856 145.062C69.4856 145.063 69.4856 145.063 69.4855 145.064ZM122.041 124.478C122.507 123.993 122.871 123.418 123.407 123.1C123.63 123.562 122.475 124.129 123.586 123.999C123.293 124.32 122.997 124.638 122.702 124.953C122.687 124.552 122.273 124.658 122.044 124.477C122.043 124.477 122.042 124.477 122.041 124.478ZM142.562 60.1867C142.245 61.5939 142.523 61.7928 143.11 63.0599C142.683 63.31 141.689 61.8568 141.343 60.9266C141.751 60.6842 142.157 60.4382 142.562 60.1867ZM33.089 12.3643C33.1225 13.026 31.2196 14.3493 30.1769 14.8834C30.2399 14.7329 30.3032 14.5812 30.3667 14.4297C31.2563 13.7209 32.1643 13.0319 33.089 12.3643ZM66.5469 145.489C66.72 145.518 66.8846 145.541 67.0403 145.56C66.8662 145.556 66.6992 145.535 66.5469 145.489ZM11.2921 108.574C12.0387 108.753 11.3983 107.302 12.1846 109.058C12.1851 109.057 12.1856 109.057 12.186 109.057C12.7193 110.213 12.8389 110.472 13.4429 111.482C12.6197 111.522 11.0872 109.613 12.7818 112.496C12.8059 112.533 13.1083 112.227 13.3564 112.7C13.4332 112.845 13.4397 113.477 13.8212 114.192C13.944 114.422 14.9928 116.077 13.4436 113.908C13.0831 114.257 12.5895 114.425 12.1987 114.704C11.4752 113.906 11.8312 112.693 11.2165 111.773C10.305 110.404 9.04005 110.162 9.99008 109.241C10.9475 110.282 12.2231 112.256 11.7575 112.941C12.4969 114.068 13.2386 114.016 12.894 112.955C10.0643 109.319 12.9603 111.426 10.4903 108.261C10.3116 108.309 10.0627 108.26 9.92886 108.365C9.87765 106.991 11.0225 108.516 11.2921 108.574ZM15.5182 117.237C14.7296 116.843 13.9424 116.433 13.1612 116.006C13.6607 115.642 14.361 115.679 15.3947 116.461C15.4332 116.719 15.4754 116.98 15.5182 117.237ZM3.14838 53.8055C2.8585 53.602 2.65061 53.2198 2.41044 52.9114C2.70379 52.7321 4.86439 47.3618 4.15322 50.2263C4.0425 50.6295 2.67461 52.9414 3.14838 53.8055ZM139.803 51.4007C139.801 52.1248 139.786 52.8395 139.761 53.5512C139.332 52.5949 138.877 51.6446 138.405 50.7126C138.872 50.9363 139.338 51.1637 139.803 51.4007ZM89.0471 142.043C89.3276 141.983 88.5208 142.669 89.5966 142.314C88.8559 142.814 88.1523 143.244 87.4026 143.7C87.1113 143.543 86.8194 143.385 86.5316 143.225C86.3731 143.403 86.2092 143.58 86.0479 143.756C86.097 143.422 86.1337 143.097 86.1847 142.756C87.6819 143.127 87.8218 142.298 89.0471 142.043ZM122.675 120.356C123.355 120.637 122.31 122.381 123.715 121.013C123.801 121.591 123.572 122.202 122.799 123.067C122.545 123.081 122.292 123.094 122.039 123.105C122.353 123.447 122.271 123.781 122.041 124.478C122.041 124.478 122.04 124.478 122.039 124.478C120.802 125.747 120.758 125.553 119.93 125.289C121.572 124.322 121.124 123.77 121.704 122.591C122.099 121.779 122.953 121.046 122.675 120.356ZM1.70668 59.7588C1.40101 58.3605 0.612741 59.3887 1.73383 57.2344C1.8434 57.4153 1.95227 57.5959 2.06318 57.7753C1.93655 58.434 1.81631 59.101 1.70668 59.7588ZM128.607 116.917C127.661 116.401 126.264 116.847 127.491 118.092C128.521 117.354 127.376 117.222 128.607 116.917ZM70.0842 143.404C70.6748 143.427 71.0845 143.518 71.3516 143.656C71.3516 143.656 71.3516 143.656 71.3516 143.656C71.9721 143.975 71.8193 144.55 71.3516 144.994C71.2446 145.095 71.1213 145.19 70.9878 145.272C70.8401 145.052 70.6939 144.831 70.5522 144.612C70.1444 144.707 69.7356 144.799 69.3261 144.886C69.5835 144.393 69.8363 143.899 70.0842 143.404ZM141.771 78.7491C142.404 80.5708 142.323 76.8675 142.715 78.1352C143.035 79.1606 142.149 80.3967 141.713 79.8627C141.73 79.5236 141.751 79.1461 141.771 78.7524C141.771 78.7513 141.771 78.7502 141.771 78.7491ZM140.529 88.8624C141.385 88.7522 141.074 89.1103 141.212 87.7061C141.267 87.3142 142.102 84.2215 141.213 85.4292C141.025 86.5484 140.79 87.7097 140.529 88.8624ZM44.0298 139.159C44.1506 138.834 46.6792 139.004 46.9011 139.282C46.9013 139.282 46.9015 139.281 46.9017 139.281C47.5051 140.077 45.0764 139.236 45.8581 140.315C43.7839 138.823 42.5104 139.921 43.476 138.12C44.8384 138.604 44.0475 138.722 44.0298 139.159ZM62.0994 3.67854C62.1005 3.67839 62.1016 3.67825 62.1027 3.6781C61.9405 3.67899 60.5358 3.35481 60.6694 3.15459C62.3039 3.07548 62.0495 3.45589 63.4966 2.721C63.5995 2.8923 63.6893 3.05964 63.7976 3.232C63.2113 3.40354 62.9084 3.65663 62.0994 3.67854ZM5.80836 48.1786C5.67965 48.7612 4.94274 49.642 4.74253 50.2884C4.06395 47.7396 6.35185 45.8343 5.80836 48.1786ZM106.085 11.4791C106.087 11.4795 106.088 11.4798 106.09 11.4802C106.089 11.4807 106.088 11.481 106.087 11.4814C106.087 11.4807 106.086 11.4799 106.085 11.4791ZM2.95878 93.403C3.02951 93.3022 3.09762 93.2374 3.1636 93.2023C3.17021 93.2004 3.17682 93.1985 3.18343 93.1966C3.10857 93.2613 3.03355 93.329 2.95878 93.403ZM39.3708 137.132C38.6942 136.242 42.0422 137.036 42.953 137.62C42.7921 137.796 42.6982 137.978 42.4297 138.142C41.8704 137.261 39.4903 137.293 39.3708 137.132ZM112.665 131.261C110.483 132.787 112.17 129.207 113.19 130.373C113.206 130.401 112.722 131.219 112.665 131.261ZM59.4311 143.512C60.1997 143.037 58.8804 142.674 61.0107 143.107C61.1129 143.277 61.2158 143.448 61.3198 143.617C60.6944 143.591 60.0614 143.556 59.4311 143.512ZM96.3723 137.242C93.4898 138.741 90.5939 140.175 93.1665 141.09C93.3933 140.961 93.6228 140.832 93.8473 140.702C93.6312 139.933 94.6514 140.057 95.9441 139.604C96.0174 139.24 96.696 138.902 96.7288 138.6C96.7905 138.018 95.8657 137.988 96.3723 137.242ZM119.413 23.2313C119.545 23.1697 119.677 23.1071 119.809 23.047C120.295 23.3003 120.78 23.5618 121.263 23.8284C121.018 23.952 120.773 24.0762 120.529 24.2014C120.16 23.8743 119.79 23.553 119.415 23.2341C119.414 23.2332 119.414 23.2322 119.413 23.2313ZM18.8711 118.678C17.5396 119.415 18.4335 120.077 20.4398 121.125C19.8988 120.318 19.3743 119.501 18.8711 118.678ZM133.955 102.555C134.369 102.672 134.782 102.788 135.199 102.899C135.268 101.678 134.729 101.681 133.998 101.937C133.984 102.144 133.971 102.348 133.955 102.555ZM138.774 87.2258C138.596 87.6604 138.979 87.4985 138.962 87.5443C138.543 88.6633 138.359 88.7849 138.271 90.244C138.316 90.4368 138.365 90.6283 138.412 90.8226C139.438 90.3908 139.091 89.8047 139.909 88.5178C139.556 88.7066 139.201 88.8905 138.846 89.0714C139.083 88.318 139.308 87.5576 139.52 86.7982C139.445 86.6886 139.371 86.5793 139.295 86.4704C139.125 86.7226 138.936 86.9786 138.774 87.2258ZM115.103 18.948C114.52 18.4363 113.926 17.9304 113.325 17.4372C113.171 17.5957 113.017 17.7564 112.864 17.9153C113.613 18.2443 114.361 18.5898 115.103 18.948ZM9.45744 106.023C9.36012 106.005 9.26305 105.988 9.16784 105.978C9.25628 105.937 9.35438 105.962 9.45744 106.023ZM64.2705 4.63709C65.1461 4.70061 66.3835 4.49957 67.3424 4.47901C67.2336 3.92551 64.8142 4.25139 63.9288 4.02234C63.8012 4.1353 63.8971 4.61044 64.2705 4.63709ZM73.2436 143.438C73.4561 143.158 73.6655 142.878 73.8692 142.596C74.3941 142.607 74.9159 142.614 75.4496 142.612C75.4521 142.387 75.454 142.16 75.4562 141.935C73.1662 142.345 73.6679 141.66 72.5275 141.051C72.7601 141.847 72.9963 142.643 73.2436 143.438ZM93.1215 8.55182C94.7488 8.94157 95.4078 8.89734 94.741 7.93667C94.1261 7.88186 93.5082 7.83445 92.8942 7.79641C92.9725 8.04844 93.0493 8.30075 93.1215 8.55182ZM2.06505 76.3383C1.77352 74.9705 2.62509 74.8986 2.19741 73.625C2.19741 73.625 2.19741 73.625 2.19741 73.625C2.18605 73.5905 2.1738 73.5551 2.16061 73.5188C2.15259 73.5542 2.1446 73.5896 2.13663 73.625C2.13663 73.625 2.13663 73.625 2.13663 73.625C1.97763 74.3317 1.82773 75.0405 1.69003 75.7487C1.81388 75.9447 1.93957 76.1447 2.06505 76.3383ZM37.3759 131.215C37.0537 130.658 35.3243 131.371 34.5666 129.551C34.0636 129.614 33.6868 129.74 33.2272 129.818C33.2628 129.418 33.2823 129 33.33 128.609C33.3291 128.608 33.3283 128.608 33.3274 128.607C32.0595 127.863 32.5816 128.767 32.3413 129.054C32.2377 129.173 31.4925 128.32 31.5757 128.794C31.7167 129.621 33.7611 130.612 33.382 131.195C32.8461 130.572 31.4693 129.841 31.5751 130.487C31.6967 131.206 33.3965 131.317 33.9515 132.175C33.4394 130.511 35.5555 132.279 35.3903 133.173C37.1265 133.432 35.9721 132.456 34.5665 131.599C35.7693 131.576 34.3272 131.089 34.4277 130.494C35.4549 130.796 38.3259 132.804 37.3759 131.215ZM108.233 130.852C107.329 131.493 105.666 132.052 105.287 132.908C105.063 133.414 106.703 132.755 105.914 133.803C106.837 133.211 106.942 132.907 106.554 132.619C106.738 132.446 106.924 132.272 107.107 132.099C107.25 132.114 107.395 132.125 107.539 132.139C107.552 131.914 107.566 131.69 107.575 131.467C107.815 131.359 108.057 131.248 108.297 131.139C108.273 131.044 108.273 130.948 108.233 130.852ZM12.0458 37.6259C11.8884 37.895 11.7344 38.1624 11.5818 38.4342C11.6932 38.4601 11.8118 38.4828 11.9282 38.5062C12.0188 38.5272 12.1093 38.5482 12.1998 38.5694C11.8354 38.5561 10.6323 39.5828 10.6295 40.2992C10.6293 40.6552 11.4906 40.3233 10.9602 41.5301C11.3803 40.676 11.7416 39.8621 12.1658 39.0362C12.2781 39.1985 12.3942 39.3583 12.5075 39.5196C12.508 39.5193 12.5085 39.5189 12.509 39.5186C12.6974 39.2745 12.8908 39.0299 13.0822 38.7891C12.7347 38.4031 12.3889 38.0171 12.0458 37.6259ZM132.811 103.014C132.674 104.107 132.669 104.509 133.402 104.313C133.403 104.313 133.404 104.312 133.405 104.311C133.355 103.845 133.301 103.38 133.24 102.92C133.098 102.951 132.955 102.981 132.811 103.014ZM7.48488 96.9462C4.6836 95.5747 7.69264 99.8782 8.04165 98.6897C8.05368 98.6405 7.32814 97.2256 7.48488 96.9462ZM69.6813 142.732C70.2356 142.729 70.7923 142.722 71.3516 142.706C71.4172 142.705 71.4828 142.703 71.5484 142.701C71.483 142.581 71.4171 142.461 71.3516 142.341C71.3516 142.341 71.3516 142.341 71.3516 142.341C71.2724 142.196 71.1937 142.052 71.1165 141.906C70.643 142.186 70.1639 142.462 69.6813 142.732ZM99.4697 12.1096C99.8067 12.9098 101.157 13.7994 102.157 13.5959C101.82 13.3375 101.478 13.0816 101.134 12.8286C101.88 13.1126 102.618 13.3991 103.358 13.716C103.784 13.0106 102.744 12.9856 101.588 12.1614C101.415 12.0316 100.587 10.5007 99.8215 11.0046C99.6708 11.1074 100.963 11.8269 99.8401 11.8135C100.23 12.0337 100.581 12.1908 100.952 12.3928C100.894 12.5829 100.835 12.7731 100.779 12.9643C100.345 12.6741 99.9117 12.3902 99.4697 12.1096ZM102.714 134.133C101.347 134.785 101.318 135.151 101.284 135.817C101.9 135.447 102.509 135.069 103.109 134.682C102.976 134.5 102.847 134.316 102.714 134.133ZM110.948 19.0374C111.554 19.5986 111.551 19.01 111.872 19.1354C113.086 19.6199 113.556 20.4193 114.651 21.044C114.529 21.0619 114.416 21.0799 114.299 21.0984C114.299 21.099 114.3 21.0997 114.301 21.1004C118.493 25.2326 116.92 22.37 114.049 20.2522C114.095 20.0628 114.142 19.8749 114.186 19.686C112.743 18.9292 111.381 18.3157 110.948 19.0374ZM16.8781 114.164C16.9275 114.045 17.8254 114.082 16.9304 113.422C15.6046 113.341 16.8328 114.165 16.7319 114.68C16.4776 114.505 16.2228 114.323 15.9721 114.147C16.7842 115.731 17.1478 115.774 17.351 114.817C17.3631 114.752 16.8294 114.285 16.8781 114.164ZM11.3099 104.267C9.85107 104.742 11.4841 106.386 11.8606 106.082C11.7323 105.808 11.3964 105.723 11.3457 105.387C11.2945 105.048 11.567 104.812 11.3099 104.267ZM59.5343 140.361C59.4706 140.344 58.9554 139.606 58.9279 140.105C59.4974 141.411 61.237 140.918 61.0131 140.468C60.4856 140.407 60.1067 140.524 59.5345 140.36C59.5344 140.36 59.5344 140.361 59.5343 140.361ZM90.0795 9.00122C90.1006 9.0466 91.541 9.74773 91.8087 9.5902C92.0512 9.38809 92.2196 9.14255 92.4271 8.92008C91.5035 8.88068 89.8477 8.19742 90.0826 9.00211C90.0816 9.00181 90.0806 9.00151 90.0795 9.00122Z" fill="#6B6B6B"/>
<path d="M74.1924 77.137V62.865C72.6138 65.2543 71.0458 67.633 69.4884 70.001C67.9311 72.369 66.3524 74.7477 64.7524 77.137H74.1924ZM76.3684 84.273C76.3684 84.5717 76.2191 84.721 75.9204 84.721H74.6404C74.3418 84.721 74.1924 84.5717 74.1924 84.273V79.089H63.6324C63.1844 79.089 62.9178 79.057 62.8324 78.993C62.7684 78.9077 62.7364 78.641 62.7364 78.193V77.201C62.7364 77.009 62.7471 76.881 62.7684 76.817C62.7898 76.753 62.8538 76.6357 62.9604 76.465L73.1684 61.233C73.2964 61.041 73.3818 60.9343 73.4244 60.913C73.4884 60.8703 73.6378 60.849 73.8724 60.849H75.4724C75.9204 60.849 76.1764 60.8917 76.2404 60.977C76.3258 61.041 76.3684 61.297 76.3684 61.745V77.137H79.5364C79.8351 77.137 79.9844 77.2863 79.9844 77.585V78.641C79.9844 78.9397 79.8351 79.089 79.5364 79.089H76.3684V84.273Z" fill="black"/>
</g>
<defs>
<filter id="filter0_fn_421_37293" x="0" y="0" width="143.773" height="147.296" filterUnits="userSpaceOnUse" color-interpolation-filters="sRGB">
<feFlood flood-opacity="0" result="BackgroundImageFix"/>
<feBlend mode="normal" in="SourceGraphic" in2="BackgroundImageFix" result="shape"/>
<feGaussianBlur stdDeviation="0.25" result="effect1_foregroundBlur_421_37293"/>
<feTurbulence type="fractalNoise" baseFrequency="10 10" stitchTiles="stitch" numOctaves="3" result="noise" seed="8171" />
<feColorMatrix in="noise" type="luminanceToAlpha" result="alphaNoise" />
<feComponentTransfer in="alphaNoise" result="coloredNoise1">
<feFuncA type="discrete" tableValues="0 0 0 1 1 1 1 1 1 1 1 1 1 1 1 1 1 1 1 1 1 1 1 1 1 1 1 1 1 1 1 1 1 1 1 1 1 1 1 1 1 1 1 1 1 1 0 0 0 0 0 0 0 0 0 0 0 0 0 0 0 0 0 0 0 0 0 0 0 0 0 0 0 0 0 0 0 0 0 0 0 0 0 0 0 0 0 0 0 0 0 0 0 0 0 0 0 0 0 0 "/>
</feComponentTransfer>
<feComposite operator="in" in2="effect1_foregroundBlur_421_37293" in="coloredNoise1" result="noise1Clipped" />
<feFlood flood-color="rgba(0, 0, 0, 0.31)" result="color1Flood" />
<feComposite operator="in" in2="noise1Clipped" in="color1Flood" result="color1" />
<feMerge result="effect2_noise_421_37293">
<feMergeNode in="effect1_foregroundBlur_421_37293" />
<feMergeNode in="color1" />
</feMerge>
</filter>
</defs>
</svg>
