<svg width="81" height="84" viewBox="0 0 81 84" fill="none" xmlns="http://www.w3.org/2000/svg">
<g filter="url(#filter0_fn_208_14487)">
<path d="M1.69678 41.625C1.69678 20.6382 18.71 3.625 39.6968 3.625C60.6836 3.625 77.6968 20.6382 77.6968 41.625C77.6968 62.6118 60.6836 79.625 39.6968 79.625C18.71 79.625 1.69678 62.6118 1.69678 41.625Z" fill="#D6EADE"/>
<path d="M61.2562 4.13205C61.0121 3.31132 62.6127 4.6913 61.8603 3.23669C62.1417 3.33111 62.425 3.42785 62.7052 3.52826C62.6006 3.84394 62.4967 4.15933 62.3893 4.47375C62.0121 4.35489 61.6351 4.24197 61.2554 4.13342C61.2557 4.13297 61.2559 4.13251 61.2562 4.13205ZM58.819 7.41763C59.5426 6.7607 60.5833 7.08093 60.0246 5.77299C59.7889 6.00408 59.5529 6.23534 59.3205 6.46902C59.102 6.06475 58.8733 5.66133 58.6369 5.26183C58.4552 5.30348 58.2743 5.34655 58.0946 5.38941C58.185 4.81659 58.2703 4.24087 58.347 3.66238C58.4601 3.80799 58.5731 3.95628 58.6835 4.10273C59.467 3.99908 60.0471 4.16586 60.8678 4.53759C60.8642 4.3852 60.8591 4.23354 60.854 4.0808C61.1451 4.50006 61.4255 4.92237 61.6947 5.34561C61.2476 5.32872 60.7511 5.31823 60.3405 5.3183C60.4066 6.348 61.4901 6.44138 62.0307 6.5756C62.7624 6.7542 62.4017 7.01134 62.9342 7.16047C63.0189 7.18531 63.2079 6.92379 63.3497 7.01412C64.0721 7.4675 65.2719 8.58781 64.0618 8.62209C63.0149 7.7306 61.7193 7.59189 60.7037 6.7194C60.5503 7.64526 59.8084 7.52992 58.819 7.41763ZM77.4702 23.354C76.9071 23.1565 76.6771 22.3256 76.6552 21.6729C76.6549 21.6723 76.6546 21.6717 76.6542 21.6712C76.6506 21.5287 77.0012 20.9993 77.1846 21.3843C77.4808 22.0168 76.8407 22.712 77.5381 22.7641C77.5105 22.9587 77.4961 23.1545 77.4702 23.354ZM78.1415 24.6799C78.1111 25.1516 77.4259 25.24 77.3805 24.6973C77.38 24.6975 77.3795 24.6978 77.3791 24.698C77.3585 24.4712 78.0149 24.6369 77.2047 24.1555C77.5145 23.8366 77.7886 23.5321 78.0815 23.2133C78.1719 23.386 78.2577 23.5421 78.3487 23.7255C77.6715 23.889 78.1686 24.2073 78.1415 24.6799ZM64.8435 8.73964C65.2686 8.2918 65.0516 8.12756 64.9248 7.5028C65.2729 7.78566 65.6161 8.07541 65.9532 8.36759C65.5796 8.48711 65.2113 8.6114 64.8435 8.73964ZM56.031 3.47354C56.0304 3.47328 56.0298 3.47301 56.0292 3.47275C55.8585 3.50499 55.6885 3.53872 55.522 3.57285C55.5276 3.33766 55.5325 3.10344 55.5354 2.86769C54.9837 2.8644 54.432 2.87143 53.8856 2.89188C54.1742 2.28232 54.9955 2.70688 55.6428 2.4685C56.2699 2.94319 56.445 3.45044 56.2594 3.98804C56.185 3.81713 56.1101 3.64497 56.031 3.47354ZM31.7882 79.6394C31.5945 79.7888 31.4008 79.9375 31.2033 80.0841C31.3946 80.2129 31.5911 80.3205 31.7843 80.4598C32.4954 79.7779 32.4059 80.49 33.1509 80.5671C35.44 80.7564 34.927 79.4261 36.8181 81.4344C35.166 81.2118 35.7314 82.1232 34.6212 82.668C34.4776 82.142 35.6034 81.1253 34.9612 80.8118C33.7575 81.2059 32.5546 81.5197 31.1918 81.5856C31.2115 81.6792 31.2312 81.773 31.2515 81.8666C31.4707 81.856 31.684 81.8422 31.9006 81.8278C31.634 82.0148 31.3711 82.1986 31.0917 82.3819C31.4895 81.9229 30.6927 82.0572 30.9222 81.4813C31.0242 81.2256 31.4204 80.9254 31.6571 80.7084C31.2073 80.4722 30.7509 80.2373 30.3113 79.9889C30.6072 79.8381 30.8998 79.6839 31.1876 79.5263C31.3869 79.564 31.5848 79.6017 31.7851 79.6363C31.7861 79.6373 31.7872 79.6384 31.7882 79.6394ZM26.8513 1.99869C26.4278 2.79674 25.4024 3.27464 24.5716 2.84744C25.3249 2.5419 26.0811 2.25957 26.8513 1.99869ZM56.1143 4.4357C56.0926 4.30856 56.0718 4.18332 56.0489 4.05605C56.4193 4.00034 56.7934 3.95179 57.1688 3.90646C57.0939 4.21421 57.0191 4.52214 56.9438 4.82851C56.6695 4.69529 56.3921 4.56291 56.1143 4.4357ZM72.071 16.4835C71.9135 16.3122 71.9093 16.2898 71.7639 16.0362C71.7639 16.0366 71.7639 16.037 71.7639 16.0374C71.7084 15.9366 71.2374 15.0801 71.4871 15.0089C71.7994 15.3751 72.1186 15.7762 72.4211 16.1647C72.3061 16.2731 72.185 16.3715 72.071 16.4835ZM68.4437 12.2119C68.4436 12.2111 68.4435 12.2103 68.4434 12.2094C68.3446 12.0621 68.2774 11.8944 68.1565 11.7605C68.8862 11.9391 68.4862 12.4942 69.0325 12.7743C69.5783 13.0559 70.1086 13.0755 69.763 14.0664C69.5368 14.0248 69.2579 14.0159 69.0124 13.991C68.7183 13.1441 68.3057 13.2254 67.5895 13.0324C67.8747 12.7581 68.158 12.4857 68.4437 12.2119ZM41.7853 82.2647C41.919 81.8 42.1176 82.2379 42.137 82.2422C42.1367 82.2427 42.1364 82.2433 42.1361 82.2438C43.4988 81.7265 41.9708 82.5168 43.2956 82.4844C43.1095 82.6154 42.925 82.7512 42.7367 82.8809C42.4163 82.683 42.0891 82.4527 41.7853 82.2647ZM77.1251 57.7269C77.2525 57.7678 77.3813 57.8063 77.5088 57.8469C77.1631 58.566 77.5505 58.975 76.8338 59.3725C76.9414 58.8236 77.0382 58.2749 77.1237 57.7262C77.1241 57.7264 77.1246 57.7267 77.1251 57.7269ZM73.5574 20.2844C72.88 19.6911 72.4403 19.2401 72.2882 18.3315C72.2883 18.3307 72.2883 18.3299 72.2884 18.329C72.2806 18.2754 72.6423 18.3025 72.6631 18.2109C72.5291 18.0944 72.3731 17.9876 72.2304 17.8768C72.3967 17.7261 72.5633 17.576 72.728 17.4255C72.971 17.8635 73.2057 18.3054 73.4327 18.7521C73.4995 18.6181 73.5637 18.4828 73.6293 18.3479C73.9261 18.661 74.2166 18.977 74.5045 19.3006C74.1163 19.3732 73.7298 19.45 73.3445 19.5324C73.4176 19.7831 73.4907 20.0327 73.5574 20.2844ZM68.9731 67.8102C69.1713 67.8065 69.1861 68.1558 69.4197 68.082C69.6534 68.0062 69.7045 67.5338 69.9543 67.8718C69.8083 68.124 69.6558 68.3912 69.5018 68.6469C70.6912 68.44 70.7903 67.2662 71.5021 67.8384C70.7292 68.4011 70.3173 69.0351 69.8877 69.8662C69.3898 69.3398 69.5128 68.2769 68.6431 68.2189C68.7533 68.0851 68.8652 67.9412 68.973 67.8127C68.9731 67.8118 68.9731 67.811 68.9731 67.8102ZM42.8843 10.2337C42.4717 10.1336 41.493 10.3582 40.981 9.91889C40.8595 9.80894 40.448 8.44846 40.4497 8.2713C40.4737 7.67256 41.0562 7.60644 40.446 7.20065C40.6555 7.20107 40.8589 7.18474 41.0665 7.18205C41.045 6.77863 41.0224 6.3763 41 5.97431C40.7368 6.02545 40.4738 6.07974 40.2117 6.13791C40.2008 6.00455 40.1898 5.87089 40.1786 5.73754C41.1273 5.75343 40.5774 5.22778 41.0946 4.76462C40.6404 4.5054 40.1716 4.25555 39.6968 4.01345C39.9708 4.04287 40.2926 4.06867 40.5317 4.10904C40.5801 3.427 39.9946 3.58027 39.8954 3.4546C39.3357 2.72165 42.2026 3.15171 42.5202 2.20704C42.0556 2.06356 41.5627 1.92979 41.0819 1.80442C41.2254 1.68683 41.3719 1.57 41.5176 1.45395C42.6007 2.18719 43.7937 2.53114 44.9864 3.12411C45.1025 3.11143 45.2191 3.09855 45.3335 3.08797C45.3448 2.77842 45.357 2.47023 45.3669 2.16054C45.5459 2.14935 45.7252 2.13966 45.9063 2.13115C45.24 3.0571 45.9601 3.14335 46.6687 3.903C46.1707 4.17293 45.6698 3.87505 45.6031 4.53713C47.1772 4.26486 48.7234 5.35075 50.2734 5.20438C50.661 5.17068 50.9057 4.34255 51.7201 4.68646C51.6627 4.76682 51.6054 4.92701 51.5492 5.03889C53.0965 5.11645 54.0759 5.22475 55.3458 6.23608C55.3878 5.91786 55.4295 5.59847 55.4671 5.27907C55.0929 5.28372 54.721 5.29685 54.3535 5.31377C54.329 4.75788 54.7346 4.66956 53.777 4.30749C52.9887 4.01875 53.3802 4.40415 53.116 4.46763C52.7609 4.55822 52.6409 4.08765 52.2546 4.20042C51.9579 4.28805 52.0865 4.76937 51.4959 4.46777C51.9115 4.02936 52.3473 3.5817 52.7859 3.14965C52.904 3.31914 53.0184 3.49044 53.1323 3.66205C52.927 3.7435 52.7261 3.8256 52.5233 3.9101C53.1567 3.85007 53.7609 3.80764 54.4301 3.77788C53.962 4.43868 54.6496 4.38981 54.9993 4.43502C55.5437 4.50419 54.9172 4.82859 55.27 4.87925C55.6213 4.92948 56.212 4.5258 56.7333 4.90969C56.2807 5.08561 56.5637 5.56221 56.3468 5.8176C56.1304 6.07209 55.5182 5.87133 55.9314 6.44793C57.1193 6.71163 56.4718 5.04406 57.3006 5.21931C58.3173 5.45002 57.5875 7.34127 57.1396 7.59227C56.7891 7.79104 56.1384 7.39383 55.7947 7.60688C56.7328 8.73555 57.2779 7.68455 57.6009 7.58362C58.7623 7.23414 57.1676 8.96645 58.435 8.72904C58.2067 9.09123 58.0032 9.41807 57.7846 9.76564C57.9677 9.7802 58.1156 9.74562 58.3214 9.79442C58.2214 8.77269 58.6283 9.04857 58.8507 9.17896C59.1994 9.38287 58.8696 8.71447 59.014 8.67839C59.4086 8.58375 59.7414 8.93613 59.687 8.47357C59.7087 8.68629 59.7381 8.90509 59.76 9.11796C60.2673 9.17745 62.2223 8.32373 61.0913 8.02042C61.536 7.51701 61.6724 7.98412 61.8508 8.22431C62.0296 8.46476 62.2612 8.11164 62.4247 8.31739C63.0651 9.14057 62.1108 9.35783 61.6688 9.74066C62.9285 10.1546 62.0678 9.20307 63.7139 10.1022C64.1417 9.84732 63.7364 8.92217 64.4837 9.1547C64.1052 9.87634 64.1796 10.649 64.7899 11.5026C64.9838 11.4243 65.1793 11.3457 65.3749 11.2698C65.3236 12.2011 64.5953 12.5792 65.9691 12.5765C64.4317 13.4677 65.4464 12.9139 65.6309 14.0272C65.6666 14.2509 65.1256 14.2233 65.1855 14.5231C65.2119 14.6578 65.5933 14.6548 65.6477 14.9932C65.6764 15.1608 65.6537 16.0542 66.1695 16.1462C66.5339 15.3456 67.6235 15.4731 67.6017 14.4761C68.4315 15.5761 69.3334 16.0154 67.4979 15.656C67.5484 16.0726 67.5921 16.487 67.6281 16.8989C67.9277 16.9429 68.2282 16.9935 68.5294 17.048C68.0398 17.5129 67.8791 17.6016 68.5455 18.2281C68.1741 18.0223 67.7995 17.8268 67.4228 17.6362C67.3115 17.7151 67.1695 17.7668 67.0786 17.863C67.5886 18.0458 68.5236 19.0202 68.861 19.1753C69.2036 19.3268 68.8541 18.7935 69.0483 18.7617C70.6717 18.5222 69.7973 19.1208 70.3341 19.4373C70.6526 19.6284 70.2994 18.8757 70.4566 18.9867C71.0446 19.4051 70.605 20.1042 70.9295 20.5997C71.1691 20.1828 71.4095 19.7583 71.6442 19.3335C71.997 19.8771 72.3885 20.4773 72.8255 20.915C72.9968 21.0872 73.1746 20.7657 73.2133 20.7871C73.4109 20.8913 73.9689 21.4802 74.0113 21.5536C74.3316 22.1001 73.9531 22.3349 74.2241 22.8787C74.0769 22.687 73.9383 22.5076 73.792 22.3232C73.1126 22.587 72.4348 22.8543 71.7595 23.1294C71.9948 23.6413 72.2192 24.1577 72.4303 24.6785C72.4556 24.2044 72.4696 23.7258 72.4747 23.2435C73.3028 23.528 74.1304 23.8435 74.9571 24.1972C74.7946 24.6753 74.6221 25.1442 74.4421 25.608C74.9148 26.4185 76.1702 25.6798 75.1793 26.5948C75.3871 26.8092 75.5929 27.0269 75.7957 27.2488C75.6121 27.2787 75.4286 27.3096 75.2453 27.3407C75.4736 27.6089 75.6983 27.882 75.9219 28.1593C76.4009 27.6024 76.9029 27.025 77.3438 26.4495C77.733 27.0465 77.2244 27.2571 77.1345 27.4006C76.8944 27.7811 77.535 28.1196 77.2912 28.4351C77.2074 28.5392 76.6457 28.036 76.3334 28.3918C76.2772 28.4686 75.1244 29.774 75.6177 30.1743C75.8775 30.0809 76.1867 29.9377 76.4655 29.8245C76.855 30.4944 75.571 31.2574 75.1573 31.2759C75.5361 31.5618 75.7043 32.0991 76.1508 32.0653C76.2117 32.2556 76.2694 32.442 76.327 32.6322C75.2365 32.6926 75.6142 33.4252 76.5264 33.279C76.4735 32.9407 76.4172 32.6029 76.3552 32.2668C77.51 32.2419 77.9464 31.0494 77.4212 33.4494C76.9351 33.9846 77.3379 32.7014 76.9813 33.1322C76.8611 33.7641 77.1814 34.2649 76.8766 34.8869C76.4869 35.657 75.8741 34.8953 76.7567 36.3697C77.7894 32.5936 77.9949 36.67 78.5993 38.3587C77.2084 38.9041 76.7391 40.0413 76.9627 41.625C76.9627 41.625 76.9627 41.625 76.9627 41.625C76.9915 41.8313 77.0318 42.0451 77.0832 42.2666C77.3497 42.1531 77.3818 41.8919 77.3906 41.625C77.3906 41.625 77.3906 41.625 77.3906 41.625C77.3969 41.4384 77.3919 41.2498 77.4508 41.1041C77.593 40.7485 77.8669 41.1282 78.0673 40.6793C78.2692 40.2304 78.5091 39.2672 78.7896 38.782C79.0822 39.1496 79.7557 41.0675 78.9837 39.8172C78.6816 40.5409 78.3503 40.9706 78.1666 41.625C78.1666 41.625 78.1666 41.625 78.1666 41.625C78.1042 41.8458 78.0576 42.0915 78.0309 42.382C78.7216 42.7427 79.1708 42.7311 79.1322 43.8864C78.1969 43.161 77.4481 44.4057 76.4599 44.055C76.7398 43.3018 77.6912 43.784 78.1813 43.3493C78.2318 43.3036 78.0122 42.5534 78.0309 42.382C77.1359 43.1123 76.7944 43.3226 75.7669 42.8532C75.8414 43.3543 75.6911 43.6564 76.1871 43.7315C75.9649 43.8247 75.7421 43.9165 75.5194 44.0042C75.5142 44.1659 75.5238 44.3125 75.5064 44.4828C76.2752 44.3048 75.7791 44.727 76.0876 45.0847C76.3945 45.4481 77.0366 45.0545 76.9426 45.9843C77.1534 45.6955 77.3334 45.4254 77.5272 45.1396C77.6649 45.7595 77.7872 46.3992 77.8935 47.0352C78.4121 46.6765 79.199 45.7942 79.7968 45.8785C79.5423 46.1502 79.813 47.2079 79.8104 47.3229C79.8102 47.7601 79.4658 47.471 79.452 47.5023C79.171 48.1412 79.1997 48.7139 78.585 48.8572C78.7501 49.3967 78.5289 49.7406 78.4285 50.2634C78.3725 50.5507 78.7987 50.5901 78.6813 50.7405C77.8807 51.7325 77.6495 50.5189 78.0629 52.9242C78.4224 52.7508 78.7866 52.5759 79.1469 52.3895C79.1873 52.6659 79.226 52.9422 79.2608 53.2208C79.1607 53.3711 79.0599 53.5188 78.9582 53.6669C78.3458 53.4754 77.7322 53.283 77.1196 53.0919C77.0339 53.2525 76.9472 53.4152 76.8591 53.5752C76.8932 53.2622 76.923 52.951 76.9489 52.6402C76.8485 52.5815 76.7474 52.5247 76.6468 52.4664C76.3527 52.8484 76.0512 53.2216 75.7439 53.5882C75.9531 53.6666 76.1638 53.7455 76.3729 53.8242C75.75 54.691 75.5703 54.6294 75.7958 55.757C75.5187 56.4458 76.1349 57.3722 76.3094 57.9452C76.1298 58.0408 75.9484 58.134 75.7675 58.2275C75.8935 58.3977 76.0174 58.5695 76.1415 58.7419C75.8208 58.8169 75.4991 58.89 75.1799 58.9577C75.656 59.3154 75.7977 59.4557 76.3276 58.8198C76.8769 59.3795 75.9446 60.5344 75.451 60.9166C75.0791 61.2117 74.7762 60.4958 74.6842 60.5097C74.3799 60.5477 74.2262 61.2674 74.1143 61.3752C73.6515 61.8302 73.4513 62.2187 73.0376 62.6237C72.9563 62.7028 72.4676 62.7506 72.4437 62.7648C72.2802 62.8979 71.8524 63.2027 71.8166 63.245C69.9236 65.4357 73.1024 63.8894 71.3243 65.9904C71.5494 66.0597 71.7698 66.1323 71.995 66.2006C71.8774 66.3772 71.7565 66.5542 71.636 66.7289C71.3248 66.825 71.2648 66.3634 71.1449 66.9456C70.955 66.7482 70.7646 66.5511 70.5759 66.3542C70.549 66.6222 70.5234 66.8837 70.4869 67.1574C69.5292 66.8446 68.5115 67.6761 67.7501 66.8613C67.4951 66.5849 67.7835 65.6705 67.1758 65.7533C66.8696 65.9803 67.3735 66.0896 67.2893 66.2199C66.6642 67.1572 66.2418 66.67 66.0538 67.1117C66.1988 67.3505 66.3438 67.5967 66.487 67.8407C66.3089 67.9092 66.1303 67.9765 65.9509 68.043C66.0504 68.2002 66.1483 68.3591 66.2469 68.517C66.3728 68.4098 66.5127 68.287 66.6277 68.1877C66.9944 68.8363 65.7685 70.4358 65.9062 69.4792C65.962 69.0936 66.4271 68.7844 65.6001 68.4291C65.3158 68.8707 64.9713 69.3572 64.6438 69.8069C64.5125 69.6842 64.3819 69.5603 64.251 69.4372C63.7832 70.0007 64.748 70.1077 65.0036 70.3931C64.8827 70.5138 64.7588 70.634 64.6362 70.7533C64.4684 70.6687 64.2987 70.5749 64.133 70.495C64.3065 70.7089 64.6481 71.2638 64.1006 71.4063C63.7495 71.4926 63.706 70.6319 63.2891 71.093C63.5923 71.4005 64.1039 71.6666 63.6373 72.212C63.3051 71.9016 62.9774 71.6352 62.647 71.2939C62.2333 72.1553 61.5173 71.8237 60.9867 72.7998C60.6547 73.4149 60.4915 74.8561 59.2311 73.5892C58.8151 73.789 59.1621 74.0831 59.0941 74.2375C58.7659 74.9687 57.9312 74.4879 57.8065 74.5016C56.9899 74.5953 56.8179 75.0032 56.0903 74.9308C56.2625 75.2044 56.414 75.4691 56.5778 75.7378C56.8803 75.0478 57.1408 74.942 57.8965 74.6459C57.6912 74.833 57.4852 75.019 57.2753 75.202C57.4358 75.4125 57.5966 75.6227 57.7564 75.8319C59.4671 73.7096 59.8014 75.4 58.0358 76.7598C57.6446 76.4195 57.2536 76.0789 56.8744 75.7278C56.1022 76.929 55.2883 76.6072 53.9657 76.9856C53.8091 77.0313 53.3532 77.5084 53.1139 77.6109C53.1186 77.6111 53.1233 77.6113 53.128 77.6115C53.1357 78.0953 53.4142 78.2156 53.5834 78.5873C53.4667 78.6858 53.3481 78.7838 53.2304 78.881C52.822 78.6973 52.8455 78.4212 52.2773 78.6944C52.4567 78.9603 52.6369 79.2257 52.8199 79.4897C52.1574 79.7293 51.6166 79.5487 51.0381 79.8728C51.1097 79.7295 51.1789 79.5862 51.2482 79.4426C49.8191 79.5525 50.3908 77.4942 49.6382 78.6428C49.5337 78.5065 49.4313 78.3679 49.3283 78.2309C49.7244 78.0866 50.117 77.9372 50.5036 77.7811C50.4474 77.5635 50.3921 77.3466 50.3341 77.1295C49.9342 77.3194 49.5273 77.5053 49.1166 77.6818C49.3909 77.4546 49.6614 77.2239 49.9248 76.991C49.4108 77.0274 48.8937 77.0535 48.3846 77.0671C49.1022 77.7404 48.4507 78.0056 48.7701 78.7689C47.6991 78.3239 46.8597 77.5959 45.5763 78.387C45.3203 78.5416 45.5489 79.0904 44.6704 78.5097C44.9881 79.3869 44.0326 79.9367 44.2573 80.7789C44.5418 80.7041 44.8372 80.6402 45.1081 80.5513C44.7493 80.2969 44.6001 79.4851 45.0289 79.1789C45.5697 78.7906 46.5298 79.202 46.3315 78.3059C46.5701 78.3067 46.7892 78.2911 47.0197 78.2823C46.972 78.5235 46.9247 78.7657 46.875 79.0065C47.4541 78.5326 47.875 78.5563 48.3164 79.0433C47.5677 79.3503 46.8129 79.6319 46.0387 79.8915C46.1622 79.9107 46.2875 79.9293 46.4111 79.946C45.9025 80.6239 46.6269 81.074 45.4852 81.3739C45.454 81.1079 45.4213 80.842 45.3897 80.5748C45.0813 81.348 43.9047 81.4798 44.372 82.2543C43.9847 82.0434 43.8972 81.8907 43.7394 82.3525C42.7317 81.8217 42.1018 81.0597 42.3609 80.098C42.039 80.2724 41.7091 80.4431 41.3837 80.609C41.5883 80.8588 41.7971 81.1058 42.0114 81.3522C41.412 81.3704 40.8156 81.3754 40.218 81.3683C40.1527 80.6089 41.3531 81.1091 40.989 80.4357C40.9173 80.3012 40.6117 80.6033 40.5267 80.5275C39.6452 79.7076 41.0146 80.2859 40.7427 79.6501C39.8462 79.5306 40.0796 78.9515 39.6968 78.9398C39.6968 78.9398 39.6968 78.9398 39.6968 78.9398C39.5346 78.9335 39.2649 79.0279 38.7442 79.2835C38.7039 79.0618 38.6612 78.8355 38.6259 78.6152C38.0368 78.5829 38.0676 79.0821 37.5452 79.149C37.2138 79.1892 36.8795 78.2888 36.4807 78.8526C36.4043 78.954 36.9276 80.0818 35.6476 79.9108C34.6525 79.7636 35.1578 79.0586 34.6684 78.7265C34.1966 78.3989 32.8111 79.2293 32.6849 77.9906C32.9229 78.1966 33.2522 78.3421 33.5336 78.5194C33.6945 78.3115 33.8497 78.1046 34.0046 77.896C33.272 78.0849 32.641 77.6066 32.074 78.0513C31.3456 77.0415 30.184 77.5428 30.2103 78.534C30.5465 78.4775 30.3191 77.9926 30.6729 78.353C30.663 78.5792 30.6565 78.8049 30.6481 79.0312C29.9296 78.8299 29.4286 78.6939 29.9308 78.1296C29.8248 78.0846 29.7201 78.0395 29.6147 77.9936C29.4645 78.4601 29.3153 78.9289 29.1636 79.395C29.0128 79.4103 28.8613 79.4241 28.7099 79.4376C28.5887 79.2904 28.469 79.1414 28.3498 78.9915C28.7797 78.3094 29.1105 78.3916 28.1316 77.631C28.0466 77.8849 27.9602 78.1372 27.875 78.3911C27.036 77.7558 27.235 77.1442 26.0906 76.7359C27.2803 76.1991 27.206 77.9069 27.8134 76.1456C27.9876 76.3351 28.1661 76.5254 28.3465 76.7124C28.4629 76.4658 28.5783 76.2185 28.6917 75.9708C27.533 75.767 24.9404 76.6523 24.6534 75.2174C24.5039 75.308 24.361 75.3806 24.2038 75.4787C23.7782 74.4974 22.752 75.7737 22.4336 74.571C22.4059 74.4445 23.2479 73.2036 22.3254 72.7562C22.2525 72.939 22.1043 73.2323 22.0031 73.4577C21.8624 73.2423 21.7286 73.0219 21.5969 72.8037C21.4712 72.9391 21.3434 73.073 21.2161 73.2088C21.517 73.4664 21.8218 73.7204 22.1333 73.9696C21.8171 73.8679 21.4998 73.7608 21.1854 73.6501C21.4082 74.1189 21.582 74.2177 21.1208 74.5C20.7772 74.338 20.4347 74.1718 20.0959 73.9993C19.9998 74.0825 19.9027 74.1666 19.806 74.2492C19.7766 74.6537 19.7574 75.0536 19.7355 75.4657C19.0055 74.6919 18.2658 74.1901 18.0323 73.1692C17.9931 72.9954 18.6374 72.875 17.6696 72.7134C17.8024 72.5025 17.9001 72.3242 18.0212 72.1281C16.748 72.0697 16.5651 71.67 16.02 70.5814C16.2849 71.4006 15.9766 70.7593 15.674 70.8352C15.4651 70.8883 15.8664 71.1835 15.709 71.2888C15.5539 71.3965 14.5786 71.5366 14.9623 71.9651C16.9698 71.6613 16.1744 73.3111 18.0685 73.744C17.7341 73.7505 17.396 73.7514 17.0584 73.7486C17.09 73.9305 17.1185 74.0948 17.1572 74.2899C16.4938 73.469 16.7912 73.9078 16.3162 73.8503C15.8421 73.7921 15.1095 73.4837 14.6661 73.2106C14.5267 73.1248 14.8679 72.9699 14.6039 72.7176C14.426 72.5484 13.5823 72.4906 13.8432 71.9425C14.0202 71.5917 15.4907 71.4732 14.3918 70.5309C14.4339 70.072 14.8768 70.6127 14.9183 70.5871C15.2979 70.3292 14.8625 69.5126 14.34 69.4911C14.2954 69.4902 14.3013 69.963 13.9507 69.8276C13.1157 69.502 13.038 68.8683 13.0449 68.1154C12.5622 68.5223 11.5178 68.5431 11.0886 67.7271C10.925 67.8151 10.7613 67.9053 10.596 67.9933C10.7603 68.0324 10.9234 68.0712 11.0874 68.1079C11.1069 68.2953 11.1565 68.4686 11.162 68.668C10.4321 68.1179 9.70464 68.5972 9.16864 68.4724C7.33823 68.0125 9.70167 67.2403 10.1668 67.1751C10.171 67.4246 10.1597 67.6824 10.162 67.9377C10.3115 67.7759 10.4623 67.6129 10.6145 67.452C9.17674 65.7994 11.467 66.2722 11.0852 65.1866C10.0824 65.6662 9.47309 65.0876 9.42577 63.8674C9.35536 63.7809 9.28832 63.6913 9.21755 63.6048C9.07916 63.6819 8.88433 63.8228 8.78225 63.8585C7.91233 62.9535 9.19016 61.8441 9.25901 61.6689C9.5728 60.877 8.55818 61.0743 8.47113 60.9498C8.11637 60.4377 8.39581 60.0673 7.94514 59.6519C7.4616 59.1993 7.38625 59.7361 7.03399 59.7099C6.75213 59.6859 6.47204 59.2562 6.1593 59.1799C6.37422 59.1627 6.58975 59.1542 6.80444 59.1336C6.73055 58.4184 6.72357 57.8197 6.46776 57.119C4.78601 56.9486 6.7535 55.2961 5.04215 56.3495C5.20249 57.0706 5.16858 57.5311 4.88027 58.1058C4.61367 57.6943 4.35548 57.2749 4.10324 56.85C4.24732 56.6327 4.40379 56.4576 4.54501 56.2194C3.97726 56.0654 3.85399 55.2058 3.6149 54.943C2.49842 53.7072 1.88817 54.3633 2.73653 52.617C3.15757 53.5563 3.76978 53.3543 4.01156 54.3191C4.37236 53.9631 4.12299 53.526 4.74846 53.6505C4.31946 52.8042 3.95047 53.2427 3.41893 53.018C2.96055 52.822 2.75546 52.1932 2.29547 52.363C2.53556 52.2232 2.77207 52.1017 3.01288 51.9645C2.84013 51.3603 2.68549 50.7535 2.54326 50.1427C2.8769 50.3409 3.21235 50.532 3.54716 50.7169C3.60224 50.4999 3.65874 50.2838 3.71757 50.069C2.49049 48.7761 3.72203 45.9541 1.60662 46.6576C1.44252 45.9225 1.70973 45.7914 2.0826 45.3522C1.91232 45.3247 1.77012 45.2951 1.58112 45.2681C1.71044 44.7767 1.05822 44.4545 1.19393 44.0126C1.3295 43.5719 1.91748 43.4436 0.921107 43.4265C1.19329 43.1358 1.42048 42.8536 1.67874 42.5751C1.44893 42.4166 1.2227 42.255 0.996247 42.092C1.06463 41.9358 1.13377 41.7801 1.20386 41.625C1.20386 41.625 1.20386 41.625 1.20386 41.625C1.25192 41.5187 1.30042 41.4128 1.34943 41.3076C0.873109 41.1636 1.09946 40.1416 0.807346 39.6767C1.34261 39.2687 2.94129 39.38 2.73131 38.3984C2.33117 38.389 1.93216 38.3802 1.53193 38.3724C1.63421 38.1514 1.7381 37.9323 1.84429 37.7134C1.97539 37.7129 2.10631 37.7145 2.2374 37.7143C2.18538 37.8253 2.1344 37.9333 2.0821 38.0443C2.31113 37.9654 2.53915 37.8905 2.76845 37.8167C2.47777 37.4448 2.19255 37.065 1.91333 36.6764C1.60742 37.1105 1.30805 37.5626 1.01792 38.0141C0.781917 37.3874 1.12161 36.9961 0.865679 36.4336C1.4738 36.0528 1.76511 36.2711 2.33396 36.5279C2.30531 36.3584 2.27981 36.1868 2.25343 36.0165C2.83162 36.2108 3.21647 35.9913 3.04475 36.9169C3.22228 36.8742 3.39216 36.8301 3.57624 36.7918C3.56968 36.6371 3.72604 36.5593 3.68449 36.3855C3.5698 35.9163 2.59319 35.3893 2.22419 35.3596C2.03 35.3459 2.32094 35.868 2.05466 35.8076C1.40398 35.6642 1.86647 34.6151 0.96695 36.0863C0.623316 35.503 0.958334 35.4254 1.17718 34.8719C0.950795 34.8789 0.725959 34.8856 0.499761 34.8924C0.646881 34.6378 0.796109 34.3858 0.947941 34.1373C1.99703 34.6999 2.78879 32.9149 3.4351 34.785C3.57728 34.3038 3.72978 33.8246 3.89374 33.3521C3.98482 33.4781 4.07537 33.6032 4.16769 33.7276C4.05919 33.9316 3.95341 34.1375 3.8499 34.3442C4.11152 34.129 4.37429 33.9163 4.6396 33.7111C4.51624 33.0567 4.18194 32.725 3.76582 32.3204C3.23001 32.9421 3.77447 32.8324 3.74277 33.4071C3.43652 33.3169 3.14476 33.278 2.82971 33.1538C3.5364 33.0085 3.30574 31.9589 3.33888 31.7261C3.42881 31.0335 3.90796 31.7289 4.04591 31.294C4.18371 30.8636 3.97829 30.2273 4.70634 30.0749C4.36198 29.9682 3.99839 29.8799 3.67802 29.8036C3.79482 29.0771 4.15465 29.3546 4.23009 29.302C5.47696 28.4961 4.98134 27.6508 5.44629 26.3624C5.27421 26.474 5.11179 26.5936 4.94615 26.7133C4.66242 25.4589 4.58838 26.1825 4.00495 26.9289C4.40177 26.172 4.01086 25.4591 4.09853 24.817C4.1846 24.1737 4.96952 23.378 5.38128 23.1707C5.33863 24.1343 4.6752 24.8459 4.38382 25.7765C4.76367 25.8271 5.09013 25.8599 5.50264 25.9285C5.04302 25.0845 5.66065 24.9996 5.83426 24.8787C6.34872 24.5197 5.75523 24.232 6.53983 24.2653C6.31683 24.1635 6.12993 24.0768 5.92104 23.9829C6.54798 23.0003 7.54099 22.1792 7.18285 21.06C7.71639 21.3164 8.22154 21.5776 8.76769 21.8373C8.6512 21.1994 9.25578 21.1113 9.395 20.7277C9.53628 20.3434 9.05911 20.1948 9.18625 19.7022C9.21066 19.6107 9.55746 19.6385 9.50904 19.3352C9.45251 19.0364 8.66157 17.3743 9.85166 18.181C10.1115 17.8617 10.3974 17.5931 10.6743 17.3006C10.4842 17.6528 10.2987 18.0049 10.1222 18.3594C10.6001 18.3136 11.0736 18.2788 11.5467 18.2525C11.3351 18.023 11.1199 17.7891 10.9117 17.5621C11.2005 16.6332 12.0138 16.4818 12.5422 15.7512C12.6323 15.6286 11.9404 15.4628 12.5225 15.086C13.1133 14.709 14.2472 15.1843 14.7725 14.1078C14.7969 14.0548 14.4665 13.1736 15.1735 13.3617C15.3323 13.4052 15.1754 13.8116 15.452 13.8093C15.7267 13.8045 16.5333 13.3214 16.8601 13.6123C16.7565 13.5007 16.6124 13.4151 16.4926 13.3133C16.5687 13.1569 16.6473 12.9997 16.7283 12.8437C16.9071 13.0435 17.0867 13.2432 17.2641 13.4424C17.5754 12.4049 17.3595 11.2816 18.6875 10.7735C18.1493 10.6701 17.6035 10.5772 17.0543 10.4964C17.127 10.7813 17.2028 11.0668 17.2812 11.3488C16.7032 11.6417 16.1293 11.9529 15.563 12.278C15.6787 12.5853 15.7975 12.8895 15.9178 13.1941C15.764 13.2703 15.6126 13.3474 15.4595 13.4259C15.3447 13.2283 15.2315 13.031 15.1192 12.8314C14.8988 13.0923 14.6828 13.3568 14.4717 13.6213C14.0974 12.1654 15.9909 12.4645 15.214 11.6704C15.4427 11.7056 15.6714 11.7437 15.899 11.7839C15.6156 11.3224 15.9581 11.2443 16.4482 10.978C16.1873 10.8433 15.9163 10.7218 15.6587 10.5828C16.3184 10.5411 17.069 9.94471 17.6141 9.74484C17.8521 9.65705 17.8722 10.1173 17.9583 10.1136C18.395 10.1005 18.6089 9.14423 18.7677 9.10751C19.7036 8.88874 20.8308 9.71393 21.2386 8.50895C20.2744 8.81416 20.7878 8.62576 20.2427 8.39531C20.0732 8.32204 18.791 8.72659 20.2682 8.01036C20.4464 7.89498 23.4527 7.33714 22.9067 8.38958C23.2195 7.98733 23.4379 7.60186 23.7293 7.21084C25.4189 8.4181 24.4038 7.0254 23.7374 6.30285C23.8961 6.2266 24.0455 6.14986 24.2119 6.07724C24.2616 7.11656 26.0306 6.42876 26.483 5.75159C26.635 5.52067 25.9416 5.44256 26.3753 5.12514C26.6297 5.10524 26.9217 5.09606 27.1911 5.08495C26.6318 4.62249 27.2594 4.15571 27.0552 3.56174C27.7004 3.93882 28.3918 4.97156 28.3417 5.6621C28.6259 5.29882 28.9191 4.9391 29.2214 4.58124C29.0075 4.48643 28.7902 4.3953 28.5733 4.30406C29.8961 4.31293 31.3056 3.07621 31.8418 4.31993C32.0036 4.27641 32.1657 4.23527 32.3269 4.19412C32.3344 3.96508 32.341 3.73587 32.3503 3.50669C33.1376 3.55301 33.9223 3.6245 34.6928 3.71914C34.0446 3.94641 33.9421 4.28281 33.2073 4.14441C33.5171 4.35175 33.829 4.56326 34.1233 4.77889C35.0421 3.95167 35.1621 3.46367 36.7648 3.53559C36.8406 3.53456 38.0738 4.04388 38.1096 4.1035C38.3042 4.35408 38.041 4.7404 38.1282 4.86746C38.376 5.21657 39.7285 6.11417 39.6964 6.25803C39.3368 7.89889 35.1789 8.1859 34.0783 8.53619C22.8143 11.2595 12.2469 18.5091 8.19201 29.7574C8.15253 29.8716 8.4062 29.9102 8.39838 29.9619C8.34686 30.2799 7.87549 30.441 7.82111 30.5487C7.70725 30.7766 8.09435 30.7625 8.0358 30.9357C7.4317 32.7186 6.79431 34.4162 6.5542 36.3054C6.53887 36.4288 6.27259 36.2582 6.28966 36.483C6.29987 36.5996 6.68837 37.0092 6.66312 37.2578C6.5734 38.1329 6.36252 38.8506 6.31696 39.7857C6.29215 40.2919 6.23229 41.0505 6.24032 41.625C6.24033 41.6262 6.24034 41.6273 6.24036 41.6285C6.24321 41.8824 6.44921 42.1425 6.46158 42.3891C6.47963 42.7391 6.06737 42.6805 6.04327 42.7357C5.93983 42.9793 6.39254 42.9948 6.39194 43.2188C6.39159 43.6371 6.09073 43.6805 6.15503 44.2142C6.20029 44.5961 6.52303 45.442 6.65595 45.9059C6.4464 47.0596 6.84593 48.4502 7.20555 49.4351C7.41745 50.0171 7.02728 50.1784 7.09394 50.4257C7.33843 51.2954 8.05481 51.7808 8.34135 52.5547C8.72466 53.5815 8.76126 54.623 9.18889 55.6183C9.2585 55.7788 9.59247 55.5795 9.67329 55.7285C9.97205 56.2817 10.3993 56.9625 10.6194 57.477C10.8656 58.0495 10.4964 58.5332 10.9137 59.006C11.0371 59.1436 11.4841 58.9321 11.6956 59.1512C12.0315 59.5007 11.958 60.1748 12.1103 60.4821C12.3199 60.8983 12.502 60.2852 12.8026 60.8263C12.8148 60.8483 12.5774 61.1328 12.67 61.2311C12.9394 61.5165 13.141 61.3179 13.4619 61.7825C13.4892 61.8275 13.6875 62.6295 13.7367 62.6888C14.0081 63.0367 14.501 63.7917 14.7325 63.9373C15.5553 64.4589 15.4439 63.541 15.1375 64.9271C15.5897 64.9873 16.0404 65.0327 16.497 65.0927C16.136 65.1036 16.5949 66.075 16.6681 66.1054C17.2316 66.3629 17.2812 65.793 17.776 66.3388C16.345 66.4719 18.4022 67.0811 18.7523 67.3128C20.4286 68.5078 21.8335 69.7762 23.6603 70.7812C24.2712 71.117 25.2019 71.3401 25.8606 71.6479C26.0152 71.7194 25.7942 71.892 25.9293 71.9596C26.0649 72.0251 26.0283 71.7018 26.178 71.7855C27.1012 72.3044 27.7109 73.11 28.8517 72.8108C28.8651 72.9163 28.8389 72.987 28.8795 73.1117C29.8165 72.8193 31.0523 74 31.6101 74.2417C32.4617 74.622 32.7826 74.2772 33.4118 74.4824C34.2446 74.7576 35.4602 75.7028 35.0511 74.3479C35.6433 74.3902 36.2162 74.444 36.8013 74.6149C36.8668 74.6342 36.793 74.9562 36.8193 74.9652C36.9865 75.0265 37.0654 74.7386 37.1809 74.7339C37.4956 74.7204 36.9597 75.0338 37.4138 74.9676C37.6531 74.9299 37.8054 74.6875 38.4509 74.7078C38.8607 74.7199 39.2762 74.7261 39.6968 74.7256C39.6968 74.7256 39.6968 74.7256 39.6968 74.7256C43.2716 74.7305 47.0498 74.193 50.4704 73.052C50.732 72.9644 50.4573 72.7255 50.7869 72.6301C51.9302 72.3144 54.1223 71.9296 55.0211 71.3655C55.9119 70.815 55.481 70.5155 55.9437 70.033C56.0321 69.9388 56.0756 70.218 56.1751 70.1652C56.8396 69.8109 57.8282 69.6717 58.3804 69.3716C58.7453 69.174 58.4819 68.8505 58.696 68.6645C59.0139 68.3886 59.6111 68.4679 59.802 68.3405C60.6924 67.739 61.0397 67.0131 61.8946 66.4841C61.8047 66.442 61.7294 66.3959 61.6452 66.3503C62.5285 65.5854 63.371 64.7745 64.1702 63.9198C64.0714 63.9043 63.9735 63.8867 63.8741 63.8695C64.8206 62.8924 65.392 63.5831 63.8703 62.4318C63.8821 62.315 63.8888 62.1871 63.9005 62.0774C64.6219 62.7451 65.714 62.584 66.5642 61.8727C66.6301 61.8185 66.1667 60.8316 67.0473 61.5453C66.9049 61.2702 66.7976 61.0924 66.6663 60.8573C67.0753 60.8748 67.485 60.8806 67.8971 60.8832C67.9252 60.7516 67.9549 60.6197 67.9811 60.4884C67.8067 60.3499 67.6074 60.2334 67.4477 60.08C67.735 59.5982 68.5769 58.7542 68.7732 58.3474C69.274 57.338 69.2341 56.0816 70.1786 55.5742C70.2919 55.1637 69.7258 55.3644 70.0261 54.821C70.2563 54.845 70.4767 54.8679 70.7149 54.8891C70.0073 54.0316 70.598 54.1788 71.0452 53.5937C71.3457 53.1971 71.2242 52.8229 71.4142 52.4123C71.4624 52.308 71.7313 52.4155 71.7475 52.3376C71.8062 52.0754 71.6492 51.241 71.6879 51.0637C72.0556 49.4303 72.3972 48.0524 72.7363 46.4885C72.7713 46.3213 72.4574 46.4989 72.4942 46.3268C72.5521 46.0499 72.9638 46.2743 73.0074 46.113C73.1237 45.6599 72.6674 45.6 72.7093 44.962C72.7745 43.9108 72.9029 42.7838 72.9838 41.625C72.9838 41.625 72.9838 41.625 72.9838 41.625C73.0649 40.4761 73.0984 39.3115 73.0025 38.2136C72.9955 38.1446 72.7263 38.1763 72.7158 38.1021C72.6518 37.6193 72.9519 37.0818 72.8821 36.6404C72.7657 35.9045 72.2927 35.4283 72.1463 34.7232C71.8529 33.3422 71.705 32.0713 71.2368 30.6802C70.8509 29.5478 70.4291 28.5943 69.8734 27.4073C67.3993 22.1607 62.9356 18.2064 58.5717 14.6106C58.4596 14.5176 58.6447 14.3549 58.6023 14.3379C58.1934 14.1813 57.984 14.4322 58.2343 13.7851C57.7056 13.5951 57.2911 13.9314 56.7614 13.5632C56.4775 13.3697 57.1036 12.8238 56.3885 12.8747C55.7414 12.9317 56.0521 13.58 54.8868 12.4549C54.8565 12.4255 54.8949 11.903 54.5432 11.8668C54.1928 11.8323 54.38 12.3026 53.6307 12.0584C51.8842 11.4923 49.8515 10.2914 47.7333 9.89619C47.6026 9.86497 46.2905 9.82891 46.0233 9.90396C45.503 10.0379 45.5386 10.4054 44.913 10.3875C44.4295 10.3764 44.0992 9.91923 43.5223 9.93091C43.455 9.93323 43.2978 10.3312 42.8843 10.2337ZM29.111 79.8217C28.8659 80.1756 28.1857 81.553 27.4377 80.8434C27.3706 80.7773 28.1136 79.9273 27.6922 79.6235C28.1833 79.6642 28.6382 79.7618 29.1114 79.8202C29.1113 79.8207 29.1111 79.8212 29.111 79.8217ZM39.8729 0.499775C40.5615 0.578017 41.2429 0.672475 41.9184 0.784123C41.439 0.940322 40.9675 1.1046 40.5005 1.27846C40.295 1.01747 40.0871 0.757602 39.8729 0.499775ZM74.9572 61.3837C74.9575 61.3831 74.9578 61.3825 74.9582 61.382C74.7797 62.0955 74.5811 62.8077 74.3597 63.5197C74.2797 63.3795 74.1986 63.2395 74.1174 63.1004C74.2252 62.5041 74.3174 61.9114 74.3946 61.3212C74.5818 61.3431 74.7694 61.3637 74.9572 61.3837ZM75.9456 55.7747C76.2614 55.4291 76.4896 55.6301 76.8364 55.4996C76.8359 55.4994 76.8354 55.4992 76.8349 55.4991C76.9257 55.4641 77.0894 55.2029 77.1386 55.0973C76.9558 55.077 76.7709 55.0686 76.5884 55.0509C76.523 53.9754 78.6257 52.4556 78.3634 55.2147C78.1636 55.1016 77.9641 54.9911 77.7638 54.8792C77.3863 56.1643 76.368 57.3154 75.9456 55.7747ZM19.1673 76.2846C17.8197 76.3366 17.3919 76.2565 16.5364 75.0558C16.8167 74.995 17.0956 74.9315 17.3723 74.865C17.4395 75.168 17.5102 75.4694 17.5856 75.7733C17.5861 75.7736 17.5867 75.774 17.5872 75.7743C17.7479 75.6107 17.9082 75.4464 18.0662 75.2809C18.4248 75.6207 18.7942 75.9568 19.1673 76.2846ZM69.8036 16.1508C70.727 14.9581 70.1341 15.5745 70.9638 16.0562C71.2511 16.2254 71.2588 15.8254 71.4157 15.9502C72.2668 16.6347 71.5219 17.3088 70.9754 17.4399C70.5917 17.0014 70.1977 16.5661 69.8049 16.1523C69.8045 16.1518 69.8041 16.1513 69.8036 16.1508ZM47.2524 3.22392C47.2518 3.2238 47.2512 3.22368 47.2505 3.22356C47.2924 2.86435 47.7202 2.84975 47.3252 2.42412C47.6758 2.49333 48.0283 2.5694 48.3807 2.64896C48.2699 2.65879 48.1575 2.66708 48.047 2.67784C48.1125 2.81838 48.1769 2.96065 48.2405 3.10144C48.4532 2.72438 48.5185 2.98459 48.8489 3.20501C48.851 2.75057 48.85 2.29552 48.845 1.84028C49.253 2.06899 49.6526 2.30379 50.0496 2.54504C50.0264 2.65428 50.0032 2.76372 49.9799 2.87293C50.1771 2.77767 50.3744 2.68188 50.5743 2.58948C50.5825 2.73 50.589 2.86886 50.5964 3.00928C50.8166 2.96651 51.0379 2.92574 51.2603 2.88535C51.2258 3.2124 50.7659 3.21772 51.5349 3.36589C51.2089 3.6115 50.8885 3.86002 50.5705 4.11251C49.4777 3.7683 48.3727 3.47194 47.2524 3.22392ZM74.731 22.5321C74.0527 21.4388 74.4232 21.6366 75.2124 21.5388C75.0553 21.8725 74.8955 22.2049 74.731 22.5321ZM55.282 77.6482C55.1423 78.2527 54.987 78.8529 54.8033 79.4451C54.1773 79.9961 53.1356 79.401 53.5536 78.8687C54.0435 78.2302 54.8835 78.4075 55.282 77.6482ZM38.6667 81.0744C39.5848 81.3243 38.7075 81.9021 38.4792 82.24C38.2334 81.6764 37.8795 81.7145 37.3008 81.6161C37.8524 81.6137 38.5165 81.0319 38.6667 81.0728C38.6667 81.0733 38.6667 81.0739 38.6667 81.0744ZM67.7955 69.8139C68.049 69.5401 68.2058 69.1793 68.5574 69.0553C68.835 69.4577 68.0528 69.6403 68.897 69.7858C68.7373 69.9688 68.5755 70.1504 68.4147 70.3303C68.315 70.0152 68.015 70.0057 67.7973 69.8143C67.7967 69.8142 67.7961 69.814 67.7955 69.8139ZM79.4564 34.1231C79.0341 34.9536 79.2937 35.0399 79.7923 35.7231C79.3527 35.8899 78.4619 35.1362 78.1971 34.6406C78.6178 34.4718 79.0379 34.2996 79.4564 34.1231ZM18.3876 7.50944C18.5428 8.09908 17.5125 8.85735 16.8906 9.08978C16.9031 8.97468 16.9158 8.85837 16.9287 8.74196C17.4038 8.32072 17.8903 7.90953 18.3876 7.50944ZM37.0278 81.5593C37.1234 81.5828 37.2146 81.6013 37.3008 81.6161C37.2039 81.6168 37.1113 81.6009 37.0278 81.5593ZM7.29972 60.477C7.92163 60.4438 7.65269 59.6225 7.98736 60.614C7.98781 60.6137 7.98827 60.6134 7.98872 60.6131C8.21799 61.2672 8.26762 61.4165 8.57546 61.9695C7.85967 62.1733 6.9252 61.1926 7.79233 62.7994C7.80516 62.8195 8.13026 62.5467 8.24271 62.8173C8.27747 62.9006 8.14991 63.3329 8.32074 63.7498C8.37545 63.8834 8.90916 64.8158 8.06034 63.6329C7.67922 63.9519 7.22281 64.1735 6.83033 64.4504C6.37619 64.0406 6.93313 63.1284 6.58697 62.6296C6.07242 61.8879 4.9933 61.9727 6.01586 61.1749C6.66479 61.6745 7.36179 62.747 6.81668 63.3179C7.22211 63.9435 7.86261 63.7493 7.7923 63.0903C6.09445 61.202 8.19086 62.0292 6.65203 60.4307C6.48399 60.4971 6.27218 60.514 6.13265 60.6087C6.35469 59.72 7.07654 60.4929 7.29972 60.477ZM9.08315 65.538C8.51627 65.4269 7.94552 65.3039 7.37535 65.1661C7.87411 64.8026 8.46161 64.678 9.15081 65.0086C9.12628 65.1843 9.10417 65.362 9.08315 65.538ZM2.23035 30.7377C1.92609 30.5839 1.67938 30.3342 1.41024 30.122C1.69502 30.0542 3.00216 27.1306 2.72702 28.752C2.68423 28.9768 1.67539 30.1754 2.23035 30.7377ZM77.7038 29.2853C77.6081 29.7182 77.5036 30.1433 77.3927 30.5639C77.0951 30.0548 76.7822 29.5524 76.4614 29.0625C76.8752 29.1313 77.2892 29.2044 77.7038 29.2853ZM49.3774 79.0551C49.5328 79.0277 49.1414 79.6057 49.7245 79.3785C49.3512 79.7821 48.9892 80.1281 48.6008 80.5011C48.4176 80.3193 48.2351 80.1376 48.0558 79.9534C47.9819 80.1127 47.9044 80.2714 47.8279 80.4303C47.8261 80.1063 47.8175 79.7912 47.8149 79.4615C48.702 79.9651 48.7033 79.1705 49.3774 79.0551ZM67.359 66.8121C67.9629 67.1754 67.5286 68.2546 68.3331 67.5404C68.5325 67.9948 68.4845 68.404 68.0711 68.8935C67.875 68.8472 67.6806 68.8005 67.4859 68.7518C67.8078 69.0858 67.8186 69.3234 67.7955 69.8139C67.7949 69.8137 67.7943 69.8136 67.7937 69.8134C67.1183 70.5275 67.0453 70.371 66.355 69.9763C67.3909 69.5854 66.9278 69.0549 67.1078 68.2815C67.2292 67.7497 67.7367 67.3913 67.359 66.8121ZM1.44182 34.009C1.01665 33.1886 0.344426 33.7007 1.23428 32.5701C1.35929 32.6852 1.48347 32.7995 1.60941 32.913C1.54983 33.2774 1.49312 33.6459 1.44182 34.009ZM71.4253 65.6167C70.5196 65.0457 69.4635 65.0517 70.7506 66.2229C71.4457 65.911 70.4634 65.5701 71.4253 65.6167ZM39.0105 79.409C39.3301 79.4275 39.5517 79.5185 39.6968 79.6562C40.0338 79.9754 39.955 80.55 39.6968 80.9939C39.6378 81.0954 39.5696 81.1899 39.4956 81.2728C39.4143 81.053 39.3346 80.8327 39.2578 80.6139C39.0334 80.711 38.8077 80.8064 38.5808 80.8983C38.7288 80.4031 38.8722 79.9057 39.0105 79.409ZM78.1992 44.4263C78.89 45.4521 78.6932 43.4052 79.1225 44.1161C79.4695 44.6959 78.6371 45.3502 78.1817 45.0364C78.1844 44.8504 78.1917 44.6437 78.1991 44.4282C78.1991 44.4276 78.1991 44.427 78.1992 44.4263ZM77.6166 49.9771C78.4458 49.9951 78.1702 50.1682 78.1818 49.3815C78.1935 49.1627 78.7894 47.4816 78.0005 48.0966C77.8976 48.7103 77.7634 49.346 77.6166 49.9771ZM24.692 77.6148C24.8235 77.2906 26.3298 77.0523 26.4168 77.286C26.417 77.2855 26.4172 77.285 26.4174 77.2845C26.6634 77.9455 25.3219 77.5175 25.6325 78.4164C24.5986 77.3279 23.6244 78.5742 24.5202 76.7384C25.2777 76.9643 24.7731 77.2059 24.692 77.6148ZM34.6416 3.40577C34.6422 3.40569 34.6429 3.40561 34.6435 3.40553C34.555 3.39835 33.7515 2.98766 33.8119 2.7974C34.7234 2.82244 34.5981 3.18535 35.3664 2.52911C35.4319 2.70449 35.4898 2.87529 35.5579 3.05191C35.2416 3.19431 35.0882 3.43076 34.6416 3.40577ZM3.9923 27.7631C3.96189 28.095 3.39608 28.5144 3.29612 28.872C2.29766 27.2447 4.13526 26.4168 3.9923 27.7631ZM58.8158 7.41763C58.8168 7.41763 58.8179 7.41763 58.819 7.41763C58.8184 7.41819 58.8177 7.41868 58.817 7.41924C58.8166 7.41871 58.8162 7.41817 58.8158 7.41763ZM2.05234 52.5108C2.13269 52.4434 2.20619 52.3975 2.27412 52.3691C2.28073 52.3672 2.28734 52.3653 2.29395 52.3634C2.21392 52.4101 2.13337 52.4586 2.05234 52.5108ZM22.1114 76.5449C21.8454 75.8595 23.8264 75.9701 24.2813 76.3632C24.1519 76.553 24.0629 76.7376 23.8679 76.9346C23.6742 76.2123 22.1639 76.6689 22.1114 76.5449ZM62.3663 73.2502C61.1703 74.0789 61.5723 71.4048 62.5448 72.6147C62.5617 72.6406 62.3969 73.2258 62.3663 73.2502ZM33.1581 79.9624C33.6226 79.4382 32.9147 79.1696 34.0673 79.4518C34.1127 79.6135 34.1589 79.7754 34.206 79.9369C33.8598 79.9502 33.5086 79.9591 33.1581 79.9624ZM53.0019 75.4549C51.533 76.3934 50.0393 77.4269 51.6636 78.6336C51.7807 78.5407 51.8994 78.4482 52.0148 78.3543C51.7822 77.5918 52.3995 77.8476 53.1099 77.6107C53.0998 77.2778 53.4563 77.0631 53.4291 76.7847C53.3742 76.2488 52.8184 76.074 53.0019 75.4549ZM65.673 14.3882C65.7876 14.3098 65.9024 14.2306 66.0165 14.1536C66.329 14.2406 66.6417 14.3334 66.9546 14.4298C66.737 14.5809 66.5199 14.7326 66.3035 14.8852C66.0949 14.7174 65.8854 14.553 65.6737 14.39C65.6735 14.3894 65.6732 14.3888 65.673 14.3882ZM11.497 65.8334C10.2535 66.6767 10.843 66.9637 12.183 67.2949C11.9425 66.8105 11.7131 66.3223 11.497 65.8334ZM73.2453 57.1281C73.6462 57.2735 74.0462 57.4177 74.4488 57.5591C74.303 56.8103 73.805 56.7268 73.1762 56.7548C73.1995 56.8795 73.2233 57.0028 73.2453 57.1281ZM75.7452 48.8975C75.6095 49.1215 75.9704 49.067 75.9586 49.0909C75.652 49.6743 75.4828 49.7201 75.552 50.5298C75.6168 50.6432 75.686 50.7566 75.7524 50.8717C76.7037 50.7393 76.2997 50.3696 76.9768 49.7233C76.6485 49.7966 76.3199 49.8656 75.9903 49.9313C76.1473 49.5328 76.2971 49.1296 76.4403 48.7258C76.3574 48.6586 76.2751 48.5917 76.1918 48.5252C76.0451 48.6503 75.8822 48.7754 75.7452 48.8975ZM63.4543 11.9346C63.1479 11.6442 62.8354 11.3562 62.5183 11.0753C62.3745 11.2416 62.2306 11.4097 62.0873 11.5763C62.5421 11.6858 62.9988 11.8058 63.4543 11.9346ZM6.1593 59.1799C6.075 59.1866 5.99061 59.1941 5.90665 59.2052C5.99398 59.1629 6.07793 59.1602 6.1593 59.1799ZM35.883 4.47234C36.3613 4.57699 37.0224 4.42254 37.5396 4.42632C37.467 3.87476 36.1635 4.12055 35.6677 3.84452C35.6031 3.95072 35.6791 4.42834 35.883 4.47234ZM40.7219 79.4499C40.8337 79.1724 40.9427 78.8957 41.0474 78.6173C41.3294 78.6368 41.6102 78.6549 41.8976 78.6678C41.8928 78.443 41.8877 78.2163 41.8826 77.9915C40.6692 78.3464 40.9211 77.679 40.3151 77.0557C40.4439 77.854 40.5782 78.6517 40.7219 79.4499ZM51.3117 6.90689C52.2012 7.04715 52.6046 6.90144 52.3493 6.09088C51.9928 6.12812 51.6365 6.17005 51.2841 6.21753C51.2953 6.44761 51.305 6.67774 51.3117 6.90689ZM2.38623 43.0863C2.11607 42.3515 2.96748 42.3067 2.54262 41.625C2.54262 41.625 2.54262 41.625 2.54262 41.625C2.53127 41.6065 2.519 41.5874 2.50578 41.5679C2.49779 41.5869 2.48981 41.606 2.48184 41.625C2.48184 41.625 2.48184 41.625 2.48184 41.625C2.32285 42.0051 2.16804 42.3885 2.02067 42.7737C2.14178 42.8781 2.26426 42.9841 2.38623 43.0863ZM21.9848 71.6505C21.8983 71.2333 20.6122 72.2092 20.4998 70.8136C20.1505 70.9779 19.8692 71.1682 19.5408 71.3355C19.6526 70.9869 19.7585 70.6282 19.8784 70.2873C19.8779 70.287 19.8774 70.2866 19.877 70.2863C19.1834 69.9449 19.3331 70.5875 19.106 70.8839C19.0091 71.006 18.6864 70.4562 18.6375 70.8352C18.554 71.4939 19.731 71.8941 19.3478 72.4793C19.1202 72.0566 18.3333 71.7394 18.2644 72.264C18.1958 72.8471 19.3349 72.5775 19.5252 73.2042C19.5341 71.8739 20.5737 72.9526 20.2806 73.7763C21.3727 73.6535 20.8147 73.02 20.0587 72.5762C20.8647 72.3026 20.007 72.1842 20.2018 71.6522C20.8296 71.6803 22.269 72.8468 21.9848 71.6505ZM59.2404 71.9516C58.7702 72.3093 57.8013 72.4506 57.7314 73.1319C57.6865 73.5339 58.6243 73.2821 58.319 74.0497C58.8053 73.7108 58.8136 73.4682 58.4987 73.1357C58.5843 73.0219 58.6709 72.9081 58.7557 72.7946C58.8533 72.8373 58.9518 72.8779 59.0499 72.9199C59.012 72.7266 58.9741 72.5348 58.9328 72.3431C59.0694 72.3002 59.2073 72.2556 59.3444 72.2121C59.308 72.1254 59.2876 72.0426 59.2404 71.9516ZM7.74969 22.2331C7.66702 22.3794 7.58619 22.5247 7.50667 22.6727C7.61002 22.7122 7.71899 22.7511 7.82617 22.7902C7.91008 22.8224 7.99395 22.8546 8.07777 22.887C7.75734 22.8029 6.89791 23.2366 7.03262 23.6984C7.10164 23.9268 7.80693 23.8857 7.56807 24.551C7.77871 24.0899 7.93749 23.6379 8.14309 23.1855C8.27507 23.3142 8.40999 23.4418 8.54276 23.5695C8.54313 23.5694 8.5435 23.5693 8.54388 23.5692C8.66006 23.4495 8.77952 23.3302 8.89698 23.2127C8.51257 22.8883 8.13015 22.563 7.74969 22.2331ZM72.2802 57.2052C72.3564 57.8563 72.4284 58.112 73.0576 58.1239C73.0581 58.1235 73.0586 58.1231 73.0591 58.1227C72.9281 57.8204 72.7939 57.5208 72.6556 57.2254C72.5307 57.2188 72.4056 57.2113 72.2802 57.2052ZM5.89696 53.967C3.45518 53.5743 5.64587 55.6748 6.14779 54.9069C6.16905 54.8755 5.70876 54.1536 5.89696 53.967ZM38.7995 78.7411C39.0975 78.7326 39.3965 78.7218 39.6968 78.7065C39.6968 78.7065 39.6968 78.7065 39.6968 78.7065C39.732 78.7046 39.7672 78.7028 39.8025 78.7008C39.7672 78.5808 39.7318 78.461 39.6968 78.3411C39.6968 78.3411 39.6968 78.3411 39.6968 78.3411C39.6545 78.1964 39.6126 78.0517 39.5718 77.9066C39.3197 78.1869 39.0618 78.4661 38.7995 78.7411ZM54.508 9.22012C54.5703 9.89709 55.2229 10.4502 55.8884 10.0715C55.7272 9.90382 55.5636 9.7372 55.3978 9.57187C55.8066 9.69016 56.2134 9.80723 56.6204 9.94574C57.0292 9.23012 56.3714 9.41473 55.804 8.8813C55.7225 8.79811 55.4793 7.5471 54.9191 8.14226C54.8088 8.26481 55.4745 8.69313 54.7871 8.88214C54.9865 9.01421 55.1736 9.09394 55.3659 9.20943C55.2949 9.39329 55.2234 9.57717 55.1533 9.7615C54.9399 9.57869 54.7268 9.39853 54.508 9.22012ZM56.3299 73.7167C55.5955 74.0436 55.6492 74.3761 55.7484 74.9766C56.0652 74.7507 56.3777 74.5213 56.6847 74.2869C56.5657 74.0978 56.449 73.9073 56.3299 73.7167ZM60.5014 12.9417C60.7931 13.273 60.9251 12.7826 61.1201 12.8147C61.8588 12.944 62.0106 13.4936 62.6535 13.7467C62.5614 13.7894 62.4761 13.83 62.3874 13.8721C62.3879 13.8725 62.3883 13.8728 62.3888 13.8732C64.4777 16.1969 63.9879 14.309 62.4033 13.2407C62.479 13.0756 62.5557 12.911 62.6295 12.7462C61.7676 12.4528 60.9622 12.2393 60.5014 12.9417ZM10.8957 63.0579C10.9637 62.9639 11.7021 62.7844 11.107 62.5309C10.0168 62.7732 10.8591 63.067 10.658 63.4513C10.486 63.3862 10.3144 63.3154 10.1437 63.2486C10.4698 64.1758 10.7535 64.1294 11.1398 63.4077C11.1651 63.3588 10.8285 63.1526 10.8957 63.0579ZM8.16342 57.7169C6.75847 58.2903 7.91089 59.0222 8.30184 58.7523C8.242 58.6038 7.95837 58.6158 7.97849 58.4129C7.99848 58.2087 8.28976 58.0074 8.16342 57.7169ZM33.4588 76.8461C33.425 76.8338 33.2084 76.15 33.1513 76.6438C33.3527 77.879 34.3416 77.2685 34.2488 76.8394C33.9697 76.8168 33.7561 76.9606 33.459 76.8445C33.4589 76.8451 33.4589 76.8456 33.4588 76.8461ZM49.5159 7.74473C49.5222 7.78801 50.2394 8.27073 50.4135 8.08076C50.5791 7.85407 50.7093 7.59619 50.8593 7.35502C50.3336 7.44871 49.4864 7.00014 49.5175 7.7452C49.517 7.74504 49.5164 7.74489 49.5159 7.74473Z" fill="#6B6B6B"/>
</g>
<defs>
<filter id="filter0_fn_208_14487" x="0" y="0" width="80.3105" height="83.3809" filterUnits="userSpaceOnUse" color-interpolation-filters="sRGB">
<feFlood flood-opacity="0" result="BackgroundImageFix"/>
<feBlend mode="normal" in="SourceGraphic" in2="BackgroundImageFix" result="shape"/>
<feGaussianBlur stdDeviation="0.25" result="effect1_foregroundBlur_208_14487"/>
<feTurbulence type="fractalNoise" baseFrequency="10 10" stitchTiles="stitch" numOctaves="3" result="noise" seed="8171" />
<feColorMatrix in="noise" type="luminanceToAlpha" result="alphaNoise" />
<feComponentTransfer in="alphaNoise" result="coloredNoise1">
<feFuncA type="discrete" tableValues="0 0 0 1 1 1 1 1 1 1 1 1 1 1 1 1 1 1 1 1 1 1 1 1 1 1 1 1 1 1 1 1 1 1 1 1 1 1 1 1 1 1 1 1 1 1 0 0 0 0 0 0 0 0 0 0 0 0 0 0 0 0 0 0 0 0 0 0 0 0 0 0 0 0 0 0 0 0 0 0 0 0 0 0 0 0 0 0 0 0 0 0 0 0 0 0 0 0 0 0 "/>
</feComponentTransfer>
<feComposite operator="in" in2="effect1_foregroundBlur_208_14487" in="coloredNoise1" result="noise1Clipped" />
<feFlood flood-color="rgba(0, 0, 0, 0.31)" result="color1Flood" />
<feComposite operator="in" in2="noise1Clipped" in="color1Flood" result="color1" />
<feMerge result="effect2_noise_208_14487">
<feMergeNode in="effect1_foregroundBlur_208_14487" />
<feMergeNode in="color1" />
</feMerge>
</filter>
</defs>
</svg>
